<?xml version="1.0" standalone="no"?>
<!DOCTYPE svg PUBLIC "-//W3C//DTD SVG 1.1//EN" "http://www.w3.org/Graphics/SVG/1.1/DTD/svg11.dtd" >
<svg xmlns="http://www.w3.org/2000/svg" xmlns:xlink="http://www.w3.org/1999/xlink" version="1.1">
<metadata>
Created by FontForge 20170731 at Thu Mar 15 02:50:44 2018
 By Aleksey,,,
Copyright 2011-2017 The Montserrat-Arabic Project Authors (gaber@kieftype.com)
</metadata>
<defs>
<font id="Montserrat-Arabic-Light" horiz-adv-x="0" >
  <font-face 
    font-family="Montserrat-Arabic Light"
    font-weight="300"
    font-stretch="normal"
    units-per-em="1000"
    panose-1="0 0 4 0 0 0 0 0 0 0"
    ascent="800"
    descent="-200"
    x-height="526"
    cap-height="700"
    bbox="-522 -391 1873 1113"
    underline-thickness="50"
    underline-position="-150"
    unicode-range="U+000D-FEFC"
  />
<missing-glyph horiz-adv-x="587" 
d="M40 700h507v-700h-507v700zM467 70v560h-347v-560h347z" />
    <glyph glyph-name="fi" unicode="fi" horiz-adv-x="599" 
d="M214.5 653q-26.5 -26 -26.5 -71v-72h151v-61h-151v-449h-77v449h-68v61h68v63q0 54 23 94t61.5 61t82.5 21q43 0 91 -24l-19 -65q-38 19 -69 19q-40 0 -66.5 -26zM504 526v-526h-77v526h77zM501.5 715.5q14.5 -15.5 14.5 -38.5t-14.5 -38t-36.5 -15t-36.5 15t-14.5 38
t14.5 38.5t36.5 15.5t36.5 -15.5z" />
    <glyph glyph-name="fl" unicode="fl" horiz-adv-x="619" 
d="M214.5 653q-26.5 -26 -26.5 -71v-72h151v-61h-151v-449h-77v449h-68v61h68v63q0 54 23 94t61.5 61t82.5 21q43 0 91 -24l-19 -65q-38 19 -69 19q-40 0 -66.5 -26zM519 742v-742h-78v742h78z" />
    <glyph glyph-name="uniFC03" unicode="&#xfe8b;&#xfef0;" horiz-adv-x="1007" arabic-form="isolated" 
d="M984 591v-51h-180v51h20q-11 19 -11 40q0 35 26.5 57t68.5 22q18 0 36.5 -4t31.5 -11l-22 -45q-7 4 -20.5 6.5t-24.5 2.5q-22 0 -35 -9.5t-13 -23.5q0 -13 10.5 -23.5t25.5 -11.5h87zM853 468h78v-469h-110q1 -8 1 -25q0 -99 -91.5 -149.5t-291.5 -50.5q-195 0 -297 56
t-102 193q0 30 4.5 72.5t13.5 80.5l76 -17q-7 -29 -11.5 -67.5t-4.5 -66.5q0 -65 31.5 -103.5t101 -56t188.5 -17.5q158 0 227 29.5t69 90.5q0 16 -5 31h-5v1h-6q-110 0 -167 55l54 54q19 -18 45.5 -26.5t67.5 -8.5h134v394z" />
    <glyph glyph-name="uniFC04" unicode="&#xfe8b;&#xfef2;" horiz-adv-x="1007" arabic-form="isolated" 
d="M984 591v-51h-180v51h20q-11 19 -11 40q0 35 26.5 57t68.5 22q18 0 36.5 -4t31.5 -11l-22 -45q-7 4 -20.5 6.5t-24.5 2.5q-22 0 -35 -9.5t-13 -23.5q0 -13 10.5 -23.5t25.5 -11.5h87zM853 468h78v-469h-110q1 -8 1 -25q0 -99 -91.5 -149.5t-291.5 -50.5q-195 0 -297 56
t-102 193q0 30 4.5 72.5t13.5 80.5l76 -17q-7 -29 -11.5 -67.5t-4.5 -66.5q0 -65 31.5 -103.5t101 -56t188.5 -17.5q158 0 227 29.5t69 90.5q0 16 -5 31h-5v1h-6q-110 0 -167 55l54 54q19 -18 45.5 -26.5t67.5 -8.5h134v394zM471.172 -376.115
q-13.6748 14.6191 -13.6748 36.3105t13.6748 35.8379q13.6758 14.1465 34.4238 14.1465q20.749 0 34.4238 -14.1465q13.6758 -14.1465 13.6758 -35.8379t-13.6758 -36.3105q-13.6748 -14.6182 -34.4238 -14.6182q-20.748 0 -34.4238 14.6182zM344.172 -376.115
q-13.6748 14.6191 -13.6748 36.3105t13.6748 35.8379q13.6758 14.1465 34.4238 14.1465q20.749 0 34.4238 -14.1465q13.6758 -14.1465 13.6758 -35.8379t-13.6758 -36.3105q-13.6748 -14.6182 -34.4238 -14.6182q-20.748 0 -34.4238 14.6182z" />
    <glyph glyph-name="uniFC09" unicode="&#xfe91;&#xfef0;" horiz-adv-x="1012" arabic-form="isolated" 
d="M821 -1q1 -8 1 -25q0 -99 -91.5 -149.5t-291.5 -50.5q-195 0 -297 56t-102 193q0 30 4.5 72.5t13.5 80.5l76 -17q-7 -29 -11.5 -67.5t-4.5 -66.5q0 -65 31.5 -103.5t101 -56t188.5 -17.5q158 0 227 29.5t69 90.5q0 16 -5 31h-5v1h-6q-110 0 -167 55l54 54
q19 -18 45.5 -26.5t67.5 -8.5h134v394h78v-469h-110zM930.5 -173q14.5 -15 14.5 -38t-14.5 -38.5t-36.5 -15.5t-36.5 15.5t-14.5 38.5t14.5 38t36.5 15t36.5 -15z" />
    <glyph glyph-name="uniFC0A" unicode="&#xfe91;&#xfef2;" horiz-adv-x="1012" arabic-form="isolated" 
d="M821 -1q1 -8 1 -25q0 -99 -91.5 -149.5t-291.5 -50.5q-195 0 -297 56t-102 193q0 30 4.5 72.5t13.5 80.5l76 -17q-7 -29 -11.5 -67.5t-4.5 -66.5q0 -65 31.5 -103.5t101 -56t188.5 -17.5q158 0 227 29.5t69 90.5q0 16 -5 31h-5v1h-6q-110 0 -167 55l54 54
q19 -18 45.5 -26.5t67.5 -8.5h134v394h78v-469h-110zM930.5 -173q14.5 -15 14.5 -38t-14.5 -38.5t-36.5 -15.5t-36.5 15.5t-14.5 38.5t14.5 38t36.5 15t36.5 -15zM471.172 -376.115q-13.6748 14.6191 -13.6748 36.3105t13.6748 35.8379q13.6758 14.1465 34.4238 14.1465
q20.749 0 34.4238 -14.1465q13.6758 -14.1465 13.6758 -35.8379t-13.6758 -36.3105q-13.6748 -14.6182 -34.4238 -14.6182q-20.748 0 -34.4238 14.6182zM344.172 -376.115q-13.6748 14.6191 -13.6748 36.3105t13.6748 35.8379q13.6758 14.1465 34.4238 14.1465
q20.749 0 34.4238 -14.1465q13.6758 -14.1465 13.6758 -35.8379t-13.6758 -36.3105q-13.6748 -14.6182 -34.4238 -14.6182q-20.748 0 -34.4238 14.6182z" />
    <glyph glyph-name="uniFC0F" unicode="&#xfe97;&#xfef0;" horiz-adv-x="1012" arabic-form="isolated" 
d="M796 559q-14 15 -14 36q0 22 14 36t35 14q20 0 34 -14t14 -36q0 -21 -14 -36t-34 -15q-21 0 -35 15zM992 631q14 -14 14 -36q0 -21 -14 -36t-34 -15q-21 0 -35 15t-14 36q0 22 14 36t35 14q20 0 34 -14zM853 468h78v-469h-110q1 -8 1 -25q0 -99 -91.5 -149.5
t-291.5 -50.5q-195 0 -297 56t-102 193q0 30 4.5 72.5t13.5 80.5l76 -17q-7 -29 -11.5 -67.5t-4.5 -66.5q0 -65 31.5 -103.5t101 -56t188.5 -17.5q158 0 227 29.5t69 90.5q0 16 -5 31h-5v1h-6q-110 0 -167 55l54 54q19 -18 45.5 -26.5t67.5 -8.5h134v394z" />
    <glyph glyph-name="uniFC10" unicode="&#xfe97;&#xfef2;" horiz-adv-x="1012" arabic-form="isolated" 
d="M796 559q-14 15 -14 36q0 22 14 36t35 14q20 0 34 -14t14 -36q0 -21 -14 -36t-34 -15q-21 0 -35 15zM992 631q14 -14 14 -36q0 -21 -14 -36t-34 -15q-21 0 -35 15t-14 36q0 22 14 36t35 14q20 0 34 -14zM853 468h78v-469h-110q1 -8 1 -25q0 -99 -91.5 -149.5
t-291.5 -50.5q-195 0 -297 56t-102 193q0 30 4.5 72.5t13.5 80.5l76 -17q-7 -29 -11.5 -67.5t-4.5 -66.5q0 -65 31.5 -103.5t101 -56t188.5 -17.5q158 0 227 29.5t69 90.5q0 16 -5 31h-5v1h-6q-110 0 -167 55l54 54q19 -18 45.5 -26.5t67.5 -8.5h134v394zM471.172 -376.115
q-13.6748 14.6191 -13.6748 36.3105t13.6748 35.8379q13.6758 14.1465 34.4238 14.1465q20.749 0 34.4238 -14.1465q13.6758 -14.1465 13.6758 -35.8379t-13.6758 -36.3105q-13.6748 -14.6182 -34.4238 -14.6182q-20.748 0 -34.4238 14.6182zM344.172 -376.115
q-13.6748 14.6191 -13.6748 36.3105t13.6748 35.8379q13.6758 14.1465 34.4238 14.1465q20.749 0 34.4238 -14.1465q13.6758 -14.1465 13.6758 -35.8379t-13.6758 -36.3105q-13.6748 -14.6182 -34.4238 -14.6182q-20.748 0 -34.4238 14.6182z" />
    <glyph glyph-name="uniFC13" unicode="&#xfe9b;&#xfef0;" horiz-adv-x="1012" arabic-form="isolated" 
d="M862.5 667q-12.5 13 -12.5 33t12.5 33t31.5 13t31.5 -13t12.5 -33t-12.5 -33t-31.5 -13t-31.5 13zM797 559q-14 14 -14 36q0 21 14 36t35 15q20 0 34 -15t14 -36q0 -22 -14 -36t-34 -14q-21 0 -35 14zM993 631q14 -15 14 -36q0 -22 -14 -36t-34 -14q-21 0 -35 14t-14 36
q0 21 14 36t35 15q20 0 34 -15zM853 468h78v-469h-110q1 -8 1 -25q0 -99 -91.5 -149.5t-291.5 -50.5q-195 0 -297 56t-102 193q0 30 4.5 72.5t13.5 80.5l76 -17q-7 -29 -11.5 -67.5t-4.5 -66.5q0 -65 31.5 -103.5t101 -56t188.5 -17.5q158 0 227 29.5t69 90.5q0 16 -5 31h-5
v1h-6q-110 0 -167 55l54 54q19 -18 45.5 -26.5t67.5 -8.5h134v394z" />
    <glyph glyph-name="uniFC14" unicode="&#xfe9b;&#xfef2;" horiz-adv-x="1012" arabic-form="isolated" 
d="M862.5 667q-12.5 13 -12.5 33t12.5 33t31.5 13t31.5 -13t12.5 -33t-12.5 -33t-31.5 -13t-31.5 13zM797 559q-14 14 -14 36q0 21 14 36t35 15q20 0 34 -15t14 -36q0 -22 -14 -36t-34 -14q-21 0 -35 14zM993 631q14 -15 14 -36q0 -22 -14 -36t-34 -14q-21 0 -35 14t-14 36
q0 21 14 36t35 15q20 0 34 -15zM853 468h78v-469h-110q1 -8 1 -25q0 -99 -91.5 -149.5t-291.5 -50.5q-195 0 -297 56t-102 193q0 30 4.5 72.5t13.5 80.5l76 -17q-7 -29 -11.5 -67.5t-4.5 -66.5q0 -65 31.5 -103.5t101 -56t188.5 -17.5q158 0 227 29.5t69 90.5q0 16 -5 31h-5
v1h-6q-110 0 -167 55l54 54q19 -18 45.5 -26.5t67.5 -8.5h134v394zM471.172 -376.115q-13.6748 14.6191 -13.6748 36.3105t13.6748 35.8379q13.6758 14.1465 34.4238 14.1465q20.749 0 34.4238 -14.1465q13.6758 -14.1465 13.6758 -35.8379t-13.6758 -36.3105
q-13.6748 -14.6182 -34.4238 -14.6182q-20.748 0 -34.4238 14.6182zM344.172 -376.115q-13.6748 14.6191 -13.6748 36.3105t13.6748 35.8379q13.6758 14.1465 34.4238 14.1465q20.749 0 34.4238 -14.1465q13.6758 -14.1465 13.6758 -35.8379t-13.6758 -36.3105
q-13.6748 -14.6182 -34.4238 -14.6182q-20.748 0 -34.4238 14.6182z" />
    <glyph glyph-name="uniFC31" unicode="&#xfed3;&#xfef0;" horiz-adv-x="1195" arabic-form="isolated" 
d="M923.5 608.5q-14.5 15.5 -14.5 38.5t14.5 38t36.5 15t36.5 -15t14.5 -38t-14.5 -38.5t-36.5 -15.5t-36.5 15.5zM1155 460v-460h-335q2 -16 2 -26q0 -99 -91.5 -149.5t-291.5 -50.5q-195 0 -297 56t-102 193q0 30 4.5 72.5t13.5 80.5l76 -17q-7 -29 -11.5 -67.5
t-4.5 -66.5q0 -65 31.5 -103.5t101 -56t188.5 -17.5q158 0 227 29.5t69 90.5q0 17 -6 32h-10q-110 0 -167 55l54 54q19 -18 45.5 -26.5t67.5 -8.5h30q-67 72 -67 171q0 75 37 135t101 94.5t140 34.5q89 0 195 -49zM857 410q-46 -25 -71.5 -68t-25.5 -96q0 -63 36 -109
t96 -63h185v338q-66 23 -117 23q-57 0 -103 -25z" />
    <glyph glyph-name="uniFC32" unicode="&#xfed3;&#xfef2;" horiz-adv-x="1195" arabic-form="isolated" 
d="M923.5 608.5q-14.5 15.5 -14.5 38.5t14.5 38t36.5 15t36.5 -15t14.5 -38t-14.5 -38.5t-36.5 -15.5t-36.5 15.5zM1155 460v-460h-335q2 -16 2 -26q0 -99 -91.5 -149.5t-291.5 -50.5q-195 0 -297 56t-102 193q0 30 4.5 72.5t13.5 80.5l76 -17q-7 -29 -11.5 -67.5
t-4.5 -66.5q0 -65 31.5 -103.5t101 -56t188.5 -17.5q158 0 227 29.5t69 90.5q0 17 -6 32h-10q-110 0 -167 55l54 54q19 -18 45.5 -26.5t67.5 -8.5h30q-67 72 -67 171q0 75 37 135t101 94.5t140 34.5q89 0 195 -49zM857 410q-46 -25 -71.5 -68t-25.5 -96q0 -63 36 -109
t96 -63h185v338q-66 23 -117 23q-57 0 -103 -25zM471.172 -376.115q-13.6748 14.6191 -13.6748 36.3105t13.6748 35.8379q13.6758 14.1465 34.4238 14.1465q20.749 0 34.4238 -14.1465q13.6758 -14.1465 13.6758 -35.8379t-13.6758 -36.3105
q-13.6748 -14.6182 -34.4238 -14.6182q-20.748 0 -34.4238 14.6182zM344.172 -376.115q-13.6748 14.6191 -13.6748 36.3105t13.6748 35.8379q13.6758 14.1465 34.4238 14.1465q20.749 0 34.4238 -14.1465q13.6758 -14.1465 13.6758 -35.8379t-13.6758 -36.3105
q-13.6748 -14.6182 -34.4238 -14.6182q-20.748 0 -34.4238 14.6182z" />
    <glyph glyph-name="uniFC35" unicode="&#xfed7;&#xfef0;" horiz-adv-x="1195" arabic-form="isolated" 
d="M860 606q-14 15 -14 36q0 22 14 36t35 14q20 0 34 -14t14 -36q0 -21 -14 -36t-34 -15q-21 0 -35 15zM987 606q-14 15 -14 36q0 22 14 36t35 14q20 0 34 -14t14 -36q0 -21 -14 -36t-34 -15q-21 0 -35 15zM1155 460v-460h-335q2 -16 2 -26q0 -99 -91.5 -149.5t-291.5 -50.5
q-195 0 -297 56t-102 193q0 30 4.5 72.5t13.5 80.5l76 -17q-7 -29 -11.5 -67.5t-4.5 -66.5q0 -65 31.5 -103.5t101 -56t188.5 -17.5q158 0 227 29.5t69 90.5q0 17 -6 32h-10q-110 0 -167 55l54 54q19 -18 45.5 -26.5t67.5 -8.5h30q-67 72 -67 171q0 75 37 135t101 94.5
t140 34.5q89 0 195 -49zM857 410q-46 -25 -71.5 -68t-25.5 -96q0 -63 36 -109t96 -63h185v338q-66 23 -117 23q-57 0 -103 -25z" />
    <glyph glyph-name="uniFC36" unicode="&#xfed7;&#xfef2;" horiz-adv-x="1195" arabic-form="isolated" 
d="M860 606q-14 15 -14 36q0 22 14 36t35 14q20 0 34 -14t14 -36q0 -21 -14 -36t-34 -15q-21 0 -35 15zM987 606q-14 15 -14 36q0 22 14 36t35 14q20 0 34 -14t14 -36q0 -21 -14 -36t-34 -15q-21 0 -35 15zM1155 460v-460h-335q2 -16 2 -26q0 -99 -91.5 -149.5t-291.5 -50.5
q-195 0 -297 56t-102 193q0 30 4.5 72.5t13.5 80.5l76 -17q-7 -29 -11.5 -67.5t-4.5 -66.5q0 -65 31.5 -103.5t101 -56t188.5 -17.5q158 0 227 29.5t69 90.5q0 17 -6 32h-10q-110 0 -167 55l54 54q19 -18 45.5 -26.5t67.5 -8.5h30q-67 72 -67 171q0 75 37 135t101 94.5
t140 34.5q89 0 195 -49zM857 410q-46 -25 -71.5 -68t-25.5 -96q0 -63 36 -109t96 -63h185v338q-66 23 -117 23q-57 0 -103 -25zM471.172 -376.115q-13.6748 14.6191 -13.6748 36.3105t13.6748 35.8379q13.6758 14.1465 34.4238 14.1465q20.749 0 34.4238 -14.1465
q13.6758 -14.1465 13.6758 -35.8379t-13.6758 -36.3105q-13.6748 -14.6182 -34.4238 -14.6182q-20.748 0 -34.4238 14.6182zM344.172 -376.115q-13.6748 14.6191 -13.6748 36.3105t13.6748 35.8379q13.6758 14.1465 34.4238 14.1465q20.749 0 34.4238 -14.1465
q13.6758 -14.1465 13.6758 -35.8379t-13.6758 -36.3105q-13.6748 -14.6182 -34.4238 -14.6182q-20.748 0 -34.4238 14.6182z" />
    <glyph glyph-name="uniFC3B" unicode="&#xfedb;&#xfede;" horiz-adv-x="1105" arabic-form="isolated" 
d="M926 383.5q50 -48.5 77.5 -123.5t27.5 -170v-90h-286v1q-2 -1 -7 -1h-3q-66 0 -113 30q-23 -107 -98 -172t-189 -65q-91 0 -157.5 43t-102 115.5t-35.5 161.5q0 63 15 126l77 -12q-14 -64 -14 -116q0 -71 27 -126.5t76 -86.5t114 -31t114.5 30.5t76.5 86.5t27 128v621h78
v-618v-9q29 -32 85 -32h22q5 0 7 -1v1h208v22q0 133 -57.5 208t-155.5 75l-49 52l261 262l49 -53l-192 -192q67 -16 117 -64.5z" />
    <glyph glyph-name="uniFC3D" unicode="&#xfedb;&#xfef0;" horiz-adv-x="1038" arabic-form="isolated" 
d="M859 383.5q50 -48.5 77.5 -124t27.5 -169.5v-90h-144q2 -16 2 -26q0 -99 -91.5 -149.5t-291.5 -50.5q-195 0 -297 56t-102 193q0 30 4.5 72.5t13.5 80.5l76 -17q-7 -29 -11.5 -67.5t-4.5 -66.5q0 -65 31.5 -103.5t101 -56t188.5 -17.5q158 0 227 29.5t69 90.5q0 17 -6 32
h-10q-110 0 -167 55l54 54q19 -18 45.5 -26.5t67.5 -8.5h167v22q0 88 -26 152t-74 97.5t-112 33.5l-50 52l262 262l48 -53l-192 -192q67 -16 117 -64.5z" />
    <glyph glyph-name="uniFC3E" unicode="&#xfedb;&#xfef2;" horiz-adv-x="1038" arabic-form="isolated" 
d="M859 383.5q50 -48.5 77.5 -124t27.5 -169.5v-90h-144q2 -16 2 -26q0 -99 -91.5 -149.5t-291.5 -50.5q-195 0 -297 56t-102 193q0 30 4.5 72.5t13.5 80.5l76 -17q-7 -29 -11.5 -67.5t-4.5 -66.5q0 -65 31.5 -103.5t101 -56t188.5 -17.5q158 0 227 29.5t69 90.5q0 17 -6 32
h-10q-110 0 -167 55l54 54q19 -18 45.5 -26.5t67.5 -8.5h167v22q0 88 -26 152t-74 97.5t-112 33.5l-50 52l262 262l48 -53l-192 -192q67 -16 117 -64.5zM471.172 -376.115q-13.6748 14.6191 -13.6748 36.3105t13.6748 35.8379q13.6758 14.1465 34.4238 14.1465
q20.749 0 34.4238 -14.1465q13.6758 -14.1465 13.6758 -35.8379t-13.6758 -36.3105q-13.6748 -14.6182 -34.4238 -14.6182q-20.748 0 -34.4238 14.6182zM344.172 -376.115q-13.6748 14.6191 -13.6748 36.3105t13.6748 35.8379q13.6758 14.1465 34.4238 14.1465
q20.749 0 34.4238 -14.1465q13.6758 -14.1465 13.6758 -35.8379t-13.6758 -36.3105q-13.6748 -14.6182 -34.4238 -14.6182q-20.748 0 -34.4238 14.6182z" />
    <glyph glyph-name="uniFC43" unicode="&#xfedf;&#xfef0;" horiz-adv-x="998" arabic-form="isolated" 
d="M915 733v-733h-162q-12 0 -16 9t-4 28t4 28t16 9h84v659h78zM892 65q4 -9 4 -28t-4 -28t-16 -9h-56q2 -16 2 -26q0 -99 -91.5 -149.5t-291.5 -50.5q-195 0 -297 56t-102 193q0 30 4.5 72.5t13.5 80.5l76 -17q-7 -29 -11.5 -67.5t-4.5 -66.5q0 -65 31.5 -103.5t101 -56
t188.5 -17.5q158 0 227 29.5t69 90.5q0 17 -6 32h-10q-110 0 -167 55l54 54q19 -18 45.5 -26.5t67.5 -8.5h157q12 0 16 -9z" />
    <glyph glyph-name="uniFC44" unicode="&#xfedf;&#xfef2;" horiz-adv-x="998" arabic-form="isolated" 
d="M915 733v-733h-162q-12 0 -16 9t-4 28t4 28t16 9h84v659h78zM892 65q4 -9 4 -28t-4 -28t-16 -9h-56q2 -16 2 -26q0 -99 -91.5 -149.5t-291.5 -50.5q-195 0 -297 56t-102 193q0 30 4.5 72.5t13.5 80.5l76 -17q-7 -29 -11.5 -67.5t-4.5 -66.5q0 -65 31.5 -103.5t101 -56
t188.5 -17.5q158 0 227 29.5t69 90.5q0 17 -6 32h-10q-110 0 -167 55l54 54q19 -18 45.5 -26.5t67.5 -8.5h157q12 0 16 -9zM471.172 -376.115q-13.6748 14.6191 -13.6748 36.3105t13.6748 35.8379q13.6758 14.1465 34.4238 14.1465q20.749 0 34.4238 -14.1465
q13.6758 -14.1465 13.6758 -35.8379t-13.6758 -36.3105q-13.6748 -14.6182 -34.4238 -14.6182q-20.748 0 -34.4238 14.6182zM344.172 -376.115q-13.6748 14.6191 -13.6748 36.3105t13.6748 35.8379q13.6758 14.1465 34.4238 14.1465q20.749 0 34.4238 -14.1465
q13.6758 -14.1465 13.6758 -35.8379t-13.6758 -36.3105q-13.6748 -14.6182 -34.4238 -14.6182q-20.748 0 -34.4238 14.6182z" />
    <glyph glyph-name="uniFC4F" unicode="&#xfee7;&#xfef0;" horiz-adv-x="1004" arabic-form="isolated" 
d="M856.5 555.5q-14.5 15.5 -14.5 38.5t14.5 38t36.5 15t36.5 -15t14.5 -38t-14.5 -38.5t-36.5 -15.5t-36.5 15.5zM853 468h78v-469h-110q1 -8 1 -25q0 -99 -91.5 -149.5t-291.5 -50.5q-195 0 -297 56t-102 193q0 30 4.5 72.5t13.5 80.5l76 -17q-7 -29 -11.5 -67.5
t-4.5 -66.5q0 -65 31.5 -103.5t101 -56t188.5 -17.5q158 0 227 29.5t69 90.5q0 16 -5 31h-5v1h-6q-110 0 -167 55l54 54q19 -18 45.5 -26.5t67.5 -8.5h134v394z" />
    <glyph glyph-name="uniFC50" unicode="&#xfee7;&#xfef2;" horiz-adv-x="1004" arabic-form="isolated" 
d="M856.5 555.5q-14.5 15.5 -14.5 38.5t14.5 38t36.5 15t36.5 -15t14.5 -38t-14.5 -38.5t-36.5 -15.5t-36.5 15.5zM853 468h78v-469h-110q1 -8 1 -25q0 -99 -91.5 -149.5t-291.5 -50.5q-195 0 -297 56t-102 193q0 30 4.5 72.5t13.5 80.5l76 -17q-7 -29 -11.5 -67.5
t-4.5 -66.5q0 -65 31.5 -103.5t101 -56t188.5 -17.5q158 0 227 29.5t69 90.5q0 16 -5 31h-5v1h-6q-110 0 -167 55l54 54q19 -18 45.5 -26.5t67.5 -8.5h134v394zM471.172 -376.115q-13.6748 14.6191 -13.6748 36.3105t13.6748 35.8379q13.6758 14.1465 34.4238 14.1465
q20.749 0 34.4238 -14.1465q13.6758 -14.1465 13.6758 -35.8379t-13.6758 -36.3105q-13.6748 -14.6182 -34.4238 -14.6182q-20.748 0 -34.4238 14.6182zM344.172 -376.115q-13.6748 14.6191 -13.6748 36.3105t13.6748 35.8379q13.6758 14.1465 34.4238 14.1465
q20.749 0 34.4238 -14.1465q13.6758 -14.1465 13.6758 -35.8379t-13.6758 -36.3105q-13.6748 -14.6182 -34.4238 -14.6182q-20.748 0 -34.4238 14.6182z" />
    <glyph glyph-name="uniFC5A" unicode="&#xfef3;&#xfef2;" horiz-adv-x="1006" arabic-form="isolated" 
d="M822 -26q0 -99 -91.5 -149.5t-291.5 -50.5q-195 0 -297 56t-102 193q0 30 4.5 72.5t13.5 80.5l76 -17q-7 -29 -11.5 -67.5t-4.5 -66.5q0 -65 31.5 -103.5t101 -56t188.5 -17.5q158 0 227 29.5t69 90.5q0 16 -5 31h-5v1h-6q-110 0 -167 55l54 54q19 -18 45.5 -26.5
t67.5 -8.5h134v394h78v-469h-110q1 -8 1 -25zM865 -179q14 -14 14 -36q0 -21 -14 -36t-34 -15q-21 0 -35 15t-14 36q0 22 14 36t35 14q20 0 34 -14zM992 -179q14 -14 14 -36q0 -21 -14 -36t-34 -15q-21 0 -35 15t-14 36q0 22 14 36t35 14q20 0 34 -14zM414 -304
q14 -14 14 -36q0 -21 -14 -36t-34 -15q-21 0 -35 15t-14 36q0 22 14 36t35 14q20 0 34 -14zM541 -304q14 -14 14 -36q0 -21 -14 -36t-34 -15q-21 0 -35 15t-14 36q0 22 14 36t35 14q20 0 34 -14z" />
    <glyph glyph-name="uniFC64" unicode="&#xfe8c;&#xfeae;" horiz-adv-x="599" arabic-form="final" 
d="M615 65q4 -9 4 -28t-4 -28t-16 -9h-37q-98 0 -142.5 43t-44.5 136v52q-47 -14 -97 -14q-47 0 -94 13v-242q0 -100 -51.5 -155t-143.5 -56l-13 75q67 -3 98.5 30t31.5 106v481h78v-165q47 -13 94 -13q50 0 97 14v164h78v-289q0 -58 25 -82t89 -24h32q12 0 16 -9zM503 592
v-51h-180v51h20q-11 19 -11 40q0 35 26.5 57t68.5 22q18 0 36.5 -4t31.5 -11l-22 -45q-7 4 -20.5 6.5t-24.5 2.5q-22 0 -35 -9.5t-13 -23.5q0 -13 10.5 -23.5t25.5 -11.5h87z" />
    <glyph glyph-name="uniFC65" unicode="&#xfe8c;&#xfeb0;" horiz-adv-x="599" arabic-form="final" 
d="M615 65q4 -9 4 -28t-4 -28t-16 -9h-37q-98 0 -142.5 43t-44.5 136v52q-47 -14 -97 -14q-47 0 -94 13v-242q0 -100 -51.5 -155t-143.5 -56l-13 75q67 -3 98.5 30t31.5 106v481h78v-165q47 -13 94 -13q50 0 97 14v164h78v-289q0 -58 25 -82t89 -24h32q12 0 16 -9zM503 592
v-51h-180v51h20q-11 19 -11 40q0 35 26.5 57t68.5 22q18 0 36.5 -4t31.5 -11l-22 -45q-7 4 -20.5 6.5t-24.5 2.5q-22 0 -35 -9.5t-13 -23.5q0 -13 10.5 -23.5t25.5 -11.5h87zM108.5 556.5q-14.5 15.5 -14.5 38.5t14.5 38t36.5 15t36.5 -15t14.5 -38t-14.5 -38.5t-36.5 -15.5
t-36.5 15.5z" />
    <glyph glyph-name="uniFC67" unicode="&#xfe8c;&#xfee6;" horiz-adv-x="1045" arabic-form="final" 
d="M296.5 465.5q-14.5 15.5 -14.5 38.5t14.5 38t36.5 15t36.5 -15t14.5 -38t-14.5 -38.5t-36.5 -15.5t-36.5 15.5zM1061 65q4 -9 4 -28t-4 -28t-16 -9h-37q-90 0 -135 36.5t-51 114.5q-50 -16 -103 -16q-49 0 -89 12q1 -11 1 -32q0 -90 -35.5 -163.5t-102.5 -116t-158 -42.5
t-157.5 43t-102 115.5t-35.5 161.5q0 74 24 161l71 -36q-17 -66 -17 -127q0 -71 27 -126.5t76 -86.5t114 -31t114.5 30.5t76.5 86.5t27 128q0 49 -11.5 105.5t-30.5 100.5l68 38q26 -56 41 -132q50 -15 99 -15q57 0 102 16v177h78v-222q0 -58 25.5 -82t89.5 -24h31
q12 0 16 -9zM950 530v-51h-180v51h20q-11 19 -11 40q0 35 26.5 57t68.5 22q18 0 36.5 -4t31.5 -11l-22 -45q-7 4 -20.5 6.5t-24.5 2.5q-22 0 -35 -9.5t-13 -23.5q0 -13 10.5 -23.5t25.5 -11.5h87z" />
    <glyph glyph-name="uniFC68" unicode="&#xfe8c;&#xfef0;" horiz-adv-x="1092" arabic-form="final" 
d="M693 555h-180v51h20q-11 19 -11 40q0 35 26.5 57t68.5 22q18 0 36.5 -4t31.5 -11l-22 -45q-7 4 -20.5 6.5t-24.5 2.5q-22 0 -35 -9.5t-13 -23.5q0 -13 10.5 -23.5t25.5 -11.5h87v-51zM1108 65q4 -9 4 -28t-4 -28t-16 -9h-18q-83 0 -146.5 52.5t-84.5 138.5l-6 31
q-12 59 -29 97t-64.5 66t-137.5 28t-138.5 -26.5t-48.5 -78.5q0 -39 23.5 -64t59 -40t96.5 -33q72 -21 117 -41t76 -57.5t31 -98.5q0 -98 -91 -149t-292 -51q-195 0 -297 56t-102 193q0 30 4.5 72.5t13.5 80.5l76 -17q-7 -29 -11.5 -67.5t-4.5 -65.5q0 -66 31.5 -104.5
t101.5 -56t190 -17.5q160 0 231.5 29.5t71.5 91.5q0 38 -23 62t-57 38t-95 32q-74 22 -119 41.5t-77 58.5t-32 102q0 87 68 135.5t198 48.5q120 0 184.5 -40t87 -90.5t34.5 -117.5l6 -29q16 -63 57.5 -99.5t97.5 -36.5h18q12 0 16 -9z" />
    <glyph glyph-name="uniFC69" unicode="&#xfe8c;&#xfef2;" horiz-adv-x="1092" arabic-form="final" 
d="M693 555h-180v51h20q-11 19 -11 40q0 35 26.5 57t68.5 22q18 0 36.5 -4t31.5 -11l-22 -45q-7 4 -20.5 6.5t-24.5 2.5q-22 0 -35 -9.5t-13 -23.5q0 -13 10.5 -23.5t25.5 -11.5h87v-51zM1108 65q4 -9 4 -28t-4 -28t-16 -9h-18q-83 0 -146.5 52.5t-84.5 138.5l-6 31
q-12 59 -29 97t-64.5 66t-137.5 28t-138.5 -26.5t-48.5 -78.5q0 -39 23.5 -64t59 -40t96.5 -33q72 -21 117 -41t76 -57.5t31 -98.5q0 -98 -91 -149t-292 -51q-195 0 -297 56t-102 193q0 30 4.5 72.5t13.5 80.5l76 -17q-7 -29 -11.5 -67.5t-4.5 -65.5q0 -66 31.5 -104.5
t101.5 -56t190 -17.5q160 0 231.5 29.5t71.5 91.5q0 38 -23 62t-57 38t-95 32q-74 22 -119 41.5t-77 58.5t-32 102q0 87 68 135.5t198 48.5q120 0 184.5 -40t87 -90.5t34.5 -117.5l6 -29q16 -63 57.5 -99.5t97.5 -36.5h18q12 0 16 -9zM471.172 -376.115
q-13.6748 14.6191 -13.6748 36.3105t13.6748 35.8379q13.6758 14.1465 34.4238 14.1465q20.749 0 34.4238 -14.1465q13.6758 -14.1465 13.6758 -35.8379t-13.6758 -36.3105q-13.6748 -14.6182 -34.4238 -14.6182q-20.748 0 -34.4238 14.6182zM344.172 -376.115
q-13.6748 14.6191 -13.6748 36.3105t13.6748 35.8379q13.6758 14.1465 34.4238 14.1465q20.749 0 34.4238 -14.1465q13.6758 -14.1465 13.6758 -35.8379t-13.6758 -36.3105q-13.6748 -14.6182 -34.4238 -14.6182q-20.748 0 -34.4238 14.6182z" />
    <glyph glyph-name="uniFC6A" unicode="&#xfe92;&#xfeae;" horiz-adv-x="599" arabic-form="final" 
d="M615 65q4 -9 4 -28t-4 -28t-16 -9h-37q-98 0 -142.5 43t-44.5 136v52q-47 -14 -97 -14q-47 0 -94 13v-242q0 -100 -51.5 -155t-143.5 -56l-13 75q67 -3 98.5 30t31.5 106v481h78v-165q47 -13 94 -13q50 0 97 14v164h78v-289q0 -58 25 -82t89 -24h32q12 0 16 -9z
M371.5 -171.5q-14.5 15.5 -14.5 38.5t14.5 38t36.5 15t36.5 -15t14.5 -38t-14.5 -38.5t-36.5 -15.5t-36.5 15.5z" />
    <glyph glyph-name="uniFC6B" unicode="&#xfe92;&#xfeb0;" horiz-adv-x="599" arabic-form="final" 
d="M615 65q4 -9 4 -28t-4 -28t-16 -9h-37q-98 0 -142.5 43t-44.5 136v52q-47 -14 -97 -14q-47 0 -94 13v-242q0 -100 -51.5 -155t-143.5 -56l-13 75q67 -3 98.5 30t31.5 106v481h78v-165q47 -13 94 -13q50 0 97 14v164h78v-289q0 -58 25 -82t89 -24h32q12 0 16 -9z
M371.5 -171.5q-14.5 15.5 -14.5 38.5t14.5 38t36.5 15t36.5 -15t14.5 -38t-14.5 -38.5t-36.5 -15.5t-36.5 15.5zM108.5 555.5q-14.5 15.5 -14.5 38.5t14.5 38t36.5 15t36.5 -15t14.5 -38t-14.5 -38.5t-36.5 -15.5t-36.5 15.5z" />
    <glyph glyph-name="uniFC6D" unicode="&#xfe92;&#xfee6;" horiz-adv-x="1045" arabic-form="final" 
d="M296.5 465.5q-14.5 15.5 -14.5 38.5t14.5 38t36.5 15t36.5 -15t14.5 -38t-14.5 -38.5t-36.5 -15.5t-36.5 15.5zM1061 65q4 -9 4 -28t-4 -28t-16 -9h-37q-90 0 -135 36.5t-51 114.5q-50 -16 -103 -16q-49 0 -89 12q1 -11 1 -32q0 -90 -35.5 -163.5t-102.5 -116t-158 -42.5
t-157.5 43t-102 115.5t-35.5 161.5q0 74 24 161l71 -36q-17 -66 -17 -127q0 -71 27 -126.5t76 -86.5t114 -31t114.5 30.5t76.5 86.5t27 128q0 49 -11.5 105.5t-30.5 100.5l68 38q26 -56 41 -132q50 -15 99 -15q57 0 102 16v177h78v-222q0 -58 25.5 -82t89.5 -24h31
q12 0 16 -9zM817.5 -171.5q-14.5 15.5 -14.5 38.5t14.5 38t36.5 15t36.5 -15t14.5 -38t-14.5 -38.5t-36.5 -15.5t-36.5 15.5z" />
    <glyph glyph-name="uniFC6E" unicode="&#xfe92;&#xfef0;" horiz-adv-x="1092" arabic-form="final" 
d="M1108 65q4 -9 4 -28t-4 -28t-16 -9h-18q-83 0 -146.5 52.5t-84.5 138.5l-6 31q-12 59 -29 97t-64.5 66t-137.5 28t-138.5 -26.5t-48.5 -78.5q0 -39 23.5 -64t59 -40t96.5 -33q72 -21 117 -41t76 -57.5t31 -98.5q0 -98 -91 -149t-292 -51q-195 0 -297 56t-102 193
q0 30 4.5 72.5t13.5 80.5l76 -17q-7 -29 -11.5 -67.5t-4.5 -65.5q0 -66 31.5 -104.5t101.5 -56t190 -17.5q160 0 231.5 29.5t71.5 91.5q0 38 -23 62t-57 38t-95 32q-74 22 -119 41.5t-77 58.5t-32 102q0 87 68 135.5t198 48.5q120 0 184.5 -40t87 -90.5t34.5 -117.5l6 -29
q16 -63 57.5 -99.5t97.5 -36.5h18q12 0 16 -9zM1039.5 -95q14.5 -15 14.5 -38t-14.5 -38.5t-36.5 -15.5t-36.5 15.5t-14.5 38.5t14.5 38t36.5 15t36.5 -15z" />
    <glyph glyph-name="uniFC6F" unicode="&#xfe92;&#xfef2;" horiz-adv-x="1092" arabic-form="final" 
d="M1108 65q4 -9 4 -28t-4 -28t-16 -9h-18q-83 0 -146.5 52.5t-84.5 138.5l-6 31q-12 59 -29 97t-64.5 66t-137.5 28t-138.5 -26.5t-48.5 -78.5q0 -39 23.5 -64t59 -40t96.5 -33q72 -21 117 -41t76 -57.5t31 -98.5q0 -98 -91 -149t-292 -51q-195 0 -297 56t-102 193
q0 30 4.5 72.5t13.5 80.5l76 -17q-7 -29 -11.5 -67.5t-4.5 -65.5q0 -66 31.5 -104.5t101.5 -56t190 -17.5q160 0 231.5 29.5t71.5 91.5q0 38 -23 62t-57 38t-95 32q-74 22 -119 41.5t-77 58.5t-32 102q0 87 68 135.5t198 48.5q120 0 184.5 -40t87 -90.5t34.5 -117.5l6 -29
q16 -63 57.5 -99.5t97.5 -36.5h18q12 0 16 -9zM1039.5 -95q14.5 -15 14.5 -38t-14.5 -38.5t-36.5 -15.5t-36.5 15.5t-14.5 38.5t14.5 38t36.5 15t36.5 -15zM471.172 -376.115q-13.6748 14.6191 -13.6748 36.3105t13.6748 35.8379q13.6758 14.1465 34.4238 14.1465
q20.749 0 34.4238 -14.1465q13.6758 -14.1465 13.6758 -35.8379t-13.6758 -36.3105q-13.6748 -14.6182 -34.4238 -14.6182q-20.748 0 -34.4238 14.6182zM344.172 -376.115q-13.6748 14.6191 -13.6748 36.3105t13.6748 35.8379q13.6758 14.1465 34.4238 14.1465
q20.749 0 34.4238 -14.1465q13.6758 -14.1465 13.6758 -35.8379t-13.6758 -36.3105q-13.6748 -14.6182 -34.4238 -14.6182q-20.748 0 -34.4238 14.6182z" />
    <glyph glyph-name="uniFC70" unicode="&#xfe98;&#xfeae;" horiz-adv-x="599" arabic-form="final" 
d="M615 65q4 -9 4 -28t-4 -28t-16 -9h-37q-98 0 -142.5 43t-44.5 136v52q-47 -14 -97 -14q-47 0 -94 13v-242q0 -100 -51.5 -155t-143.5 -56l-13 75q67 -3 98.5 30t31.5 106v481h78v-165q47 -13 94 -13q50 0 97 14v164h78v-289q0 -58 25 -82t89 -24h32q12 0 16 -9z
M444.172 554.885q-13.6748 14.6191 -13.6748 36.3105t13.6748 35.8379q13.6758 14.1465 34.4238 14.1465q20.749 0 34.4238 -14.1465q13.6758 -14.1465 13.6758 -35.8379t-13.6758 -36.3105q-13.6748 -14.6182 -34.4238 -14.6182q-20.748 0 -34.4238 14.6182z
M317.172 554.885q-13.6748 14.6191 -13.6748 36.3105t13.6748 35.8379q13.6758 14.1465 34.4238 14.1465q20.749 0 34.4238 -14.1465q13.6758 -14.1465 13.6758 -35.8379t-13.6758 -36.3105q-13.6748 -14.6182 -34.4238 -14.6182q-20.748 0 -34.4238 14.6182z" />
    <glyph glyph-name="uniFC71" unicode="&#xfe98;&#xfeb0;" horiz-adv-x="599" arabic-form="final" 
d="M615 65q4 -9 4 -28t-4 -28t-16 -9h-37q-98 0 -142.5 43t-44.5 136v52q-47 -14 -97 -14q-47 0 -94 13v-242q0 -100 -51.5 -155t-143.5 -56l-13 75q67 -3 98.5 30t31.5 106v481h78v-165q47 -13 94 -13q50 0 97 14v164h78v-289q0 -58 25 -82t89 -24h32q12 0 16 -9z
M444.172 554.885q-13.6748 14.6191 -13.6748 36.3105t13.6748 35.8379q13.6758 14.1465 34.4238 14.1465q20.749 0 34.4238 -14.1465q13.6758 -14.1465 13.6758 -35.8379t-13.6758 -36.3105q-13.6748 -14.6182 -34.4238 -14.6182q-20.748 0 -34.4238 14.6182z
M317.172 554.885q-13.6748 14.6191 -13.6748 36.3105t13.6748 35.8379q13.6758 14.1465 34.4238 14.1465q20.749 0 34.4238 -14.1465q13.6758 -14.1465 13.6758 -35.8379t-13.6758 -36.3105q-13.6748 -14.6182 -34.4238 -14.6182q-20.748 0 -34.4238 14.6182zM108.5 555.5
q-14.5 15.5 -14.5 38.5t14.5 38t36.5 15t36.5 -15t14.5 -38t-14.5 -38.5t-36.5 -15.5t-36.5 15.5z" />
    <glyph glyph-name="uniFC73" unicode="&#xfe98;&#xfee6;" horiz-adv-x="1045" arabic-form="final" 
d="M296.5 465.5q-14.5 15.5 -14.5 38.5t14.5 38t36.5 15t36.5 -15t14.5 -38t-14.5 -38.5t-36.5 -15.5t-36.5 15.5zM1061 65q4 -9 4 -28t-4 -28t-16 -9h-37q-90 0 -135 36.5t-51 114.5q-50 -16 -103 -16q-49 0 -89 12q1 -11 1 -32q0 -90 -35.5 -163.5t-102.5 -116t-158 -42.5
t-157.5 43t-102 115.5t-35.5 161.5q0 74 24 161l71 -36q-17 -66 -17 -127q0 -71 27 -126.5t76 -86.5t114 -31t114.5 30.5t76.5 86.5t27 128q0 49 -11.5 105.5t-30.5 100.5l68 38q26 -56 41 -132q50 -15 99 -15q57 0 102 16v177h78v-222q0 -58 25.5 -82t89.5 -24h31
q12 0 16 -9zM890.172 492.885q-13.6748 14.6191 -13.6748 36.3105t13.6748 35.8379q13.6758 14.1465 34.4238 14.1465q20.749 0 34.4238 -14.1465q13.6758 -14.1465 13.6758 -35.8379t-13.6758 -36.3105q-13.6748 -14.6182 -34.4238 -14.6182q-20.748 0 -34.4238 14.6182z
M763.172 492.885q-13.6748 14.6191 -13.6748 36.3105t13.6748 35.8379q13.6758 14.1465 34.4238 14.1465q20.749 0 34.4238 -14.1465q13.6758 -14.1465 13.6758 -35.8379t-13.6758 -36.3105q-13.6748 -14.6182 -34.4238 -14.6182q-20.748 0 -34.4238 14.6182z" />
    <glyph glyph-name="uniFC74" unicode="&#xfe98;&#xfef0;" horiz-adv-x="1092" arabic-form="final" 
d="M508 574q-14 15 -14 36q0 22 14 36t35 14q20 0 34 -14t14 -36q0 -21 -14 -36t-34 -15q-21 0 -35 15zM635 574q-14 15 -14 36q0 22 14 36t35 14q20 0 34 -14t14 -36q0 -21 -14 -36t-34 -15q-21 0 -35 15zM1108 65q4 -9 4 -28t-4 -28t-16 -9h-18q-83 0 -146.5 52.5
t-84.5 138.5l-6 31q-12 59 -29 97t-64.5 66t-137.5 28t-138.5 -26.5t-48.5 -78.5q0 -39 23.5 -64t59 -40t96.5 -33q72 -21 117 -41t76 -57.5t31 -98.5q0 -98 -91 -149t-292 -51q-195 0 -297 56t-102 193q0 30 4.5 72.5t13.5 80.5l76 -17q-7 -29 -11.5 -67.5t-4.5 -65.5
q0 -66 31.5 -104.5t101.5 -56t190 -17.5q160 0 231.5 29.5t71.5 91.5q0 38 -23 62t-57 38t-95 32q-74 22 -119 41.5t-77 58.5t-32 102q0 87 68 135.5t198 48.5q120 0 184.5 -40t87 -90.5t34.5 -117.5l6 -29q16 -63 57.5 -99.5t97.5 -36.5h18q12 0 16 -9z" />
    <glyph glyph-name="uniFC75" unicode="&#xfe98;&#xfef2;" horiz-adv-x="1092" arabic-form="final" 
d="M508 574q-14 15 -14 36q0 22 14 36t35 14q20 0 34 -14t14 -36q0 -21 -14 -36t-34 -15q-21 0 -35 15zM635 574q-14 15 -14 36q0 22 14 36t35 14q20 0 34 -14t14 -36q0 -21 -14 -36t-34 -15q-21 0 -35 15zM1108 65q4 -9 4 -28t-4 -28t-16 -9h-18q-83 0 -146.5 52.5
t-84.5 138.5l-6 31q-12 59 -29 97t-64.5 66t-137.5 28t-138.5 -26.5t-48.5 -78.5q0 -39 23.5 -64t59 -40t96.5 -33q72 -21 117 -41t76 -57.5t31 -98.5q0 -98 -91 -149t-292 -51q-195 0 -297 56t-102 193q0 30 4.5 72.5t13.5 80.5l76 -17q-7 -29 -11.5 -67.5t-4.5 -65.5
q0 -66 31.5 -104.5t101.5 -56t190 -17.5q160 0 231.5 29.5t71.5 91.5q0 38 -23 62t-57 38t-95 32q-74 22 -119 41.5t-77 58.5t-32 102q0 87 68 135.5t198 48.5q120 0 184.5 -40t87 -90.5t34.5 -117.5l6 -29q16 -63 57.5 -99.5t97.5 -36.5h18q12 0 16 -9zM471.172 -376.115
q-13.6748 14.6191 -13.6748 36.3105t13.6748 35.8379q13.6758 14.1465 34.4238 14.1465q20.749 0 34.4238 -14.1465q13.6758 -14.1465 13.6758 -35.8379t-13.6758 -36.3105q-13.6748 -14.6182 -34.4238 -14.6182q-20.748 0 -34.4238 14.6182zM344.172 -376.115
q-13.6748 14.6191 -13.6748 36.3105t13.6748 35.8379q13.6758 14.1465 34.4238 14.1465q20.749 0 34.4238 -14.1465q13.6758 -14.1465 13.6758 -35.8379t-13.6758 -36.3105q-13.6748 -14.6182 -34.4238 -14.6182q-20.748 0 -34.4238 14.6182z" />
    <glyph glyph-name="uniFC76" unicode="&#xfe9c;&#xfeae;" horiz-adv-x="599" arabic-form="final" 
d="M615 65q4 -9 4 -28t-4 -28t-16 -9h-37q-98 0 -142.5 43t-44.5 136v52q-47 -14 -97 -14q-47 0 -94 13v-242q0 -100 -51.5 -155t-143.5 -56l-13 75q67 -3 98.5 30t31.5 106v481h78v-165q47 -13 94 -13q50 0 97 14v164h78v-289q0 -58 25 -82t89 -24h32q12 0 16 -9z
M445.5 728q12.5 -13 12.5 -33t-12.5 -33t-31.5 -13t-31.5 13t-12.5 33t12.5 33t31.5 13t31.5 -13zM386 626q14 -15 14 -36q0 -22 -14 -36t-34 -14q-21 0 -35 14t-14 36q0 21 14 36t35 15q20 0 34 -15zM513 626q14 -15 14 -36q0 -22 -14 -36t-34 -14q-21 0 -35 14t-14 36
q0 21 14 36t35 15q20 0 34 -15z" />
    <glyph glyph-name="uniFC77" unicode="&#xfe9c;&#xfeb0;" horiz-adv-x="599" arabic-form="final" 
d="M615 65q4 -9 4 -28t-4 -28t-16 -9h-37q-98 0 -142.5 43t-44.5 136v52q-47 -14 -97 -14q-47 0 -94 13v-242q0 -100 -51.5 -155t-143.5 -56l-13 75q67 -3 98.5 30t31.5 106v481h78v-165q47 -13 94 -13q50 0 97 14v164h78v-289q0 -58 25 -82t89 -24h32q12 0 16 -9z
M445.5 728q12.5 -13 12.5 -33t-12.5 -33t-31.5 -13t-31.5 13t-12.5 33t12.5 33t31.5 13t31.5 -13zM386 626q14 -15 14 -36q0 -22 -14 -36t-34 -14q-21 0 -35 14t-14 36q0 21 14 36t35 15q20 0 34 -15zM513 626q14 -15 14 -36q0 -22 -14 -36t-34 -14q-21 0 -35 14t-14 36
q0 21 14 36t35 15q20 0 34 -15zM108.5 555.5q-14.5 15.5 -14.5 38.5t14.5 38t36.5 15t36.5 -15t14.5 -38t-14.5 -38.5t-36.5 -15.5t-36.5 15.5z" />
    <glyph glyph-name="uniFC79" unicode="&#xfe9c;&#xfee6;" horiz-adv-x="1045" arabic-form="final" 
d="M296.5 465.5q-14.5 15.5 -14.5 38.5t14.5 38t36.5 15t36.5 -15t14.5 -38t-14.5 -38.5t-36.5 -15.5t-36.5 15.5zM1061 65q4 -9 4 -28t-4 -28t-16 -9h-37q-90 0 -135 36.5t-51 114.5q-50 -16 -103 -16q-49 0 -89 12q1 -11 1 -32q0 -90 -35.5 -163.5t-102.5 -116t-158 -42.5
t-157.5 43t-102 115.5t-35.5 161.5q0 74 24 161l71 -36q-17 -66 -17 -127q0 -71 27 -126.5t76 -86.5t114 -31t114.5 30.5t76.5 86.5t27 128q0 49 -11.5 105.5t-30.5 100.5l68 38q26 -56 41 -132q50 -15 99 -15q57 0 102 16v177h78v-222q0 -58 25.5 -82t89.5 -24h31
q12 0 16 -9zM892.5 666q12.5 -13 12.5 -33t-12.5 -33t-31.5 -13t-31.5 13t-12.5 33t12.5 33t31.5 13t31.5 -13zM833 564q14 -15 14 -36q0 -22 -14 -36t-34 -14q-21 0 -35 14t-14 36q0 21 14 36t35 15q20 0 34 -15zM960 564q14 -15 14 -36q0 -22 -14 -36t-34 -14
q-21 0 -35 14t-14 36q0 21 14 36t35 15q20 0 34 -15z" />
    <glyph glyph-name="uniFC7A" unicode="&#xfe9c;&#xfef0;" horiz-adv-x="1092" arabic-form="final" 
d="M574.5 681q-12.5 13 -12.5 33t12.5 33t31.5 13t31.5 -13t12.5 -33t-12.5 -33t-31.5 -13t-31.5 13zM509 573q-14 14 -14 36q0 21 14 36t35 15q20 0 34 -15t14 -36q0 -22 -14 -36t-34 -14q-21 0 -35 14zM636 645q14 15 35 15q20 0 34 -15t14 -36q0 -22 -14 -36t-34 -14
q-21 0 -35 14t-14 36q0 21 14 36zM1108 65q4 -9 4 -28t-4 -28t-16 -9h-18q-83 0 -146.5 52.5t-84.5 138.5l-6 31q-12 59 -29 97t-64.5 66t-137.5 28t-138.5 -26.5t-48.5 -78.5q0 -39 23.5 -64t59 -40t96.5 -33q72 -21 117 -41t76 -57.5t31 -98.5q0 -98 -91 -149t-292 -51
q-195 0 -297 56t-102 193q0 30 4.5 72.5t13.5 80.5l76 -17q-7 -29 -11.5 -67.5t-4.5 -65.5q0 -66 31.5 -104.5t101.5 -56t190 -17.5q160 0 231.5 29.5t71.5 91.5q0 38 -23 62t-57 38t-95 32q-74 22 -119 41.5t-77 58.5t-32 102q0 87 68 135.5t198 48.5q120 0 184.5 -40
t87 -90.5t34.5 -117.5l6 -29q16 -63 57.5 -99.5t97.5 -36.5h18q12 0 16 -9z" />
    <glyph glyph-name="uniFC7B" unicode="&#xfe9c;&#xfef2;" horiz-adv-x="1092" arabic-form="final" 
d="M574.5 681q-12.5 13 -12.5 33t12.5 33t31.5 13t31.5 -13t12.5 -33t-12.5 -33t-31.5 -13t-31.5 13zM509 573q-14 14 -14 36q0 21 14 36t35 15q20 0 34 -15t14 -36q0 -22 -14 -36t-34 -14q-21 0 -35 14zM636 645q14 15 35 15q20 0 34 -15t14 -36q0 -22 -14 -36t-34 -14
q-21 0 -35 14t-14 36q0 21 14 36zM1108 65q4 -9 4 -28t-4 -28t-16 -9h-18q-83 0 -146.5 52.5t-84.5 138.5l-6 31q-12 59 -29 97t-64.5 66t-137.5 28t-138.5 -26.5t-48.5 -78.5q0 -39 23.5 -64t59 -40t96.5 -33q72 -21 117 -41t76 -57.5t31 -98.5q0 -98 -91 -149t-292 -51
q-195 0 -297 56t-102 193q0 30 4.5 72.5t13.5 80.5l76 -17q-7 -29 -11.5 -67.5t-4.5 -65.5q0 -66 31.5 -104.5t101.5 -56t190 -17.5q160 0 231.5 29.5t71.5 91.5q0 38 -23 62t-57 38t-95 32q-74 22 -119 41.5t-77 58.5t-32 102q0 87 68 135.5t198 48.5q120 0 184.5 -40
t87 -90.5t34.5 -117.5l6 -29q16 -63 57.5 -99.5t97.5 -36.5h18q12 0 16 -9zM471.172 -376.115q-13.6748 14.6191 -13.6748 36.3105t13.6748 35.8379q13.6758 14.1465 34.4238 14.1465q20.749 0 34.4238 -14.1465q13.6758 -14.1465 13.6758 -35.8379t-13.6758 -36.3105
q-13.6748 -14.6182 -34.4238 -14.6182q-20.748 0 -34.4238 14.6182zM344.172 -376.115q-13.6748 14.6191 -13.6748 36.3105t13.6748 35.8379q13.6758 14.1465 34.4238 14.1465q20.749 0 34.4238 -14.1465q13.6758 -14.1465 13.6758 -35.8379t-13.6758 -36.3105
q-13.6748 -14.6182 -34.4238 -14.6182q-20.748 0 -34.4238 14.6182z" />
    <glyph glyph-name="uniFC83" unicode="&#xfedc;&#xfef0;" horiz-adv-x="1075" arabic-form="final" 
d="M1091 65q4 -9 4 -28t-4 -28t-16 -9h-255q2 -16 2 -26q0 -99 -91.5 -149.5t-291.5 -50.5q-195 0 -297 56t-102 193q0 30 4.5 72.5t13.5 80.5l76 -17q-7 -29 -11.5 -67.5t-4.5 -66.5q0 -65 31.5 -103.5t101 -56t188.5 -17.5q158 0 227 29.5t69 90.5q0 17 -6 32h-10
q-110 0 -167 55l54 54q19 -18 45.5 -26.5t67.5 -8.5h167v22q0 88 -26 152t-74 97.5t-112 33.5l-50 52l262 262l48 -53l-192 -192q67 -16 117 -64.5t77.5 -124t27.5 -169.5v-16h111q12 0 16 -9z" />
    <glyph glyph-name="uniFC84" unicode="&#xfedc;&#xfef2;" horiz-adv-x="1075" arabic-form="final" 
d="M1091 65q4 -9 4 -28t-4 -28t-16 -9h-255q2 -16 2 -26q0 -99 -91.5 -149.5t-291.5 -50.5q-195 0 -297 56t-102 193q0 30 4.5 72.5t13.5 80.5l76 -17q-7 -29 -11.5 -67.5t-4.5 -66.5q0 -65 31.5 -103.5t101 -56t188.5 -17.5q158 0 227 29.5t69 90.5q0 17 -6 32h-10
q-110 0 -167 55l54 54q19 -18 45.5 -26.5t67.5 -8.5h167v22q0 88 -26 152t-74 97.5t-112 33.5l-50 52l262 262l48 -53l-192 -192q67 -16 117 -64.5t77.5 -124t27.5 -169.5v-16h111q12 0 16 -9zM471.172 -376.115q-13.6748 14.6191 -13.6748 36.3105t13.6748 35.8379
q13.6758 14.1465 34.4238 14.1465q20.749 0 34.4238 -14.1465q13.6758 -14.1465 13.6758 -35.8379t-13.6758 -36.3105q-13.6748 -14.6182 -34.4238 -14.6182q-20.748 0 -34.4238 14.6182zM344.172 -376.115q-13.6748 14.6191 -13.6748 36.3105t13.6748 35.8379
q13.6758 14.1465 34.4238 14.1465q20.749 0 34.4238 -14.1465q13.6758 -14.1465 13.6758 -35.8379t-13.6758 -36.3105q-13.6748 -14.6182 -34.4238 -14.6182q-20.748 0 -34.4238 14.6182z" />
    <glyph glyph-name="uniFC86" unicode="&#xfee0;&#xfef0;" horiz-adv-x="1016" arabic-form="final" 
d="M1032 65q4 -9 4 -28t-4 -28t-16 -9h-196q2 -16 2 -26q0 -99 -91.5 -149.5t-291.5 -50.5q-195 0 -297 56t-102 193q0 30 4.5 72.5t13.5 80.5l76 -17q-7 -29 -11.5 -67.5t-4.5 -66.5q0 -65 31.5 -103.5t101 -56t188.5 -17.5q158 0 227 29.5t69 90.5q0 17 -6 32h-10
q-110 0 -167 55l54 54q19 -18 45.5 -26.5t67.5 -8.5h118v659h78v-659h101q12 0 16 -9z" />
    <glyph glyph-name="uniFC87" unicode="&#xfee0;&#xfef2;" horiz-adv-x="1016" arabic-form="final" 
d="M1032 65q4 -9 4 -28t-4 -28t-16 -9h-196q2 -16 2 -26q0 -99 -91.5 -149.5t-291.5 -50.5q-195 0 -297 56t-102 193q0 30 4.5 72.5t13.5 80.5l76 -17q-7 -29 -11.5 -67.5t-4.5 -66.5q0 -65 31.5 -103.5t101 -56t188.5 -17.5q158 0 227 29.5t69 90.5q0 17 -6 32h-10
q-110 0 -167 55l54 54q19 -18 45.5 -26.5t67.5 -8.5h118v659h78v-659h101q12 0 16 -9zM471.172 -376.115q-13.6748 14.6191 -13.6748 36.3105t13.6748 35.8379q13.6758 14.1465 34.4238 14.1465q20.749 0 34.4238 -14.1465q13.6758 -14.1465 13.6758 -35.8379
t-13.6758 -36.3105q-13.6748 -14.6182 -34.4238 -14.6182q-20.748 0 -34.4238 14.6182zM344.172 -376.115q-13.6748 14.6191 -13.6748 36.3105t13.6748 35.8379q13.6758 14.1465 34.4238 14.1465q20.749 0 34.4238 -14.1465q13.6758 -14.1465 13.6758 -35.8379
t-13.6758 -36.3105q-13.6748 -14.6182 -34.4238 -14.6182q-20.748 0 -34.4238 14.6182z" />
    <glyph glyph-name="uniFC8A" unicode="&#xfee8;&#xfeae;" horiz-adv-x="599" arabic-form="final" 
d="M615 65q4 -9 4 -28t-4 -28t-16 -9h-37q-98 0 -142.5 43t-44.5 136v52q-47 -14 -97 -14q-47 0 -94 13v-242q0 -100 -51.5 -155t-143.5 -56l-13 75q67 -3 98.5 30t31.5 106v481h78v-165q47 -13 94 -13q50 0 97 14v164h78v-289q0 -58 25 -82t89 -24h32q12 0 16 -9z
M377.5 555.5q-14.5 15.5 -14.5 38.5t14.5 38t36.5 15t36.5 -15t14.5 -38t-14.5 -38.5t-36.5 -15.5t-36.5 15.5z" />
    <glyph glyph-name="uniFC8B" unicode="&#xfee8;&#xfeb0;" horiz-adv-x="599" arabic-form="final" 
d="M615 65q4 -9 4 -28t-4 -28t-16 -9h-37q-98 0 -142.5 43t-44.5 136v52q-47 -14 -97 -14q-47 0 -94 13v-242q0 -100 -51.5 -155t-143.5 -56l-13 75q67 -3 98.5 30t31.5 106v481h78v-165q47 -13 94 -13q50 0 97 14v164h78v-289q0 -58 25 -82t89 -24h32q12 0 16 -9z
M377.5 555.5q-14.5 15.5 -14.5 38.5t14.5 38t36.5 15t36.5 -15t14.5 -38t-14.5 -38.5t-36.5 -15.5t-36.5 15.5zM108.5 555.5q-14.5 15.5 -14.5 38.5t14.5 38t36.5 15t36.5 -15t14.5 -38t-14.5 -38.5t-36.5 -15.5t-36.5 15.5z" />
    <glyph glyph-name="uniFC8D" unicode="&#xfee8;&#xfee6;" horiz-adv-x="1045" arabic-form="final" 
d="M296.5 465.5q-14.5 15.5 -14.5 38.5t14.5 38t36.5 15t36.5 -15t14.5 -38t-14.5 -38.5t-36.5 -15.5t-36.5 15.5zM1061 65q4 -9 4 -28t-4 -28t-16 -9h-37q-90 0 -135 36.5t-51 114.5q-50 -16 -103 -16q-49 0 -89 12q1 -11 1 -32q0 -90 -35.5 -163.5t-102.5 -116t-158 -42.5
t-157.5 43t-102 115.5t-35.5 161.5q0 74 24 161l71 -36q-17 -66 -17 -127q0 -71 27 -126.5t76 -86.5t114 -31t114.5 30.5t76.5 86.5t27 128q0 49 -11.5 105.5t-30.5 100.5l68 38q26 -56 41 -132q50 -15 99 -15q57 0 102 16v177h78v-222q0 -58 25.5 -82t89.5 -24h31
q12 0 16 -9zM823.5 494.5q-14.5 15.5 -14.5 38.5t14.5 38t36.5 15t36.5 -15t14.5 -38t-14.5 -38.5t-36.5 -15.5t-36.5 15.5z" />
    <glyph glyph-name="uniFC8E" unicode="&#xfee8;&#xfef0;" horiz-adv-x="1092" arabic-form="final" 
d="M568.5 570.5q-14.5 15.5 -14.5 38.5t14.5 38t36.5 15t36.5 -15t14.5 -38t-14.5 -38.5t-36.5 -15.5t-36.5 15.5zM1108 65q4 -9 4 -28t-4 -28t-16 -9h-18q-83 0 -146.5 52.5t-84.5 138.5l-6 31q-12 59 -29 97t-64.5 66t-137.5 28t-138.5 -26.5t-48.5 -78.5q0 -39 23.5 -64
t59 -40t96.5 -33q72 -21 117 -41t76 -57.5t31 -98.5q0 -98 -91 -149t-292 -51q-195 0 -297 56t-102 193q0 30 4.5 72.5t13.5 80.5l76 -17q-7 -29 -11.5 -67.5t-4.5 -65.5q0 -66 31.5 -104.5t101.5 -56t190 -17.5q160 0 231.5 29.5t71.5 91.5q0 38 -23 62t-57 38t-95 32
q-74 22 -119 41.5t-77 58.5t-32 102q0 87 68 135.5t198 48.5q120 0 184.5 -40t87 -90.5t34.5 -117.5l6 -29q16 -63 57.5 -99.5t97.5 -36.5h18q12 0 16 -9z" />
    <glyph glyph-name="uniFC8F" unicode="&#xfee8;&#xfef2;" horiz-adv-x="1092" arabic-form="final" 
d="M568.5 570.5q-14.5 15.5 -14.5 38.5t14.5 38t36.5 15t36.5 -15t14.5 -38t-14.5 -38.5t-36.5 -15.5t-36.5 15.5zM1108 65q4 -9 4 -28t-4 -28t-16 -9h-18q-83 0 -146.5 52.5t-84.5 138.5l-6 31q-12 59 -29 97t-64.5 66t-137.5 28t-138.5 -26.5t-48.5 -78.5q0 -39 23.5 -64
t59 -40t96.5 -33q72 -21 117 -41t76 -57.5t31 -98.5q0 -98 -91 -149t-292 -51q-195 0 -297 56t-102 193q0 30 4.5 72.5t13.5 80.5l76 -17q-7 -29 -11.5 -67.5t-4.5 -65.5q0 -66 31.5 -104.5t101.5 -56t190 -17.5q160 0 231.5 29.5t71.5 91.5q0 38 -23 62t-57 38t-95 32
q-74 22 -119 41.5t-77 58.5t-32 102q0 87 68 135.5t198 48.5q120 0 184.5 -40t87 -90.5t34.5 -117.5l6 -29q16 -63 57.5 -99.5t97.5 -36.5h18q12 0 16 -9zM471.172 -376.115q-13.6748 14.6191 -13.6748 36.3105t13.6748 35.8379q13.6758 14.1465 34.4238 14.1465
q20.749 0 34.4238 -14.1465q13.6758 -14.1465 13.6758 -35.8379t-13.6758 -36.3105q-13.6748 -14.6182 -34.4238 -14.6182q-20.748 0 -34.4238 14.6182zM344.172 -376.115q-13.6748 14.6191 -13.6748 36.3105t13.6748 35.8379q13.6758 14.1465 34.4238 14.1465
q20.749 0 34.4238 -14.1465q13.6758 -14.1465 13.6758 -35.8379t-13.6758 -36.3105q-13.6748 -14.6182 -34.4238 -14.6182q-20.748 0 -34.4238 14.6182z" />
    <glyph glyph-name="uniFC91" unicode="&#xfef4;&#xfeae;" horiz-adv-x="599" arabic-form="final" 
d="M615 65q4 -9 4 -28t-4 -28t-16 -9h-37q-98 0 -142.5 43t-44.5 136v52q-47 -14 -97 -14q-47 0 -94 13v-242q0 -100 -51.5 -155t-143.5 -56l-13 75q67 -3 98.5 30t31.5 106v481h78v-165q47 -13 94 -13q50 0 97 14v164h78v-289q0 -58 25 -82t89 -24h32q12 0 16 -9z
M444.172 -165.115q-13.6748 14.6191 -13.6748 36.3105t13.6748 35.8379q13.6758 14.1465 34.4238 14.1465q20.749 0 34.4238 -14.1465q13.6758 -14.1465 13.6758 -35.8379t-13.6758 -36.3105q-13.6748 -14.6182 -34.4238 -14.6182q-20.748 0 -34.4238 14.6182z
M317.172 -165.115q-13.6748 14.6191 -13.6748 36.3105t13.6748 35.8379q13.6758 14.1465 34.4238 14.1465q20.749 0 34.4238 -14.1465q13.6758 -14.1465 13.6758 -35.8379t-13.6758 -36.3105q-13.6748 -14.6182 -34.4238 -14.6182q-20.748 0 -34.4238 14.6182z" />
    <glyph glyph-name="uniFC92" unicode="&#xfef4;&#xfeb0;" horiz-adv-x="599" arabic-form="final" 
d="M615 65q4 -9 4 -28t-4 -28t-16 -9h-37q-98 0 -142.5 43t-44.5 136v52q-47 -14 -97 -14q-47 0 -94 13v-242q0 -100 -51.5 -155t-143.5 -56l-13 75q67 -3 98.5 30t31.5 106v481h78v-165q47 -13 94 -13q50 0 97 14v164h78v-289q0 -58 25 -82t89 -24h32q12 0 16 -9z
M108.5 556.5q-14.5 15.5 -14.5 38.5t14.5 38t36.5 15t36.5 -15t14.5 -38t-14.5 -38.5t-36.5 -15.5t-36.5 15.5zM444.172 -165.115q-13.6748 14.6191 -13.6748 36.3105t13.6748 35.8379q13.6758 14.1465 34.4238 14.1465q20.749 0 34.4238 -14.1465
q13.6758 -14.1465 13.6758 -35.8379t-13.6758 -36.3105q-13.6748 -14.6182 -34.4238 -14.6182q-20.748 0 -34.4238 14.6182zM317.172 -165.115q-13.6748 14.6191 -13.6748 36.3105t13.6748 35.8379q13.6758 14.1465 34.4238 14.1465q20.749 0 34.4238 -14.1465
q13.6758 -14.1465 13.6758 -35.8379t-13.6758 -36.3105q-13.6748 -14.6182 -34.4238 -14.6182q-20.748 0 -34.4238 14.6182z" />
    <glyph glyph-name="uniFC94" unicode="&#xfef4;&#xfee6;" horiz-adv-x="1045" arabic-form="final" 
d="M296.5 465.5q-14.5 15.5 -14.5 38.5t14.5 38t36.5 15t36.5 -15t14.5 -38t-14.5 -38.5t-36.5 -15.5t-36.5 15.5zM1061 65q4 -9 4 -28t-4 -28t-16 -9h-37q-90 0 -135 36.5t-51 114.5q-50 -16 -103 -16q-49 0 -89 12q1 -11 1 -32q0 -90 -35.5 -163.5t-102.5 -116t-158 -42.5
t-157.5 43t-102 115.5t-35.5 161.5q0 74 24 161l71 -36q-17 -66 -17 -127q0 -71 27 -126.5t76 -86.5t114 -31t114.5 30.5t76.5 86.5t27 128q0 49 -11.5 105.5t-30.5 100.5l68 38q26 -56 41 -132q50 -15 99 -15q57 0 102 16v177h78v-222q0 -58 25.5 -82t89.5 -24h31
q12 0 16 -9zM891.172 -165.115q-13.6748 14.6191 -13.6748 36.3105t13.6748 35.8379q13.6758 14.1465 34.4238 14.1465q20.749 0 34.4238 -14.1465q13.6758 -14.1465 13.6758 -35.8379t-13.6758 -36.3105q-13.6748 -14.6182 -34.4238 -14.6182q-20.748 0 -34.4238 14.6182z
M764.172 -165.115q-13.6748 14.6191 -13.6748 36.3105t13.6748 35.8379q13.6758 14.1465 34.4238 14.1465q20.749 0 34.4238 -14.1465q13.6758 -14.1465 13.6758 -35.8379t-13.6758 -36.3105q-13.6748 -14.6182 -34.4238 -14.6182q-20.748 0 -34.4238 14.6182z" />
    <glyph glyph-name="uniFC96" unicode="&#xfef4;&#xfef2;" horiz-adv-x="1116" arabic-form="final" 
d="M1132 65q4 -9 4 -28t-4 -28t-16 -9h-42q-83 0 -146.5 52.5t-84.5 138.5l-6 31q-12 59 -29 97t-64.5 66t-137.5 28t-138.5 -26.5t-48.5 -78.5q0 -39 23.5 -64t59 -40t96.5 -33q72 -21 117 -41t76 -57.5t31 -98.5q0 -98 -91 -149t-292 -51q-195 0 -297 56t-102 193
q0 30 4.5 72.5t13.5 80.5l76 -17q-7 -29 -11.5 -67.5t-4.5 -65.5q0 -66 31.5 -104.5t101.5 -56t190 -17.5q160 0 231.5 29.5t71.5 91.5q0 38 -23 62t-57 38t-95 32q-74 22 -119 41.5t-77 58.5t-32 102q0 87 68 135.5t198 48.5q120 0 184.5 -40t87 -90.5t34.5 -117.5l6 -29
q16 -63 57.5 -99.5t97.5 -36.5h42q12 0 16 -9zM975 -93q14 -14 14 -36q0 -21 -14 -36t-34 -15q-21 0 -35 15t-14 36q0 22 14 36t35 14q20 0 34 -14zM1102 -93q14 -14 14 -36q0 -21 -14 -36t-34 -15q-21 0 -35 15t-14 36q0 22 14 36t35 14q20 0 34 -14zM411 -304
q14 -14 14 -36q0 -21 -14 -36t-34 -15q-21 0 -35 15t-14 36q0 22 14 36t35 14q20 0 34 -14zM538 -304q14 -14 14 -36q0 -21 -14 -36t-34 -15q-21 0 -35 15t-14 36q0 22 14 36t35 14q20 0 34 -14z" />
    <glyph glyph-name="uniFCFB" unicode="&#xfeb3;&#xfef0;" horiz-adv-x="1596" arabic-form="isolated" 
d="M1532 466v-287q0 -91 -43.5 -135t-136.5 -44q-90 0 -142 44q-44 -44 -127 -44q-93 0 -156 52t-84 139l-6 31q-12 59 -29 97t-64.5 66t-137.5 28t-138.5 -26.5t-48.5 -78.5q0 -39 23.5 -64t59 -40t96.5 -33q72 -21 117 -41t76 -57.5t31 -98.5q0 -98 -91 -149t-292 -51
q-195 0 -297 56t-102 193q0 30 4.5 72.5t13.5 80.5l76 -17q-7 -29 -11.5 -67.5t-4.5 -65.5q0 -66 31.5 -104.5t101.5 -56t190 -17.5q160 0 231.5 29.5t71.5 91.5q0 38 -23 62t-57 38t-95 32q-74 22 -119 41.5t-77 58.5t-32 102q0 87 68 135.5t198 48.5q120 0 184.5 -40
t87 -90.5t34.5 -117.5l6 -29q16 -65 57.5 -100.5t103.5 -35.5q49 0 72.5 24.5t23.5 81.5v236h78v-237q0 -43 -11 -79q32 -26 97 -26q63 0 88.5 24t25.5 82v286h78z" />
    <glyph glyph-name="uniFCFC" unicode="&#xfeb3;&#xfef2;" horiz-adv-x="1596" arabic-form="isolated" 
d="M1532 466v-287q0 -91 -43.5 -135t-136.5 -44q-90 0 -142 44q-44 -44 -127 -44q-93 0 -156 52t-84 139l-6 31q-12 59 -29 97t-64.5 66t-137.5 28t-138.5 -26.5t-48.5 -78.5q0 -39 23.5 -64t59 -40t96.5 -33q72 -21 117 -41t76 -57.5t31 -98.5q0 -98 -91 -149t-292 -51
q-195 0 -297 56t-102 193q0 30 4.5 72.5t13.5 80.5l76 -17q-7 -29 -11.5 -67.5t-4.5 -65.5q0 -66 31.5 -104.5t101.5 -56t190 -17.5q160 0 231.5 29.5t71.5 91.5q0 38 -23 62t-57 38t-95 32q-74 22 -119 41.5t-77 58.5t-32 102q0 87 68 135.5t198 48.5q120 0 184.5 -40
t87 -90.5t34.5 -117.5l6 -29q16 -65 57.5 -100.5t103.5 -35.5q49 0 72.5 24.5t23.5 81.5v236h78v-237q0 -43 -11 -79q32 -26 97 -26q63 0 88.5 24t25.5 82v286h78zM471.172 -376.115q-13.6748 14.6191 -13.6748 36.3105t13.6748 35.8379q13.6758 14.1465 34.4238 14.1465
q20.749 0 34.4238 -14.1465q13.6758 -14.1465 13.6758 -35.8379t-13.6758 -36.3105q-13.6748 -14.6182 -34.4238 -14.6182q-20.748 0 -34.4238 14.6182zM344.172 -376.115q-13.6748 14.6191 -13.6748 36.3105t13.6748 35.8379q13.6758 14.1465 34.4238 14.1465
q20.749 0 34.4238 -14.1465q13.6758 -14.1465 13.6758 -35.8379t-13.6758 -36.3105q-13.6748 -14.6182 -34.4238 -14.6182q-20.748 0 -34.4238 14.6182z" />
    <glyph glyph-name="uniFCFD" unicode="&#xfeb7;&#xfef0;" horiz-adv-x="1596" arabic-form="isolated" 
d="M1532 466v-287q0 -91 -43.5 -135t-136.5 -44q-90 0 -142 44q-44 -44 -127 -44q-93 0 -156 52t-84 139l-6 31q-12 59 -29 97t-64.5 66t-137.5 28t-138.5 -26.5t-48.5 -78.5q0 -39 23.5 -64t59 -40t96.5 -33q72 -21 117 -41t76 -57.5t31 -98.5q0 -98 -91 -149t-292 -51
q-195 0 -297 56t-102 193q0 30 4.5 72.5t13.5 80.5l76 -17q-7 -29 -11.5 -67.5t-4.5 -65.5q0 -66 31.5 -104.5t101.5 -56t190 -17.5q160 0 231.5 29.5t71.5 91.5q0 38 -23 62t-57 38t-95 32q-74 22 -119 41.5t-77 58.5t-32 102q0 87 68 135.5t198 48.5q120 0 184.5 -40
t87 -90.5t34.5 -117.5l6 -29q16 -65 57.5 -100.5t103.5 -35.5q49 0 72.5 24.5t23.5 81.5v236h78v-237q0 -43 -11 -79q32 -26 97 -26q63 0 88.5 24t25.5 82v286h78zM1248.5 728q12.5 -13 12.5 -33t-12.5 -33t-31.5 -13t-31.5 13t-12.5 33t12.5 33t31.5 13t31.5 -13zM1189 626
q14 -15 14 -36q0 -22 -14 -36t-34 -14q-21 0 -35 14t-14 36q0 21 14 36t35 15q20 0 34 -15zM1316 626q14 -15 14 -36q0 -22 -14 -36t-34 -14q-21 0 -35 14t-14 36q0 21 14 36t35 15q20 0 34 -15z" />
    <glyph glyph-name="uniFCFE" unicode="&#xfeb7;&#xfef2;" horiz-adv-x="1596" arabic-form="isolated" 
d="M1532 466v-287q0 -91 -43.5 -135t-136.5 -44q-90 0 -142 44q-44 -44 -127 -44q-93 0 -156 52t-84 139l-6 31q-12 59 -29 97t-64.5 66t-137.5 28t-138.5 -26.5t-48.5 -78.5q0 -39 23.5 -64t59 -40t96.5 -33q72 -21 117 -41t76 -57.5t31 -98.5q0 -98 -91 -149t-292 -51
q-195 0 -297 56t-102 193q0 30 4.5 72.5t13.5 80.5l76 -17q-7 -29 -11.5 -67.5t-4.5 -65.5q0 -66 31.5 -104.5t101.5 -56t190 -17.5q160 0 231.5 29.5t71.5 91.5q0 38 -23 62t-57 38t-95 32q-74 22 -119 41.5t-77 58.5t-32 102q0 87 68 135.5t198 48.5q120 0 184.5 -40
t87 -90.5t34.5 -117.5l6 -29q16 -65 57.5 -100.5t103.5 -35.5q49 0 72.5 24.5t23.5 81.5v236h78v-237q0 -43 -11 -79q32 -26 97 -26q63 0 88.5 24t25.5 82v286h78zM1248.5 728q12.5 -13 12.5 -33t-12.5 -33t-31.5 -13t-31.5 13t-12.5 33t12.5 33t31.5 13t31.5 -13zM1189 626
q14 -15 14 -36q0 -22 -14 -36t-34 -14q-21 0 -35 14t-14 36q0 21 14 36t35 15q20 0 34 -15zM1316 626q14 -15 14 -36q0 -22 -14 -36t-34 -14q-21 0 -35 14t-14 36q0 21 14 36t35 15q20 0 34 -15zM471.172 -376.115q-13.6748 14.6191 -13.6748 36.3105t13.6748 35.8379
q13.6758 14.1465 34.4238 14.1465q20.749 0 34.4238 -14.1465q13.6758 -14.1465 13.6758 -35.8379t-13.6758 -36.3105q-13.6748 -14.6182 -34.4238 -14.6182q-20.748 0 -34.4238 14.6182zM344.172 -376.115q-13.6748 14.6191 -13.6748 36.3105t13.6748 35.8379
q13.6758 14.1465 34.4238 14.1465q20.749 0 34.4238 -14.1465q13.6758 -14.1465 13.6758 -35.8379t-13.6758 -36.3105q-13.6748 -14.6182 -34.4238 -14.6182q-20.748 0 -34.4238 14.6182z" />
    <glyph glyph-name="uniFD05" unicode="&#xfebb;&#xfef0;" horiz-adv-x="1784" arabic-form="isolated" 
d="M1591.5 453q64.5 -43 96.5 -115.5t32 -161.5v-176h-646q-83 0 -146.5 52.5t-84.5 138.5l-6 31q-12 59 -29 97t-64.5 66t-137.5 28t-138.5 -26.5t-48.5 -78.5q0 -39 23.5 -64t59 -40t96.5 -33q72 -21 117 -41t76 -57.5t31 -98.5q0 -98 -91 -149t-292 -51q-195 0 -297 56
t-102 193q0 30 4.5 72.5t13.5 80.5l76 -17q-7 -29 -11.5 -67.5t-4.5 -65.5q0 -66 31.5 -104.5t101.5 -56t190 -17.5q160 0 231.5 29.5t71.5 91.5q0 38 -23 62t-57 38t-95 32q-74 22 -119 41.5t-77 58.5t-32 102q0 87 68 135.5t198 48.5q120 0 184.5 -40t87 -90.5
t34.5 -117.5l6 -29q13 -51 43 -85.5t72 -45.5q14 95 64 191t136 161t201 65q92 0 156.5 -43zM1642 74v102q0 116 -55 181t-150 65q-84 0 -154.5 -50t-115 -130t-56.5 -168h531z" />
    <glyph glyph-name="uniFD06" unicode="&#xfebb;&#xfef2;" horiz-adv-x="1784" arabic-form="isolated" 
d="M1591.5 453q64.5 -43 96.5 -115.5t32 -161.5v-176h-646q-83 0 -146.5 52.5t-84.5 138.5l-6 31q-12 59 -29 97t-64.5 66t-137.5 28t-138.5 -26.5t-48.5 -78.5q0 -39 23.5 -64t59 -40t96.5 -33q72 -21 117 -41t76 -57.5t31 -98.5q0 -98 -91 -149t-292 -51q-195 0 -297 56
t-102 193q0 30 4.5 72.5t13.5 80.5l76 -17q-7 -29 -11.5 -67.5t-4.5 -65.5q0 -66 31.5 -104.5t101.5 -56t190 -17.5q160 0 231.5 29.5t71.5 91.5q0 38 -23 62t-57 38t-95 32q-74 22 -119 41.5t-77 58.5t-32 102q0 87 68 135.5t198 48.5q120 0 184.5 -40t87 -90.5
t34.5 -117.5l6 -29q13 -51 43 -85.5t72 -45.5q14 95 64 191t136 161t201 65q92 0 156.5 -43zM1642 74v102q0 116 -55 181t-150 65q-84 0 -154.5 -50t-115 -130t-56.5 -168h531zM471.172 -376.115q-13.6748 14.6191 -13.6748 36.3105t13.6748 35.8379
q13.6758 14.1465 34.4238 14.1465q20.749 0 34.4238 -14.1465q13.6758 -14.1465 13.6758 -35.8379t-13.6758 -36.3105q-13.6748 -14.6182 -34.4238 -14.6182q-20.748 0 -34.4238 14.6182zM344.172 -376.115q-13.6748 14.6191 -13.6748 36.3105t13.6748 35.8379
q13.6758 14.1465 34.4238 14.1465q20.749 0 34.4238 -14.1465q13.6758 -14.1465 13.6758 -35.8379t-13.6758 -36.3105q-13.6748 -14.6182 -34.4238 -14.6182q-20.748 0 -34.4238 14.6182z" />
    <glyph glyph-name="uniFD07" unicode="&#xfebf;&#xfef0;" horiz-adv-x="1784" arabic-form="isolated" 
d="M1591.5 453q64.5 -43 96.5 -115.5t32 -161.5v-176h-646q-83 0 -146.5 52.5t-84.5 138.5l-6 31q-12 59 -29 97t-64.5 66t-137.5 28t-138.5 -26.5t-48.5 -78.5q0 -39 23.5 -64t59 -40t96.5 -33q72 -21 117 -41t76 -57.5t31 -98.5q0 -98 -91 -149t-292 -51q-195 0 -297 56
t-102 193q0 30 4.5 72.5t13.5 80.5l76 -17q-7 -29 -11.5 -67.5t-4.5 -65.5q0 -66 31.5 -104.5t101.5 -56t190 -17.5q160 0 231.5 29.5t71.5 91.5q0 38 -23 62t-57 38t-95 32q-74 22 -119 41.5t-77 58.5t-32 102q0 87 68 135.5t198 48.5q120 0 184.5 -40t87 -90.5
t34.5 -117.5l6 -29q13 -51 43 -85.5t72 -45.5q14 95 64 191t136 161t201 65q92 0 156.5 -43zM1642 74v102q0 116 -55 181t-150 65q-84 0 -154.5 -50t-115 -130t-56.5 -168h531zM1398.5 598.5q-14.5 15.5 -14.5 38.5t14.5 38t36.5 15t36.5 -15t14.5 -38t-14.5 -38.5
t-36.5 -15.5t-36.5 15.5z" />
    <glyph glyph-name="uniFD08" unicode="&#xfebf;&#xfef2;" horiz-adv-x="1784" arabic-form="isolated" 
d="M1591.5 453q64.5 -43 96.5 -115.5t32 -161.5v-176h-646q-83 0 -146.5 52.5t-84.5 138.5l-6 31q-12 59 -29 97t-64.5 66t-137.5 28t-138.5 -26.5t-48.5 -78.5q0 -39 23.5 -64t59 -40t96.5 -33q72 -21 117 -41t76 -57.5t31 -98.5q0 -98 -91 -149t-292 -51q-195 0 -297 56
t-102 193q0 30 4.5 72.5t13.5 80.5l76 -17q-7 -29 -11.5 -67.5t-4.5 -65.5q0 -66 31.5 -104.5t101.5 -56t190 -17.5q160 0 231.5 29.5t71.5 91.5q0 38 -23 62t-57 38t-95 32q-74 22 -119 41.5t-77 58.5t-32 102q0 87 68 135.5t198 48.5q120 0 184.5 -40t87 -90.5
t34.5 -117.5l6 -29q13 -51 43 -85.5t72 -45.5q14 95 64 191t136 161t201 65q92 0 156.5 -43zM1642 74v102q0 116 -55 181t-150 65q-84 0 -154.5 -50t-115 -130t-56.5 -168h531zM1398.5 598.5q-14.5 15.5 -14.5 38.5t14.5 38t36.5 15t36.5 -15t14.5 -38t-14.5 -38.5
t-36.5 -15.5t-36.5 15.5zM471.172 -376.115q-13.6748 14.6191 -13.6748 36.3105t13.6748 35.8379q13.6758 14.1465 34.4238 14.1465q20.749 0 34.4238 -14.1465q13.6758 -14.1465 13.6758 -35.8379t-13.6758 -36.3105q-13.6748 -14.6182 -34.4238 -14.6182
q-20.748 0 -34.4238 14.6182zM344.172 -376.115q-13.6748 14.6191 -13.6748 36.3105t13.6748 35.8379q13.6758 14.1465 34.4238 14.1465q20.749 0 34.4238 -14.1465q13.6758 -14.1465 13.6758 -35.8379t-13.6758 -36.3105q-13.6748 -14.6182 -34.4238 -14.6182
q-20.748 0 -34.4238 14.6182z" />
    <glyph glyph-name="uniFD0D" unicode="&#xfeb7;&#xfeae;" horiz-adv-x="1073" arabic-form="isolated" 
d="M1009 466v-287q0 -91 -44 -135t-137 -44q-88 0 -141 44q-43 -44 -135 -44q-90 0 -133.5 43t-43.5 132v56q-47 -14 -97 -14q-47 0 -94 13v-242q0 -100 -51.5 -155t-143.5 -56l-13 75q67 -3 98.5 30t31.5 106v481h78v-165q47 -13 94 -13q50 0 97 14v111h78v-241
q0 -59 21 -80t78 -21q58 0 79.5 21t21.5 80v241h78v-241q0 -45 -10 -76q32 -25 96 -25q63 0 88.5 24t25.5 82v286h78zM723.5 728q12.5 -13 12.5 -33t-12.5 -33t-31.5 -13t-31.5 13t-12.5 33t12.5 33t31.5 13t31.5 -13zM664 626q14 -15 14 -36q0 -22 -14 -36t-34 -14
q-21 0 -35 14t-14 36q0 21 14 36t35 15q20 0 34 -15zM791 626q14 -15 14 -36q0 -22 -14 -36t-34 -14q-21 0 -35 14t-14 36q0 21 14 36t35 15q20 0 34 -15z" />
    <glyph glyph-name="uniFD0E" unicode="&#xfeb3;&#xfeae;" horiz-adv-x="1073" arabic-form="isolated" 
d="M1009 466v-287q0 -91 -44 -135t-137 -44q-88 0 -141 44q-43 -44 -135 -44q-90 0 -133.5 43t-43.5 132v56q-47 -14 -97 -14q-47 0 -94 13v-242q0 -100 -51.5 -155t-143.5 -56l-13 75q67 -3 98.5 30t31.5 106v481h78v-165q47 -13 94 -13q50 0 97 14v111h78v-241
q0 -59 21 -80t78 -21q58 0 79.5 21t21.5 80v241h78v-241q0 -45 -10 -76q32 -25 96 -25q63 0 88.5 24t25.5 82v286h78z" />
    <glyph glyph-name="uniFD0F" unicode="&#xfebb;&#xfeae;" horiz-adv-x="1281" arabic-form="isolated" 
d="M1089 453q64 -43 96 -115.5t32 -161.5v-176h-665q-90 0 -133.5 43t-43.5 132v56q-47 -14 -97 -14q-47 0 -94 13v-242q0 -100 -51.5 -155t-143.5 -56l-13 75q67 -3 98.5 30t31.5 106v481h78v-165q47 -13 94 -13q50 0 97 14v111h78v-241q0 -53 17 -75t61 -25
q13 95 62.5 192t136 163t203.5 66q92 0 156 -43zM1139 74v102q0 116 -55 181t-150 65q-84 0 -154 -50t-114.5 -130t-56.5 -168h530z" />
    <glyph glyph-name="uniFD10" unicode="&#xfebf;&#xfeae;" horiz-adv-x="1281" arabic-form="isolated" 
d="M1089 453q64 -43 96 -115.5t32 -161.5v-176h-665q-90 0 -133.5 43t-43.5 132v56q-47 -14 -97 -14q-47 0 -94 13v-242q0 -100 -51.5 -155t-143.5 -56l-13 75q67 -3 98.5 30t31.5 106v481h78v-165q47 -13 94 -13q50 0 97 14v111h78v-241q0 -53 17 -75t61 -25
q13 95 62.5 192t136 163t203.5 66q92 0 156 -43zM1139 74v102q0 116 -55 181t-150 65q-84 0 -154 -50t-114.5 -130t-56.5 -168h530zM897.5 598.5q-14.5 15.5 -14.5 38.5t14.5 38t36.5 15t36.5 -15t14.5 -38t-14.5 -38.5t-36.5 -15.5t-36.5 15.5z" />
    <glyph glyph-name="uniFD17" unicode="&#xfeb4;&#xfef0;" horiz-adv-x="1667" arabic-form="final" 
d="M1683 65q4 -9 4 -28t-4 -28t-16 -9h-37q-88 0 -141 44q-46 -44 -137 -44q-90 0 -142 44q-44 -44 -127 -44q-93 0 -156 52t-84 139l-6 31q-12 59 -29 97t-64.5 66t-137.5 28t-138.5 -26.5t-48.5 -78.5q0 -39 23.5 -64t59 -40t96.5 -33q72 -21 117 -41t76 -57.5t31 -98.5
q0 -98 -91 -149t-292 -51q-195 0 -297 56t-102 193q0 30 4.5 72.5t13.5 80.5l76 -17q-7 -29 -11.5 -67.5t-4.5 -65.5q0 -66 31.5 -104.5t101.5 -56t190 -17.5q160 0 231.5 29.5t71.5 91.5q0 38 -23 62t-57 38t-95 32q-74 22 -119 41.5t-77 58.5t-32 102q0 87 68 135.5
t198 48.5q120 0 184.5 -40t87 -90.5t34.5 -117.5l6 -29q16 -65 57.5 -100.5t103.5 -35.5q49 0 72.5 24.5t23.5 81.5v236h78v-237q0 -43 -11 -79q32 -26 97 -26q63 0 88.5 24t25.5 82v286h78v-287q0 -47 -10 -78q35 -27 89 -27h56q12 0 16 -9z" />
    <glyph glyph-name="uniFD18" unicode="&#xfeb4;&#xfef2;" horiz-adv-x="1667" arabic-form="final" 
d="M1683 65q4 -9 4 -28t-4 -28t-16 -9h-37q-88 0 -141 44q-46 -44 -137 -44q-90 0 -142 44q-44 -44 -127 -44q-93 0 -156 52t-84 139l-6 31q-12 59 -29 97t-64.5 66t-137.5 28t-138.5 -26.5t-48.5 -78.5q0 -39 23.5 -64t59 -40t96.5 -33q72 -21 117 -41t76 -57.5t31 -98.5
q0 -98 -91 -149t-292 -51q-195 0 -297 56t-102 193q0 30 4.5 72.5t13.5 80.5l76 -17q-7 -29 -11.5 -67.5t-4.5 -65.5q0 -66 31.5 -104.5t101.5 -56t190 -17.5q160 0 231.5 29.5t71.5 91.5q0 38 -23 62t-57 38t-95 32q-74 22 -119 41.5t-77 58.5t-32 102q0 87 68 135.5
t198 48.5q120 0 184.5 -40t87 -90.5t34.5 -117.5l6 -29q16 -65 57.5 -100.5t103.5 -35.5q49 0 72.5 24.5t23.5 81.5v236h78v-237q0 -43 -11 -79q32 -26 97 -26q63 0 88.5 24t25.5 82v286h78v-287q0 -47 -10 -78q35 -27 89 -27h56q12 0 16 -9zM471.172 -376.115
q-13.6748 14.6191 -13.6748 36.3105t13.6748 35.8379q13.6758 14.1465 34.4238 14.1465q20.749 0 34.4238 -14.1465q13.6758 -14.1465 13.6758 -35.8379t-13.6758 -36.3105q-13.6748 -14.6182 -34.4238 -14.6182q-20.748 0 -34.4238 14.6182zM344.172 -376.115
q-13.6748 14.6191 -13.6748 36.3105t13.6748 35.8379q13.6758 14.1465 34.4238 14.1465q20.749 0 34.4238 -14.1465q13.6758 -14.1465 13.6758 -35.8379t-13.6758 -36.3105q-13.6748 -14.6182 -34.4238 -14.6182q-20.748 0 -34.4238 14.6182z" />
    <glyph glyph-name="uniFD19" unicode="&#xfeb8;&#xfef0;" horiz-adv-x="1667" arabic-form="final" 
d="M1683 65q4 -9 4 -28t-4 -28t-16 -9h-37q-88 0 -141 44q-46 -44 -137 -44q-90 0 -142 44q-44 -44 -127 -44q-93 0 -156 52t-84 139l-6 31q-12 59 -29 97t-64.5 66t-137.5 28t-138.5 -26.5t-48.5 -78.5q0 -39 23.5 -64t59 -40t96.5 -33q72 -21 117 -41t76 -57.5t31 -98.5
q0 -98 -91 -149t-292 -51q-195 0 -297 56t-102 193q0 30 4.5 72.5t13.5 80.5l76 -17q-7 -29 -11.5 -67.5t-4.5 -65.5q0 -66 31.5 -104.5t101.5 -56t190 -17.5q160 0 231.5 29.5t71.5 91.5q0 38 -23 62t-57 38t-95 32q-74 22 -119 41.5t-77 58.5t-32 102q0 87 68 135.5
t198 48.5q120 0 184.5 -40t87 -90.5t34.5 -117.5l6 -29q16 -65 57.5 -100.5t103.5 -35.5q49 0 72.5 24.5t23.5 81.5v236h78v-237q0 -43 -11 -79q32 -26 97 -26q63 0 88.5 24t25.5 82v286h78v-287q0 -47 -10 -78q35 -27 89 -27h56q12 0 16 -9zM1248.5 728q12.5 -13 12.5 -33
t-12.5 -33t-31.5 -13t-31.5 13t-12.5 33t12.5 33t31.5 13t31.5 -13zM1189 626q14 -15 14 -36q0 -22 -14 -36t-34 -14q-21 0 -35 14t-14 36q0 21 14 36t35 15q20 0 34 -15zM1316 626q14 -15 14 -36q0 -22 -14 -36t-34 -14q-21 0 -35 14t-14 36q0 21 14 36t35 15q20 0 34 -15z
" />
    <glyph glyph-name="uniFD1A" unicode="&#xfeb8;&#xfef2;" horiz-adv-x="1667" arabic-form="final" 
d="M1683 65q4 -9 4 -28t-4 -28t-16 -9h-37q-88 0 -141 44q-46 -44 -137 -44q-90 0 -142 44q-44 -44 -127 -44q-93 0 -156 52t-84 139l-6 31q-12 59 -29 97t-64.5 66t-137.5 28t-138.5 -26.5t-48.5 -78.5q0 -39 23.5 -64t59 -40t96.5 -33q72 -21 117 -41t76 -57.5t31 -98.5
q0 -98 -91 -149t-292 -51q-195 0 -297 56t-102 193q0 30 4.5 72.5t13.5 80.5l76 -17q-7 -29 -11.5 -67.5t-4.5 -65.5q0 -66 31.5 -104.5t101.5 -56t190 -17.5q160 0 231.5 29.5t71.5 91.5q0 38 -23 62t-57 38t-95 32q-74 22 -119 41.5t-77 58.5t-32 102q0 87 68 135.5
t198 48.5q120 0 184.5 -40t87 -90.5t34.5 -117.5l6 -29q16 -65 57.5 -100.5t103.5 -35.5q49 0 72.5 24.5t23.5 81.5v236h78v-237q0 -43 -11 -79q32 -26 97 -26q63 0 88.5 24t25.5 82v286h78v-287q0 -47 -10 -78q35 -27 89 -27h56q12 0 16 -9zM1248.5 728q12.5 -13 12.5 -33
t-12.5 -33t-31.5 -13t-31.5 13t-12.5 33t12.5 33t31.5 13t31.5 -13zM1189 626q14 -15 14 -36q0 -22 -14 -36t-34 -14q-21 0 -35 14t-14 36q0 21 14 36t35 15q20 0 34 -15zM1316 626q14 -15 14 -36q0 -22 -14 -36t-34 -14q-21 0 -35 14t-14 36q0 21 14 36t35 15q20 0 34 -15z
M471.172 -376.115q-13.6748 14.6191 -13.6748 36.3105t13.6748 35.8379q13.6758 14.1465 34.4238 14.1465q20.749 0 34.4238 -14.1465q13.6758 -14.1465 13.6758 -35.8379t-13.6758 -36.3105q-13.6748 -14.6182 -34.4238 -14.6182q-20.748 0 -34.4238 14.6182z
M344.172 -376.115q-13.6748 14.6191 -13.6748 36.3105t13.6748 35.8379q13.6758 14.1465 34.4238 14.1465q20.749 0 34.4238 -14.1465q13.6758 -14.1465 13.6758 -35.8379t-13.6758 -36.3105q-13.6748 -14.6182 -34.4238 -14.6182q-20.748 0 -34.4238 14.6182z" />
    <glyph glyph-name="uniFD21" unicode="&#xfebc;&#xfef0;" horiz-adv-x="1853" arabic-form="final" 
d="M1869 65q4 -9 4 -28t-4 -28t-16 -9h-779q-83 0 -146.5 52.5t-84.5 138.5l-6 31q-12 59 -29 97t-64.5 66t-137.5 28t-138.5 -26.5t-48.5 -78.5q0 -39 23.5 -64t59 -40t96.5 -33q72 -21 117 -41t76 -57.5t31 -98.5q0 -98 -91 -149t-292 -51q-195 0 -297 56t-102 193
q0 30 4.5 72.5t13.5 80.5l76 -17q-7 -29 -11.5 -67.5t-4.5 -65.5q0 -66 31.5 -104.5t101.5 -56t190 -17.5q160 0 231.5 29.5t71.5 91.5q0 38 -23 62t-57 38t-95 32q-74 22 -119 41.5t-77 58.5t-32 102q0 87 68 135.5t198 48.5q120 0 184.5 -40t87 -90.5t34.5 -117.5l6 -29
q13 -51 43 -85.5t72 -45.5q14 95 64 191t136 161t201 65q92 0 156.5 -43t96.5 -115.5t32 -161.5v-102h133q12 0 16 -9zM1642 74v102q0 116 -55 181t-150 65q-84 0 -154.5 -50t-115 -130t-56.5 -168h531z" />
    <glyph glyph-name="uniFD22" unicode="&#xfebc;&#xfef2;" horiz-adv-x="1853" arabic-form="final" 
d="M1869 65q4 -9 4 -28t-4 -28t-16 -9h-779q-83 0 -146.5 52.5t-84.5 138.5l-6 31q-12 59 -29 97t-64.5 66t-137.5 28t-138.5 -26.5t-48.5 -78.5q0 -39 23.5 -64t59 -40t96.5 -33q72 -21 117 -41t76 -57.5t31 -98.5q0 -98 -91 -149t-292 -51q-195 0 -297 56t-102 193
q0 30 4.5 72.5t13.5 80.5l76 -17q-7 -29 -11.5 -67.5t-4.5 -65.5q0 -66 31.5 -104.5t101.5 -56t190 -17.5q160 0 231.5 29.5t71.5 91.5q0 38 -23 62t-57 38t-95 32q-74 22 -119 41.5t-77 58.5t-32 102q0 87 68 135.5t198 48.5q120 0 184.5 -40t87 -90.5t34.5 -117.5l6 -29
q13 -51 43 -85.5t72 -45.5q14 95 64 191t136 161t201 65q92 0 156.5 -43t96.5 -115.5t32 -161.5v-102h133q12 0 16 -9zM1642 74v102q0 116 -55 181t-150 65q-84 0 -154.5 -50t-115 -130t-56.5 -168h531zM471.172 -376.115q-13.6748 14.6191 -13.6748 36.3105
t13.6748 35.8379q13.6758 14.1465 34.4238 14.1465q20.749 0 34.4238 -14.1465q13.6758 -14.1465 13.6758 -35.8379t-13.6758 -36.3105q-13.6748 -14.6182 -34.4238 -14.6182q-20.748 0 -34.4238 14.6182zM344.172 -376.115q-13.6748 14.6191 -13.6748 36.3105
t13.6748 35.8379q13.6758 14.1465 34.4238 14.1465q20.749 0 34.4238 -14.1465q13.6758 -14.1465 13.6758 -35.8379t-13.6758 -36.3105q-13.6748 -14.6182 -34.4238 -14.6182q-20.748 0 -34.4238 14.6182z" />
    <glyph glyph-name="uniFD23" unicode="&#xfec0;&#xfef0;" horiz-adv-x="1853" arabic-form="final" 
d="M1869 65q4 -9 4 -28t-4 -28t-16 -9h-779q-83 0 -146.5 52.5t-84.5 138.5l-6 31q-12 59 -29 97t-64.5 66t-137.5 28t-138.5 -26.5t-48.5 -78.5q0 -39 23.5 -64t59 -40t96.5 -33q72 -21 117 -41t76 -57.5t31 -98.5q0 -98 -91 -149t-292 -51q-195 0 -297 56t-102 193
q0 30 4.5 72.5t13.5 80.5l76 -17q-7 -29 -11.5 -67.5t-4.5 -65.5q0 -66 31.5 -104.5t101.5 -56t190 -17.5q160 0 231.5 29.5t71.5 91.5q0 38 -23 62t-57 38t-95 32q-74 22 -119 41.5t-77 58.5t-32 102q0 87 68 135.5t198 48.5q120 0 184.5 -40t87 -90.5t34.5 -117.5l6 -29
q13 -51 43 -85.5t72 -45.5q14 95 64 191t136 161t201 65q92 0 156.5 -43t96.5 -115.5t32 -161.5v-102h133q12 0 16 -9zM1642 74v102q0 116 -55 181t-150 65q-84 0 -154.5 -50t-115 -130t-56.5 -168h531zM1398.5 598.5q-14.5 15.5 -14.5 38.5t14.5 38t36.5 15t36.5 -15
t14.5 -38t-14.5 -38.5t-36.5 -15.5t-36.5 15.5z" />
    <glyph glyph-name="uniFD24" unicode="&#xfec0;&#xfef2;" horiz-adv-x="1853" arabic-form="final" 
d="M1869 65q4 -9 4 -28t-4 -28t-16 -9h-779q-83 0 -146.5 52.5t-84.5 138.5l-6 31q-12 59 -29 97t-64.5 66t-137.5 28t-138.5 -26.5t-48.5 -78.5q0 -39 23.5 -64t59 -40t96.5 -33q72 -21 117 -41t76 -57.5t31 -98.5q0 -98 -91 -149t-292 -51q-195 0 -297 56t-102 193
q0 30 4.5 72.5t13.5 80.5l76 -17q-7 -29 -11.5 -67.5t-4.5 -65.5q0 -66 31.5 -104.5t101.5 -56t190 -17.5q160 0 231.5 29.5t71.5 91.5q0 38 -23 62t-57 38t-95 32q-74 22 -119 41.5t-77 58.5t-32 102q0 87 68 135.5t198 48.5q120 0 184.5 -40t87 -90.5t34.5 -117.5l6 -29
q13 -51 43 -85.5t72 -45.5q14 95 64 191t136 161t201 65q92 0 156.5 -43t96.5 -115.5t32 -161.5v-102h133q12 0 16 -9zM1642 74v102q0 116 -55 181t-150 65q-84 0 -154.5 -50t-115 -130t-56.5 -168h531zM1398.5 598.5q-14.5 15.5 -14.5 38.5t14.5 38t36.5 15t36.5 -15
t14.5 -38t-14.5 -38.5t-36.5 -15.5t-36.5 15.5zM471.172 -376.115q-13.6748 14.6191 -13.6748 36.3105t13.6748 35.8379q13.6758 14.1465 34.4238 14.1465q20.749 0 34.4238 -14.1465q13.6758 -14.1465 13.6758 -35.8379t-13.6758 -36.3105
q-13.6748 -14.6182 -34.4238 -14.6182q-20.748 0 -34.4238 14.6182zM344.172 -376.115q-13.6748 14.6191 -13.6748 36.3105t13.6748 35.8379q13.6758 14.1465 34.4238 14.1465q20.749 0 34.4238 -14.1465q13.6758 -14.1465 13.6758 -35.8379t-13.6758 -36.3105
q-13.6748 -14.6182 -34.4238 -14.6182q-20.748 0 -34.4238 14.6182z" />
    <glyph glyph-name="uniFD29" unicode="&#xfeb8;&#xfeae;" horiz-adv-x="1148" arabic-form="final" 
d="M1164 65q4 -9 4 -28t-4 -28t-16 -9h-37q-87 0 -142 44q-44 -44 -137 -44q-88 0 -141 44q-43 -44 -135 -44q-90 0 -133.5 43t-43.5 132v56q-47 -14 -97 -14q-47 0 -94 13v-242q0 -100 -51.5 -155t-143.5 -56l-13 75q67 -3 98.5 30t31.5 106v481h78v-165q47 -13 94 -13
q50 0 97 14v111h78v-241q0 -59 21 -80t78 -21q58 0 79.5 21t21.5 80v241h78v-241q0 -45 -10 -76q32 -25 96 -25q63 0 88.5 24t25.5 82v286h78v-287q0 -48 -11 -78q37 -27 90 -27h56q12 0 16 -9zM723.5 728q12.5 -13 12.5 -33t-12.5 -33t-31.5 -13t-31.5 13t-12.5 33t12.5 33
t31.5 13t31.5 -13zM664 626q14 -15 14 -36q0 -22 -14 -36t-34 -14q-21 0 -35 14t-14 36q0 21 14 36t35 15q20 0 34 -15zM791 626q14 -15 14 -36q0 -22 -14 -36t-34 -14q-21 0 -35 14t-14 36q0 21 14 36t35 15q20 0 34 -15z" />
    <glyph glyph-name="uniFD2A" unicode="&#xfeb4;&#xfeae;" horiz-adv-x="1148" arabic-form="final" 
d="M1164 65q4 -9 4 -28t-4 -28t-16 -9h-37q-87 0 -142 44q-44 -44 -137 -44q-88 0 -141 44q-43 -44 -135 -44q-90 0 -133.5 43t-43.5 132v56q-47 -14 -97 -14q-47 0 -94 13v-242q0 -100 -51.5 -155t-143.5 -56l-13 75q67 -3 98.5 30t31.5 106v481h78v-165q47 -13 94 -13
q50 0 97 14v111h78v-241q0 -59 21 -80t78 -21q58 0 79.5 21t21.5 80v241h78v-241q0 -45 -10 -76q32 -25 96 -25q63 0 88.5 24t25.5 82v286h78v-287q0 -48 -11 -78q37 -27 90 -27h56q12 0 16 -9z" />
    <glyph glyph-name="uniFD2B" unicode="&#xfebc;&#xfeae;" horiz-adv-x="1355" arabic-form="final" 
d="M1371 65q4 -9 4 -28t-4 -28t-16 -9h-799q-90 0 -133.5 43t-43.5 132v56q-47 -14 -97 -14q-47 0 -94 13v-242q0 -100 -51.5 -155t-143.5 -56l-13 75q67 -3 98.5 30t31.5 106v481h78v-165q47 -13 94 -13q50 0 97 14v111h78v-241q0 -53 17 -75t61 -25q13 95 62.5 192
t136 163t203.5 66q92 0 156 -43t96 -115.5t32 -161.5v-102h134q12 0 16 -9zM1143 74v102q0 116 -55 181t-150 65q-84 0 -154 -50t-114.5 -130t-56.5 -168h530z" />
    <glyph glyph-name="uniFD2C" unicode="&#xfec0;&#xfeae;" horiz-adv-x="1355" arabic-form="final" 
d="M1371 65q4 -9 4 -28t-4 -28t-16 -9h-799q-90 0 -133.5 43t-43.5 132v56q-47 -14 -97 -14q-47 0 -94 13v-242q0 -100 -51.5 -155t-143.5 -56l-13 75q67 -3 98.5 30t31.5 106v481h78v-165q47 -13 94 -13q50 0 97 14v111h78v-241q0 -53 17 -75t61 -25q13 95 62.5 192
t136 163t203.5 66q92 0 156 -43t96 -115.5t32 -161.5v-102h134q12 0 16 -9zM1143 74v102q0 116 -55 181t-150 65q-84 0 -154 -50t-114.5 -130t-56.5 -168h530zM897.5 598.5q-14.5 15.5 -14.5 38.5t14.5 38t36.5 15t36.5 -15t14.5 -38t-14.5 -38.5t-36.5 -15.5t-36.5 15.5z
" />
    <glyph glyph-name="uniFDF2" unicode="&#x627;&#xfedf;&#xfee0;&#xfeea;" horiz-adv-x="1355" arabic-form="isolated" 
d="M744 873h-38v150h38v-150zM612.5 676q-22.5 29 -22.5 68q0 19 5 42t13 37l34 -19q-6 -11 -10 -28t-4 -32q0 -23 12 -40t27 -17q14 0 25.5 11t11.5 26v59h41v-59q0 -15 11.5 -26t25.5 -11q15 0 27 16.5t12 40.5q0 15 -4 32t-10 28l34 19q8 -14 13 -37t5 -42
q0 -40 -22 -68.5t-55 -28.5q-16 0 -31 7.5t-26 20.5q-11 -13 -26.5 -20.5t-31.5 -7.5q-32 0 -54.5 29zM1275 733v-733h-78v733h78zM971 661h78v-661h-444q-61 0 -98.5 16.5t-56.5 51.5q-36 -17 -76.5 -26.5t-78.5 -9.5q-70 0 -128.5 32t-92.5 87t-34 121t34.5 121t93 87
t128.5 32h133v26h78v-358q0 -40 8 -62.5t30 -33t65 -10.5h94v516h78v-516h189v587zM431 142q-2 22 -2 37v259h-133q-49 0 -90 -22t-64.5 -60t-23.5 -84t23.5 -84t64.5 -60t91 -22q63 0 134 36z" />
    <glyph glyph-name="uniFEF5" unicode="&#xfedf;&#xfe82;" horiz-adv-x="608" arabic-form="isolated" 
d="M534 733v-733h-494v74h135v518h78v-518h203v659h78zM246.5 653q-17.5 7 -40.5 21q-17 11 -30 16.5t-26 5.5q-19 0 -28 -13t-9 -34h-47q0 45 19.5 73t58.5 28q21 0 38 -7t42 -21q18 -11 30 -16.5t25 -5.5q19 0 28 12.5t9 33.5h47q0 -45 -19.5 -72.5t-58.5 -27.5
q-21 0 -38.5 7z" />
    <glyph glyph-name="uniFEF6" unicode="&#xfee0;&#xfe82;" horiz-adv-x="669" arabic-form="final" 
d="M685 65q4 -9 4 -28t-4 -28t-16 -9h-37q-88 0 -141 44q-45 -44 -144 -44h-307v74h135v518h78v-518h88q64 0 89.5 24t25.5 82v553h78v-554q0 -47 -10 -78q35 -27 89 -27h56q12 0 16 -9zM246.5 653q-17.5 7 -40.5 21q-17 11 -30 16.5t-26 5.5q-19 0 -28 -13t-9 -34h-47
q0 45 19.5 73t58.5 28q21 0 38 -7t42 -21q18 -11 30 -16.5t25 -5.5q19 0 28 12.5t9 33.5h47q0 -45 -19.5 -72.5t-58.5 -27.5q-21 0 -38.5 7z" />
    <glyph glyph-name="uniFEF7" unicode="&#xfedf;&#xfe84;" horiz-adv-x="608" arabic-form="isolated" 
d="M534 733v-733h-494v74h135v518h78v-518h203v659h78zM303 696v-51h-180v51h20q-11 19 -11 40q0 35 26.5 57t68.5 22q18 0 36.5 -4t31.5 -11l-22 -45q-7 4 -20.5 6.5t-24.5 2.5q-22 0 -35 -9.5t-13 -23.5q0 -13 10.5 -23.5t25.5 -11.5h87z" />
    <glyph glyph-name="uniFEF8" unicode="&#xfee0;&#xfe84;" horiz-adv-x="669" arabic-form="final" 
d="M685 65q4 -9 4 -28t-4 -28t-16 -9h-37q-88 0 -141 44q-45 -44 -144 -44h-307v74h135v518h78v-518h88q64 0 89.5 24t25.5 82v553h78v-554q0 -47 -10 -78q35 -27 89 -27h56q12 0 16 -9zM303 696v-51h-180v51h20q-11 19 -11 40q0 35 26.5 57t68.5 22q18 0 36.5 -4t31.5 -11
l-22 -45q-7 4 -20.5 6.5t-24.5 2.5q-22 0 -35 -9.5t-13 -23.5q0 -13 10.5 -23.5t25.5 -11.5h87z" />
    <glyph glyph-name="uniFEF9" unicode="&#xfedf;&#xfe88;" horiz-adv-x="608" arabic-form="isolated" 
d="M534 733v-733h-494v74h135v518h78v-518h203v659h78zM303 -169v-50h-180v50h20q-11 19 -11 40q0 35 26.5 57t68.5 22q18 0 36.5 -4t31.5 -10l-22 -46q-7 4 -20 7t-25 3q-22 0 -35 -10t-13 -24q0 -12 10.5 -23t25.5 -12h87z" />
    <glyph glyph-name="uniFEFA" unicode="&#xfee0;&#xfe88;" horiz-adv-x="669" arabic-form="final" 
d="M685 65q4 -9 4 -28t-4 -28t-16 -9h-37q-88 0 -141 44q-45 -44 -144 -44h-307v74h135v518h78v-518h88q64 0 89.5 24t25.5 82v553h78v-554q0 -47 -10 -78q35 -27 89 -27h56q12 0 16 -9zM303 -169v-50h-180v50h20q-11 19 -11 40q0 35 26.5 57t68.5 22q18 0 36.5 -4t31.5 -10
l-22 -46q-7 4 -20 7t-25 3q-22 0 -35 -10t-13 -24q0 -12 10.5 -23t25.5 -12h87z" />
    <glyph glyph-name="uniFEFB" unicode="&#xfedf;&#xfe8e;" horiz-adv-x="608" arabic-form="isolated" 
d="M534 733v-733h-494v74h135v518h78v-518h203v659h78z" />
    <glyph glyph-name="uniFEFC" unicode="&#xfee0;&#xfe8e;" horiz-adv-x="669" arabic-form="final" 
d="M685 65q4 -9 4 -28t-4 -28t-16 -9h-37q-88 0 -141 44q-45 -44 -144 -44h-307v74h135v518h78v-518h88q64 0 89.5 24t25.5 82v553h78v-554q0 -47 -10 -78q35 -27 89 -27h56q12 0 16 -9z" />
    <glyph glyph-name="f_f" unicode="ff" horiz-adv-x="672" 
d="M214.5 653q-26.5 -26 -26.5 -71v-72h151v-61h-151v-449h-77v449h-68v61h68v63q0 54 23 94t61.5 61t82.5 21q43 0 91 -24l-19 -65q-38 19 -69 19q-40 0 -66.5 -26zM554.5 653q-26.5 -26 -26.5 -71v-72h151v-61h-151v-449h-77v449h-68v61h68v63q0 54 23 94t61.5 61t82.5 21
q43 0 91 -24l-19 -65q-38 19 -69 19q-40 0 -66.5 -26z" />
    <glyph glyph-name="f_f_i" unicode="ffi" horiz-adv-x="939" 
d="M214.5 653q-26.5 -26 -26.5 -71v-72h151v-61h-151v-449h-77v449h-68v61h68v63q0 54 23 94t61.5 61t82.5 21q43 0 91 -24l-19 -65q-38 19 -69 19q-40 0 -66.5 -26zM554.5 653q-26.5 -26 -26.5 -71v-72h151v-61h-151v-449h-77v449h-68v61h68v63q0 54 23 94t61.5 61t82.5 21
q43 0 91 -24l-19 -65q-38 19 -69 19q-40 0 -66.5 -26zM844 526v-526h-77v526h77zM841.5 715.5q14.5 -15.5 14.5 -38.5t-14.5 -38t-36.5 -15t-36.5 15t-14.5 38t14.5 38.5t36.5 15.5t36.5 -15.5z" />
    <glyph glyph-name="f_f_l" unicode="ffl" horiz-adv-x="959" 
d="M214.5 653q-26.5 -26 -26.5 -71v-72h151v-61h-151v-449h-77v449h-68v61h68v63q0 54 23 94t61.5 61t82.5 21q43 0 91 -24l-19 -65q-38 19 -69 19q-40 0 -66.5 -26zM554.5 653q-26.5 -26 -26.5 -71v-72h151v-61h-151v-449h-77v449h-68v61h68v63q0 54 23 94t61.5 61t82.5 21
q43 0 91 -24l-19 -65q-38 19 -69 19q-40 0 -66.5 -26zM859 742v-742h-78v742h78z" />
    <glyph glyph-name="uni06280626" unicode="&#xfe91;&#xfe8a;" horiz-adv-x="1012" 
d="M821 -1q1 -8 1 -25q0 -99 -91.5 -149.5t-291.5 -50.5q-195 0 -297 56t-102 193q0 30 4.5 72.5t13.5 80.5l76 -17q-7 -29 -11.5 -67.5t-4.5 -66.5q0 -65 31.5 -103.5t101 -56t188.5 -17.5q158 0 227 29.5t69 90.5q0 16 -5 31h-5v1h-6q-110 0 -167 55l54 54
q19 -18 45.5 -26.5t67.5 -8.5h134v394h78v-469h-110zM930.5 -173q14.5 -15 14.5 -38t-14.5 -38.5t-36.5 -15.5t-36.5 15.5t-14.5 38.5t14.5 38t36.5 15t36.5 -15zM189 327v-51h-180v51h20q-11 19 -11 40q0 35 26.5 57t68.5 22q18 0 36.5 -4t31.5 -11l-22 -45q-7 4 -20.5 6.5
t-24.5 2.5q-22 0 -35 -9.5t-13 -23.5q0 -13 10.5 -23.5t25.5 -11.5h87z" />
    <glyph glyph-name="uni06280626.fina" unicode="&#xfe92;&#xfe8a;" horiz-adv-x="1092" 
d="M1108 65q4 -9 4 -28t-4 -28t-16 -9h-18q-83 0 -146.5 52.5t-84.5 138.5l-6 31q-12 59 -29 97t-64.5 66t-137.5 28t-138.5 -26.5t-48.5 -78.5q0 -39 23.5 -64t59 -40t96.5 -33q72 -21 117 -41t76 -57.5t31 -98.5q0 -98 -91 -149t-292 -51q-195 0 -297 56t-102 193
q0 30 4.5 72.5t13.5 80.5l76 -17q-7 -29 -11.5 -67.5t-4.5 -65.5q0 -66 31.5 -104.5t101.5 -56t190 -17.5q160 0 231.5 29.5t71.5 91.5q0 38 -23 62t-57 38t-95 32q-74 22 -119 41.5t-77 58.5t-32 102q0 87 68 135.5t198 48.5q120 0 184.5 -40t87 -90.5t34.5 -117.5l6 -29
q16 -63 57.5 -99.5t97.5 -36.5h18q12 0 16 -9zM1039.5 -95q14.5 -15 14.5 -38t-14.5 -38.5t-36.5 -15.5t-36.5 15.5t-14.5 38.5t14.5 38t36.5 15t36.5 -15zM189 327v-51h-180v51h20q-11 19 -11 40q0 35 26.5 57t68.5 22q18 0 36.5 -4t31.5 -11l-22 -45q-7 4 -20.5 6.5
t-24.5 2.5q-22 0 -35 -9.5t-13 -23.5q0 -13 10.5 -23.5t25.5 -11.5h87z" />
    <glyph glyph-name="uni067E0631.fina" unicode="&#xfb59;&#xfeae;" horiz-adv-x="599" 
d="M615 65q4 -9 4 -28t-4 -28t-16 -9h-37q-98 0 -142.5 43t-44.5 136v52q-47 -14 -97 -14q-47 0 -94 13v-242q0 -100 -51.5 -155t-143.5 -56l-13 75q67 -3 98.5 30t31.5 106v481h78v-165q47 -13 94 -13q50 0 97 14v164h78v-289q0 -58 25 -82t89 -24h32q12 0 16 -9zM317 -165
q-14 15 -14 36q0 22 14 36t35 14q20 0 34 -14t14 -36q0 -21 -14 -36t-34 -15q-21 0 -35 15zM444 -165q-14 15 -14 36q0 22 14 36t35 14q20 0 34 -14t14 -36q0 -21 -14 -36t-34 -15q-21 0 -35 15zM382.5 -267q-12.5 13 -12.5 33t12.5 33t31.5 13t31.5 -13t12.5 -33t-12.5 -33
t-31.5 -13t-31.5 13z" />
    <glyph glyph-name="uni067E0632.fina" unicode="&#xfb59;&#xfeb0;" horiz-adv-x="599" 
d="M615 65q4 -9 4 -28t-4 -28t-16 -9h-37q-98 0 -142.5 43t-44.5 136v52q-47 -14 -97 -14q-47 0 -94 13v-242q0 -100 -51.5 -155t-143.5 -56l-13 75q67 -3 98.5 30t31.5 106v481h78v-165q47 -13 94 -13q50 0 97 14v164h78v-289q0 -58 25 -82t89 -24h32q12 0 16 -9zM317 -165
q-14 15 -14 36q0 22 14 36t35 14q20 0 34 -14t14 -36q0 -21 -14 -36t-34 -15q-21 0 -35 15zM444 -165q-14 15 -14 36q0 22 14 36t35 14q20 0 34 -14t14 -36q0 -21 -14 -36t-34 -15q-21 0 -35 15zM382.5 -267q-12.5 13 -12.5 33t12.5 33t31.5 13t31.5 -13t12.5 -33t-12.5 -33
t-31.5 -13t-31.5 13zM108.5 555.5q-14.5 15.5 -14.5 38.5t14.5 38t36.5 15t36.5 -15t14.5 -38t-14.5 -38.5t-36.5 -15.5t-36.5 15.5z" />
    <glyph glyph-name="uni067E0646.fina" unicode="&#xfb59;&#xfee6;" horiz-adv-x="1045" 
d="M296.5 465.5q-14.5 15.5 -14.5 38.5t14.5 38t36.5 15t36.5 -15t14.5 -38t-14.5 -38.5t-36.5 -15.5t-36.5 15.5zM1061 65q4 -9 4 -28t-4 -28t-16 -9h-37q-90 0 -135 36.5t-51 114.5q-50 -16 -103 -16q-49 0 -89 12q1 -11 1 -32q0 -90 -35.5 -163.5t-102.5 -116t-158 -42.5
t-157.5 43t-102 115.5t-35.5 161.5q0 74 24 161l71 -36q-17 -66 -17 -127q0 -71 27 -126.5t76 -86.5t114 -31t114.5 30.5t76.5 86.5t27 128q0 49 -11.5 105.5t-30.5 100.5l68 38q26 -56 41 -132q50 -15 99 -15q57 0 102 16v177h78v-222q0 -58 25.5 -82t89.5 -24h31
q12 0 16 -9zM764 -165q-14 15 -14 36q0 22 14 36t35 14q20 0 34 -14t14 -36q0 -21 -14 -36t-34 -15q-21 0 -35 15zM891 -165q-14 15 -14 36q0 22 14 36t35 14q20 0 34 -14t14 -36q0 -21 -14 -36t-34 -15q-21 0 -35 15zM829.5 -267q-12.5 13 -12.5 33t12.5 33t31.5 13
t31.5 -13t12.5 -33t-12.5 -33t-31.5 -13t-31.5 13z" />
    <glyph glyph-name="uni067E0649" unicode="&#xfb58;&#xfef0;" horiz-adv-x="1005" 
d="M822 -26q0 -99 -91.5 -149.5t-291.5 -50.5q-195 0 -297 56t-102 193q0 30 4.5 72.5t13.5 80.5l76 -17q-7 -29 -11.5 -67.5t-4.5 -66.5q0 -65 31.5 -103.5t101 -56t188.5 -17.5q158 0 227 29.5t69 90.5q0 17 -6 32h-10q-110 0 -167 55l54 54q19 -18 45.5 -26.5t67.5 -8.5
h134v395h78v-469h-111q2 -16 2 -26zM865 -257q-14 -15 -34 -15q-21 0 -35 15t-14 36q0 22 14 36t35 14q20 0 34 -14t14 -36q0 -21 -14 -36zM992 -185q14 -14 14 -36q0 -21 -14 -36t-34 -15q-21 0 -35 15t-14 36q0 22 14 36t35 14q20 0 34 -14zM924.5 -293q12.5 -13 12.5 -33
t-12.5 -33t-31.5 -13t-31.5 13t-12.5 33t12.5 33t31.5 13t31.5 -13z" />
    <glyph glyph-name="uni067E0649.fina" unicode="&#xfb59;&#xfef0;" horiz-adv-x="1092" 
d="M467.5 386.5q-48.5 -26.5 -48.5 -78.5q0 -39 23.5 -64t59 -40t96.5 -33q72 -21 117 -41t76 -57.5t31 -98.5q0 -98 -91 -149t-292 -51q-195 0 -297 56t-102 193q0 30 4.5 72.5t13.5 80.5l76 -17q-7 -29 -11.5 -67.5t-4.5 -65.5q0 -66 31.5 -104.5t101.5 -56t190 -17.5
q160 0 231.5 29.5t71.5 91.5q0 38 -23 62t-57 38t-95 32q-74 22 -119 41.5t-77 58.5t-32 102q0 87 68 135.5t198 48.5q120 0 184.5 -40t87 -90.5t34.5 -117.5l6 -29q16 -63 57.5 -99.5t97.5 -36.5h18q12 0 16 -9t4 -28t-4 -28t-16 -9h-18q-83 0 -146.5 52.5t-84.5 138.5
l-6 31q-12 59 -29 97t-64.5 66t-137.5 28t-138.5 -26.5zM974 -163q-14 -15 -34 -15q-21 0 -35 15t-14 36q0 22 14 36t35 14q20 0 34 -14t14 -36q0 -21 -14 -36zM1101 -91q14 -14 14 -36q0 -21 -14 -36t-34 -15q-21 0 -35 15t-14 36q0 22 14 36t35 14q20 0 34 -14z
M1033.5 -199q12.5 -13 12.5 -33t-12.5 -33t-31.5 -13t-31.5 13t-12.5 33t12.5 33t31.5 13t31.5 -13z" />
    <glyph glyph-name="uni067E064A" unicode="&#xfb58;&#xfef2;" horiz-adv-x="1005" 
d="M822 -26q0 -99 -91.5 -149.5t-291.5 -50.5q-195 0 -297 56t-102 193q0 30 4.5 72.5t13.5 80.5l76 -17q-7 -29 -11.5 -67.5t-4.5 -66.5q0 -65 31.5 -103.5t101 -56t188.5 -17.5q158 0 227 29.5t69 90.5q0 17 -6 32h-10q-110 0 -167 55l54 54q19 -18 45.5 -26.5t67.5 -8.5
h134v395h78v-469h-111q2 -16 2 -26zM865 -257q-14 -15 -34 -15q-21 0 -35 15t-14 36q0 22 14 36t35 14q20 0 34 -14t14 -36q0 -21 -14 -36zM992 -185q14 -14 14 -36q0 -21 -14 -36t-34 -15q-21 0 -35 15t-14 36q0 22 14 36t35 14q20 0 34 -14zM924.5 -293q12.5 -13 12.5 -33
t-12.5 -33t-31.5 -13t-31.5 13t-12.5 33t12.5 33t31.5 13t31.5 -13zM471.172 -376.115q-13.6748 14.6191 -13.6748 36.3105t13.6748 35.8379q13.6758 14.1465 34.4238 14.1465q20.749 0 34.4238 -14.1465q13.6758 -14.1465 13.6758 -35.8379t-13.6758 -36.3105
q-13.6748 -14.6182 -34.4238 -14.6182q-20.748 0 -34.4238 14.6182zM344.172 -376.115q-13.6748 14.6191 -13.6748 36.3105t13.6748 35.8379q13.6758 14.1465 34.4238 14.1465q20.749 0 34.4238 -14.1465q13.6758 -14.1465 13.6758 -35.8379t-13.6758 -36.3105
q-13.6748 -14.6182 -34.4238 -14.6182q-20.748 0 -34.4238 14.6182z" />
    <glyph glyph-name="uni067E064A.fina" unicode="&#xfb59;&#xfef2;" horiz-adv-x="1092" 
d="M467.5 386.5q-48.5 -26.5 -48.5 -78.5q0 -39 23.5 -64t59 -40t96.5 -33q72 -21 117 -41t76 -57.5t31 -98.5q0 -98 -91 -149t-292 -51q-195 0 -297 56t-102 193q0 30 4.5 72.5t13.5 80.5l76 -17q-7 -29 -11.5 -67.5t-4.5 -65.5q0 -66 31.5 -104.5t101.5 -56t190 -17.5
q160 0 231.5 29.5t71.5 91.5q0 38 -23 62t-57 38t-95 32q-74 22 -119 41.5t-77 58.5t-32 102q0 87 68 135.5t198 48.5q120 0 184.5 -40t87 -90.5t34.5 -117.5l6 -29q16 -63 57.5 -99.5t97.5 -36.5h18q12 0 16 -9t4 -28t-4 -28t-16 -9h-18q-83 0 -146.5 52.5t-84.5 138.5
l-6 31q-12 59 -29 97t-64.5 66t-137.5 28t-138.5 -26.5zM974 -163q-14 -15 -34 -15q-21 0 -35 15t-14 36q0 22 14 36t35 14q20 0 34 -14t14 -36q0 -21 -14 -36zM1101 -91q14 -14 14 -36q0 -21 -14 -36t-34 -15q-21 0 -35 15t-14 36q0 22 14 36t35 14q20 0 34 -14z
M1033.5 -199q12.5 -13 12.5 -33t-12.5 -33t-31.5 -13t-31.5 13t-12.5 33t12.5 33t31.5 13t31.5 -13zM471.172 -376.115q-13.6748 14.6191 -13.6748 36.3105t13.6748 35.8379q13.6758 14.1465 34.4238 14.1465q20.749 0 34.4238 -14.1465q13.6758 -14.1465 13.6758 -35.8379
t-13.6758 -36.3105q-13.6748 -14.6182 -34.4238 -14.6182q-20.748 0 -34.4238 14.6182zM344.172 -376.115q-13.6748 14.6191 -13.6748 36.3105t13.6748 35.8379q13.6758 14.1465 34.4238 14.1465q20.749 0 34.4238 -14.1465q13.6758 -14.1465 13.6758 -35.8379
t-13.6758 -36.3105q-13.6748 -14.6182 -34.4238 -14.6182q-20.748 0 -34.4238 14.6182z" />
    <glyph glyph-name="uni067E0626" unicode="&#xfb58;&#xfe8a;" horiz-adv-x="1005" 
d="M822 -26q0 -99 -91.5 -149.5t-291.5 -50.5q-195 0 -297 56t-102 193q0 30 4.5 72.5t13.5 80.5l76 -17q-7 -29 -11.5 -67.5t-4.5 -66.5q0 -65 31.5 -103.5t101 -56t188.5 -17.5q158 0 227 29.5t69 90.5q0 17 -6 32h-10q-110 0 -167 55l54 54q19 -18 45.5 -26.5t67.5 -8.5
h134v395h78v-469h-111q2 -16 2 -26zM865 -257q-14 -15 -34 -15q-21 0 -35 15t-14 36q0 22 14 36t35 14q20 0 34 -14t14 -36q0 -21 -14 -36zM992 -185q14 -14 14 -36q0 -21 -14 -36t-34 -15q-21 0 -35 15t-14 36q0 22 14 36t35 14q20 0 34 -14zM924.5 -293q12.5 -13 12.5 -33
t-12.5 -33t-31.5 -13t-31.5 13t-12.5 33t12.5 33t31.5 13t31.5 -13zM189 327v-51h-180v51h20q-11 19 -11 40q0 35 26.5 57t68.5 22q18 0 36.5 -4t31.5 -11l-22 -45q-7 4 -20.5 6.5t-24.5 2.5q-22 0 -35 -9.5t-13 -23.5q0 -13 10.5 -23.5t25.5 -11.5h87z" />
    <glyph glyph-name="uni067E0626.fina" unicode="&#xfb59;&#xfe8a;" horiz-adv-x="1092" 
d="M467.5 386.5q-48.5 -26.5 -48.5 -78.5q0 -39 23.5 -64t59 -40t96.5 -33q72 -21 117 -41t76 -57.5t31 -98.5q0 -98 -91 -149t-292 -51q-195 0 -297 56t-102 193q0 30 4.5 72.5t13.5 80.5l76 -17q-7 -29 -11.5 -67.5t-4.5 -65.5q0 -66 31.5 -104.5t101.5 -56t190 -17.5
q160 0 231.5 29.5t71.5 91.5q0 38 -23 62t-57 38t-95 32q-74 22 -119 41.5t-77 58.5t-32 102q0 87 68 135.5t198 48.5q120 0 184.5 -40t87 -90.5t34.5 -117.5l6 -29q16 -63 57.5 -99.5t97.5 -36.5h18q12 0 16 -9t4 -28t-4 -28t-16 -9h-18q-83 0 -146.5 52.5t-84.5 138.5
l-6 31q-12 59 -29 97t-64.5 66t-137.5 28t-138.5 -26.5zM974 -163q-14 -15 -34 -15q-21 0 -35 15t-14 36q0 22 14 36t35 14q20 0 34 -14t14 -36q0 -21 -14 -36zM1101 -91q14 -14 14 -36q0 -21 -14 -36t-34 -15q-21 0 -35 15t-14 36q0 22 14 36t35 14q20 0 34 -14z
M1033.5 -199q12.5 -13 12.5 -33t-12.5 -33t-31.5 -13t-31.5 13t-12.5 33t12.5 33t31.5 13t31.5 -13zM189 327v-51h-180v51h20q-11 19 -11 40q0 35 26.5 57t68.5 22q18 0 36.5 -4t31.5 -11l-22 -45q-7 4 -20.5 6.5t-24.5 2.5q-22 0 -35 -9.5t-13 -23.5q0 -13 10.5 -23.5
t25.5 -11.5h87z" />
    <glyph glyph-name="uni062A0626" unicode="&#xfe97;&#xfe8a;" horiz-adv-x="1012" 
d="M796 559q-14 15 -14 36q0 22 14 36t35 14q20 0 34 -14t14 -36q0 -21 -14 -36t-34 -15q-21 0 -35 15zM992 631q14 -14 14 -36q0 -21 -14 -36t-34 -15q-21 0 -35 15t-14 36q0 22 14 36t35 14q20 0 34 -14zM853 468h78v-469h-110q1 -8 1 -25q0 -99 -91.5 -149.5
t-291.5 -50.5q-195 0 -297 56t-102 193q0 30 4.5 72.5t13.5 80.5l76 -17q-7 -29 -11.5 -67.5t-4.5 -66.5q0 -65 31.5 -103.5t101 -56t188.5 -17.5q158 0 227 29.5t69 90.5q0 16 -5 31h-5v1h-6q-110 0 -167 55l54 54q19 -18 45.5 -26.5t67.5 -8.5h134v394zM189 297v-51h-180
v51h20q-11 19 -11 40q0 35 26.5 57t68.5 22q18 0 36.5 -4t31.5 -11l-22 -45q-7 4 -20.5 6.5t-24.5 2.5q-22 0 -35 -9.5t-13 -23.5q0 -13 10.5 -23.5t25.5 -11.5h87z" />
    <glyph glyph-name="uni062A0626.fina" unicode="&#xfe98;&#xfe8a;" horiz-adv-x="1092" 
d="M508 574q-14 15 -14 36q0 22 14 36t35 14q20 0 34 -14t14 -36q0 -21 -14 -36t-34 -15q-21 0 -35 15zM635 574q-14 15 -14 36q0 22 14 36t35 14q20 0 34 -14t14 -36q0 -21 -14 -36t-34 -15q-21 0 -35 15zM1108 65q4 -9 4 -28t-4 -28t-16 -9h-18q-83 0 -146.5 52.5
t-84.5 138.5l-6 31q-12 59 -29 97t-64.5 66t-137.5 28t-138.5 -26.5t-48.5 -78.5q0 -39 23.5 -64t59 -40t96.5 -33q72 -21 117 -41t76 -57.5t31 -98.5q0 -98 -91 -149t-292 -51q-195 0 -297 56t-102 193q0 30 4.5 72.5t13.5 80.5l76 -17q-7 -29 -11.5 -67.5t-4.5 -65.5
q0 -66 31.5 -104.5t101.5 -56t190 -17.5q160 0 231.5 29.5t71.5 91.5q0 38 -23 62t-57 38t-95 32q-74 22 -119 41.5t-77 58.5t-32 102q0 87 68 135.5t198 48.5q120 0 184.5 -40t87 -90.5t34.5 -117.5l6 -29q16 -63 57.5 -99.5t97.5 -36.5h18q12 0 16 -9zM189 297v-51h-180
v51h20q-11 19 -11 40q0 35 26.5 57t68.5 22q18 0 36.5 -4t31.5 -11l-22 -45q-7 4 -20.5 6.5t-24.5 2.5q-22 0 -35 -9.5t-13 -23.5q0 -13 10.5 -23.5t25.5 -11.5h87z" />
    <glyph glyph-name="uni062B0626" unicode="&#xfe9b;&#xfe8a;" horiz-adv-x="1012" 
d="M862.5 667q-12.5 13 -12.5 33t12.5 33t31.5 13t31.5 -13t12.5 -33t-12.5 -33t-31.5 -13t-31.5 13zM797 559q-14 14 -14 36q0 21 14 36t35 15q20 0 34 -15t14 -36q0 -22 -14 -36t-34 -14q-21 0 -35 14zM993 631q14 -15 14 -36q0 -22 -14 -36t-34 -14q-21 0 -35 14t-14 36
q0 21 14 36t35 15q20 0 34 -15zM853 468h78v-469h-110q1 -8 1 -25q0 -99 -91.5 -149.5t-291.5 -50.5q-195 0 -297 56t-102 193q0 30 4.5 72.5t13.5 80.5l76 -17q-7 -29 -11.5 -67.5t-4.5 -66.5q0 -65 31.5 -103.5t101 -56t188.5 -17.5q158 0 227 29.5t69 90.5q0 16 -5 31h-5
v1h-6q-110 0 -167 55l54 54q19 -18 45.5 -26.5t67.5 -8.5h134v394zM189 297v-51h-180v51h20q-11 19 -11 40q0 35 26.5 57t68.5 22q18 0 36.5 -4t31.5 -11l-22 -45q-7 4 -20.5 6.5t-24.5 2.5q-22 0 -35 -9.5t-13 -23.5q0 -13 10.5 -23.5t25.5 -11.5h87z" />
    <glyph glyph-name="uni062B0626.fina" unicode="&#xfe9c;&#xfe8a;" horiz-adv-x="1092" 
d="M574.5 681q-12.5 13 -12.5 33t12.5 33t31.5 13t31.5 -13t12.5 -33t-12.5 -33t-31.5 -13t-31.5 13zM509 573q-14 14 -14 36q0 21 14 36t35 15q20 0 34 -15t14 -36q0 -22 -14 -36t-34 -14q-21 0 -35 14zM636 645q14 15 35 15q20 0 34 -15t14 -36q0 -22 -14 -36t-34 -14
q-21 0 -35 14t-14 36q0 21 14 36zM1108 65q4 -9 4 -28t-4 -28t-16 -9h-18q-83 0 -146.5 52.5t-84.5 138.5l-6 31q-12 59 -29 97t-64.5 66t-137.5 28t-138.5 -26.5t-48.5 -78.5q0 -39 23.5 -64t59 -40t96.5 -33q72 -21 117 -41t76 -57.5t31 -98.5q0 -98 -91 -149t-292 -51
q-195 0 -297 56t-102 193q0 30 4.5 72.5t13.5 80.5l76 -17q-7 -29 -11.5 -67.5t-4.5 -65.5q0 -66 31.5 -104.5t101.5 -56t190 -17.5q160 0 231.5 29.5t71.5 91.5q0 38 -23 62t-57 38t-95 32q-74 22 -119 41.5t-77 58.5t-32 102q0 87 68 135.5t198 48.5q120 0 184.5 -40
t87 -90.5t34.5 -117.5l6 -29q16 -63 57.5 -99.5t97.5 -36.5h18q12 0 16 -9zM189 297v-51h-180v51h20q-11 19 -11 40q0 35 26.5 57t68.5 22q18 0 36.5 -4t31.5 -11l-22 -45q-7 4 -20.5 6.5t-24.5 2.5q-22 0 -35 -9.5t-13 -23.5q0 -13 10.5 -23.5t25.5 -11.5h87z" />
    <glyph glyph-name="uni06330632" unicode="&#xfeb3;&#xfeb0;" horiz-adv-x="1073" 
d="M1009 466v-287q0 -91 -44 -135t-137 -44q-88 0 -141 44q-43 -44 -135 -44q-90 0 -133.5 43t-43.5 132v56q-47 -14 -97 -14q-47 0 -94 13v-242q0 -100 -51.5 -155t-143.5 -56l-13 75q67 -3 98.5 30t31.5 106v481h78v-165q47 -13 94 -13q50 0 97 14v111h78v-241
q0 -59 21 -80t78 -21q58 0 79.5 21t21.5 80v241h78v-241q0 -45 -10 -76q32 -25 96 -25q63 0 88.5 24t25.5 82v286h78zM108.5 556.5q-14.5 15.5 -14.5 38.5t14.5 38t36.5 15t36.5 -15t14.5 -38t-14.5 -38.5t-36.5 -15.5t-36.5 15.5z" />
    <glyph glyph-name="uni06330632.fina" unicode="&#xfeb4;&#xfeb0;" horiz-adv-x="1148" 
d="M1164 65q4 -9 4 -28t-4 -28t-16 -9h-37q-87 0 -142 44q-44 -44 -137 -44q-88 0 -141 44q-43 -44 -135 -44q-90 0 -133.5 43t-43.5 132v56q-47 -14 -97 -14q-47 0 -94 13v-242q0 -100 -51.5 -155t-143.5 -56l-13 75q67 -3 98.5 30t31.5 106v481h78v-165q47 -13 94 -13
q50 0 97 14v111h78v-241q0 -59 21 -80t78 -21q58 0 79.5 21t21.5 80v241h78v-241q0 -45 -10 -76q32 -25 96 -25q63 0 88.5 24t25.5 82v286h78v-287q0 -48 -11 -78q37 -27 90 -27h56q12 0 16 -9zM108.5 556.5q-14.5 15.5 -14.5 38.5t14.5 38t36.5 15t36.5 -15t14.5 -38
t-14.5 -38.5t-36.5 -15.5t-36.5 15.5z" />
    <glyph glyph-name="uni06330626" unicode="&#xfeb3;&#xfe8a;" horiz-adv-x="1596" 
d="M1532 466v-287q0 -91 -43.5 -135t-136.5 -44q-90 0 -142 44q-44 -44 -127 -44q-93 0 -156 52t-84 139l-6 31q-12 59 -29 97t-64.5 66t-137.5 28t-138.5 -26.5t-48.5 -78.5q0 -39 23.5 -64t59 -40t96.5 -33q72 -21 117 -41t76 -57.5t31 -98.5q0 -98 -91 -149t-292 -51
q-195 0 -297 56t-102 193q0 30 4.5 72.5t13.5 80.5l76 -17q-7 -29 -11.5 -67.5t-4.5 -65.5q0 -66 31.5 -104.5t101.5 -56t190 -17.5q160 0 231.5 29.5t71.5 91.5q0 38 -23 62t-57 38t-95 32q-74 22 -119 41.5t-77 58.5t-32 102q0 87 68 135.5t198 48.5q120 0 184.5 -40
t87 -90.5t34.5 -117.5l6 -29q16 -65 57.5 -100.5t103.5 -35.5q49 0 72.5 24.5t23.5 81.5v236h78v-237q0 -43 -11 -79q32 -26 97 -26q63 0 88.5 24t25.5 82v286h78zM189 297v-51h-180v51h20q-11 19 -11 40q0 35 26.5 57t68.5 22q18 0 36.5 -4t31.5 -11l-22 -45
q-7 4 -20.5 6.5t-24.5 2.5q-22 0 -35 -9.5t-13 -23.5q0 -13 10.5 -23.5t25.5 -11.5h87z" />
    <glyph glyph-name="uni06330626.fina" unicode="&#xfeb4;&#xfe8a;" horiz-adv-x="1667" 
d="M1683 65q4 -9 4 -28t-4 -28t-16 -9h-37q-88 0 -141 44q-46 -44 -137 -44q-90 0 -142 44q-44 -44 -127 -44q-93 0 -156 52t-84 139l-6 31q-12 59 -29 97t-64.5 66t-137.5 28t-138.5 -26.5t-48.5 -78.5q0 -39 23.5 -64t59 -40t96.5 -33q72 -21 117 -41t76 -57.5t31 -98.5
q0 -98 -91 -149t-292 -51q-195 0 -297 56t-102 193q0 30 4.5 72.5t13.5 80.5l76 -17q-7 -29 -11.5 -67.5t-4.5 -65.5q0 -66 31.5 -104.5t101.5 -56t190 -17.5q160 0 231.5 29.5t71.5 91.5q0 38 -23 62t-57 38t-95 32q-74 22 -119 41.5t-77 58.5t-32 102q0 87 68 135.5
t198 48.5q120 0 184.5 -40t87 -90.5t34.5 -117.5l6 -29q16 -65 57.5 -100.5t103.5 -35.5q49 0 72.5 24.5t23.5 81.5v236h78v-237q0 -43 -11 -79q32 -26 97 -26q63 0 88.5 24t25.5 82v286h78v-287q0 -47 -10 -78q35 -27 89 -27h56q12 0 16 -9zM189 297v-51h-180v51h20
q-11 19 -11 40q0 35 26.5 57t68.5 22q18 0 36.5 -4t31.5 -11l-22 -45q-7 4 -20.5 6.5t-24.5 2.5q-22 0 -35 -9.5t-13 -23.5q0 -13 10.5 -23.5t25.5 -11.5h87z" />
    <glyph glyph-name="uni06340632" unicode="&#xfeb7;&#xfeb0;" horiz-adv-x="1073" 
d="M1009 466v-287q0 -91 -44 -135t-137 -44q-88 0 -141 44q-43 -44 -135 -44q-90 0 -133.5 43t-43.5 132v56q-47 -14 -97 -14q-47 0 -94 13v-242q0 -100 -51.5 -155t-143.5 -56l-13 75q67 -3 98.5 30t31.5 106v481h78v-165q47 -13 94 -13q50 0 97 14v111h78v-241
q0 -59 21 -80t78 -21q58 0 79.5 21t21.5 80v241h78v-241q0 -45 -10 -76q32 -25 96 -25q63 0 88.5 24t25.5 82v286h78zM723.5 728q12.5 -13 12.5 -33t-12.5 -33t-31.5 -13t-31.5 13t-12.5 33t12.5 33t31.5 13t31.5 -13zM664 626q14 -15 14 -36q0 -22 -14 -36t-34 -14
q-21 0 -35 14t-14 36q0 21 14 36t35 15q20 0 34 -15zM791 626q14 -15 14 -36q0 -22 -14 -36t-34 -14q-21 0 -35 14t-14 36q0 21 14 36t35 15q20 0 34 -15zM108.5 556.5q-14.5 15.5 -14.5 38.5t14.5 38t36.5 15t36.5 -15t14.5 -38t-14.5 -38.5t-36.5 -15.5t-36.5 15.5z" />
    <glyph glyph-name="uni06340632.fina" unicode="&#xfeb8;&#xfeb0;" horiz-adv-x="1148" 
d="M1164 65q4 -9 4 -28t-4 -28t-16 -9h-37q-87 0 -142 44q-44 -44 -137 -44q-88 0 -141 44q-43 -44 -135 -44q-90 0 -133.5 43t-43.5 132v56q-47 -14 -97 -14q-47 0 -94 13v-242q0 -100 -51.5 -155t-143.5 -56l-13 75q67 -3 98.5 30t31.5 106v481h78v-165q47 -13 94 -13
q50 0 97 14v111h78v-241q0 -59 21 -80t78 -21q58 0 79.5 21t21.5 80v241h78v-241q0 -45 -10 -76q32 -25 96 -25q63 0 88.5 24t25.5 82v286h78v-287q0 -48 -11 -78q37 -27 90 -27h56q12 0 16 -9zM723.5 728q12.5 -13 12.5 -33t-12.5 -33t-31.5 -13t-31.5 13t-12.5 33t12.5 33
t31.5 13t31.5 -13zM664 626q14 -15 14 -36q0 -22 -14 -36t-34 -14q-21 0 -35 14t-14 36q0 21 14 36t35 15q20 0 34 -15zM791 626q14 -15 14 -36q0 -22 -14 -36t-34 -14q-21 0 -35 14t-14 36q0 21 14 36t35 15q20 0 34 -15zM108.5 556.5q-14.5 15.5 -14.5 38.5t14.5 38
t36.5 15t36.5 -15t14.5 -38t-14.5 -38.5t-36.5 -15.5t-36.5 15.5z" />
    <glyph glyph-name="uni06340626" unicode="&#xfeb7;&#xfe8a;" horiz-adv-x="1596" 
d="M1532 466v-287q0 -91 -43.5 -135t-136.5 -44q-90 0 -142 44q-44 -44 -127 -44q-93 0 -156 52t-84 139l-6 31q-12 59 -29 97t-64.5 66t-137.5 28t-138.5 -26.5t-48.5 -78.5q0 -39 23.5 -64t59 -40t96.5 -33q72 -21 117 -41t76 -57.5t31 -98.5q0 -98 -91 -149t-292 -51
q-195 0 -297 56t-102 193q0 30 4.5 72.5t13.5 80.5l76 -17q-7 -29 -11.5 -67.5t-4.5 -65.5q0 -66 31.5 -104.5t101.5 -56t190 -17.5q160 0 231.5 29.5t71.5 91.5q0 38 -23 62t-57 38t-95 32q-74 22 -119 41.5t-77 58.5t-32 102q0 87 68 135.5t198 48.5q120 0 184.5 -40
t87 -90.5t34.5 -117.5l6 -29q16 -65 57.5 -100.5t103.5 -35.5q49 0 72.5 24.5t23.5 81.5v236h78v-237q0 -43 -11 -79q32 -26 97 -26q63 0 88.5 24t25.5 82v286h78zM1248.5 728q12.5 -13 12.5 -33t-12.5 -33t-31.5 -13t-31.5 13t-12.5 33t12.5 33t31.5 13t31.5 -13zM1189 626
q14 -15 14 -36q0 -22 -14 -36t-34 -14q-21 0 -35 14t-14 36q0 21 14 36t35 15q20 0 34 -15zM1316 626q14 -15 14 -36q0 -22 -14 -36t-34 -14q-21 0 -35 14t-14 36q0 21 14 36t35 15q20 0 34 -15zM189 297v-51h-180v51h20q-11 19 -11 40q0 35 26.5 57t68.5 22q18 0 36.5 -4
t31.5 -11l-22 -45q-7 4 -20.5 6.5t-24.5 2.5q-22 0 -35 -9.5t-13 -23.5q0 -13 10.5 -23.5t25.5 -11.5h87z" />
    <glyph glyph-name="uni06340626.fina" unicode="&#xfeb8;&#xfe8a;" horiz-adv-x="1667" 
d="M1683 65q4 -9 4 -28t-4 -28t-16 -9h-37q-88 0 -141 44q-46 -44 -137 -44q-90 0 -142 44q-44 -44 -127 -44q-93 0 -156 52t-84 139l-6 31q-12 59 -29 97t-64.5 66t-137.5 28t-138.5 -26.5t-48.5 -78.5q0 -39 23.5 -64t59 -40t96.5 -33q72 -21 117 -41t76 -57.5t31 -98.5
q0 -98 -91 -149t-292 -51q-195 0 -297 56t-102 193q0 30 4.5 72.5t13.5 80.5l76 -17q-7 -29 -11.5 -67.5t-4.5 -65.5q0 -66 31.5 -104.5t101.5 -56t190 -17.5q160 0 231.5 29.5t71.5 91.5q0 38 -23 62t-57 38t-95 32q-74 22 -119 41.5t-77 58.5t-32 102q0 87 68 135.5
t198 48.5q120 0 184.5 -40t87 -90.5t34.5 -117.5l6 -29q16 -65 57.5 -100.5t103.5 -35.5q49 0 72.5 24.5t23.5 81.5v236h78v-237q0 -43 -11 -79q32 -26 97 -26q63 0 88.5 24t25.5 82v286h78v-287q0 -47 -10 -78q35 -27 89 -27h56q12 0 16 -9zM1248.5 728q12.5 -13 12.5 -33
t-12.5 -33t-31.5 -13t-31.5 13t-12.5 33t12.5 33t31.5 13t31.5 -13zM1189 626q14 -15 14 -36q0 -22 -14 -36t-34 -14q-21 0 -35 14t-14 36q0 21 14 36t35 15q20 0 34 -15zM1316 626q14 -15 14 -36q0 -22 -14 -36t-34 -14q-21 0 -35 14t-14 36q0 21 14 36t35 15q20 0 34 -15z
M189 297v-51h-180v51h20q-11 19 -11 40q0 35 26.5 57t68.5 22q18 0 36.5 -4t31.5 -11l-22 -45q-7 4 -20.5 6.5t-24.5 2.5q-22 0 -35 -9.5t-13 -23.5q0 -13 10.5 -23.5t25.5 -11.5h87z" />
    <glyph glyph-name="uni06350632" unicode="&#xfebb;&#xfeb0;" horiz-adv-x="1281" 
d="M1089 453q64 -43 96 -115.5t32 -161.5v-176h-665q-90 0 -133.5 43t-43.5 132v56q-47 -14 -97 -14q-47 0 -94 13v-242q0 -100 -51.5 -155t-143.5 -56l-13 75q67 -3 98.5 30t31.5 106v481h78v-165q47 -13 94 -13q50 0 97 14v111h78v-241q0 -53 17 -75t61 -25
q13 95 62.5 192t136 163t203.5 66q92 0 156 -43zM1139 74v102q0 116 -55 181t-150 65q-84 0 -154 -50t-114.5 -130t-56.5 -168h530zM108.5 556.5q-14.5 15.5 -14.5 38.5t14.5 38t36.5 15t36.5 -15t14.5 -38t-14.5 -38.5t-36.5 -15.5t-36.5 15.5z" />
    <glyph glyph-name="uni06350632.fina" unicode="&#xfebc;&#xfeb0;" horiz-adv-x="1355" 
d="M1371 65q4 -9 4 -28t-4 -28t-16 -9h-799q-90 0 -133.5 43t-43.5 132v56q-47 -14 -97 -14q-47 0 -94 13v-242q0 -100 -51.5 -155t-143.5 -56l-13 75q67 -3 98.5 30t31.5 106v481h78v-165q47 -13 94 -13q50 0 97 14v111h78v-241q0 -53 17 -75t61 -25q13 95 62.5 192
t136 163t203.5 66q92 0 156 -43t96 -115.5t32 -161.5v-102h134q12 0 16 -9zM1143 74v102q0 116 -55 181t-150 65q-84 0 -154 -50t-114.5 -130t-56.5 -168h530zM108.5 556.5q-14.5 15.5 -14.5 38.5t14.5 38t36.5 15t36.5 -15t14.5 -38t-14.5 -38.5t-36.5 -15.5t-36.5 15.5z
" />
    <glyph glyph-name="uni06350626" unicode="&#xfebb;&#xfe8a;" horiz-adv-x="1784" 
d="M1591.5 453q64.5 -43 96.5 -115.5t32 -161.5v-176h-646q-83 0 -146.5 52.5t-84.5 138.5l-6 31q-12 59 -29 97t-64.5 66t-137.5 28t-138.5 -26.5t-48.5 -78.5q0 -39 23.5 -64t59 -40t96.5 -33q72 -21 117 -41t76 -57.5t31 -98.5q0 -98 -91 -149t-292 -51q-195 0 -297 56
t-102 193q0 30 4.5 72.5t13.5 80.5l76 -17q-7 -29 -11.5 -67.5t-4.5 -65.5q0 -66 31.5 -104.5t101.5 -56t190 -17.5q160 0 231.5 29.5t71.5 91.5q0 38 -23 62t-57 38t-95 32q-74 22 -119 41.5t-77 58.5t-32 102q0 87 68 135.5t198 48.5q120 0 184.5 -40t87 -90.5
t34.5 -117.5l6 -29q13 -51 43 -85.5t72 -45.5q14 95 64 191t136 161t201 65q92 0 156.5 -43zM1642 74v102q0 116 -55 181t-150 65q-84 0 -154.5 -50t-115 -130t-56.5 -168h531zM189 297v-51h-180v51h20q-11 19 -11 40q0 35 26.5 57t68.5 22q18 0 36.5 -4t31.5 -11l-22 -45
q-7 4 -20.5 6.5t-24.5 2.5q-22 0 -35 -9.5t-13 -23.5q0 -13 10.5 -23.5t25.5 -11.5h87z" />
    <glyph glyph-name="uni06350626.fina" unicode="&#xfebc;&#xfe8a;" horiz-adv-x="1853" 
d="M1869 65q4 -9 4 -28t-4 -28t-16 -9h-779q-83 0 -146.5 52.5t-84.5 138.5l-6 31q-12 59 -29 97t-64.5 66t-137.5 28t-138.5 -26.5t-48.5 -78.5q0 -39 23.5 -64t59 -40t96.5 -33q72 -21 117 -41t76 -57.5t31 -98.5q0 -98 -91 -149t-292 -51q-195 0 -297 56t-102 193
q0 30 4.5 72.5t13.5 80.5l76 -17q-7 -29 -11.5 -67.5t-4.5 -65.5q0 -66 31.5 -104.5t101.5 -56t190 -17.5q160 0 231.5 29.5t71.5 91.5q0 38 -23 62t-57 38t-95 32q-74 22 -119 41.5t-77 58.5t-32 102q0 87 68 135.5t198 48.5q120 0 184.5 -40t87 -90.5t34.5 -117.5l6 -29
q13 -51 43 -85.5t72 -45.5q14 95 64 191t136 161t201 65q92 0 156.5 -43t96.5 -115.5t32 -161.5v-102h133q12 0 16 -9zM1642 74v102q0 116 -55 181t-150 65q-84 0 -154.5 -50t-115 -130t-56.5 -168h531zM189 297v-51h-180v51h20q-11 19 -11 40q0 35 26.5 57t68.5 22
q18 0 36.5 -4t31.5 -11l-22 -45q-7 4 -20.5 6.5t-24.5 2.5q-22 0 -35 -9.5t-13 -23.5q0 -13 10.5 -23.5t25.5 -11.5h87z" />
    <glyph glyph-name="uni06360632" unicode="&#xfebf;&#xfeb0;" horiz-adv-x="1281" 
d="M1089 453q64 -43 96 -115.5t32 -161.5v-176h-665q-90 0 -133.5 43t-43.5 132v56q-47 -14 -97 -14q-47 0 -94 13v-242q0 -100 -51.5 -155t-143.5 -56l-13 75q67 -3 98.5 30t31.5 106v481h78v-165q47 -13 94 -13q50 0 97 14v111h78v-241q0 -53 17 -75t61 -25
q13 95 62.5 192t136 163t203.5 66q92 0 156 -43zM1139 74v102q0 116 -55 181t-150 65q-84 0 -154 -50t-114.5 -130t-56.5 -168h530zM897.5 598.5q-14.5 15.5 -14.5 38.5t14.5 38t36.5 15t36.5 -15t14.5 -38t-14.5 -38.5t-36.5 -15.5t-36.5 15.5zM108.5 556.5
q-14.5 15.5 -14.5 38.5t14.5 38t36.5 15t36.5 -15t14.5 -38t-14.5 -38.5t-36.5 -15.5t-36.5 15.5z" />
    <glyph glyph-name="uni06360632.fina" unicode="&#xfec0;&#xfeb0;" horiz-adv-x="1355" 
d="M1371 65q4 -9 4 -28t-4 -28t-16 -9h-799q-90 0 -133.5 43t-43.5 132v56q-47 -14 -97 -14q-47 0 -94 13v-242q0 -100 -51.5 -155t-143.5 -56l-13 75q67 -3 98.5 30t31.5 106v481h78v-165q47 -13 94 -13q50 0 97 14v111h78v-241q0 -53 17 -75t61 -25q13 95 62.5 192
t136 163t203.5 66q92 0 156 -43t96 -115.5t32 -161.5v-102h134q12 0 16 -9zM1143 74v102q0 116 -55 181t-150 65q-84 0 -154 -50t-114.5 -130t-56.5 -168h530zM897.5 598.5q-14.5 15.5 -14.5 38.5t14.5 38t36.5 15t36.5 -15t14.5 -38t-14.5 -38.5t-36.5 -15.5t-36.5 15.5z
M108.5 556.5q-14.5 15.5 -14.5 38.5t14.5 38t36.5 15t36.5 -15t14.5 -38t-14.5 -38.5t-36.5 -15.5t-36.5 15.5z" />
    <glyph glyph-name="uni06360626" unicode="&#xfebf;&#xfe8a;" horiz-adv-x="1784" 
d="M1591.5 453q64.5 -43 96.5 -115.5t32 -161.5v-176h-646q-83 0 -146.5 52.5t-84.5 138.5l-6 31q-12 59 -29 97t-64.5 66t-137.5 28t-138.5 -26.5t-48.5 -78.5q0 -39 23.5 -64t59 -40t96.5 -33q72 -21 117 -41t76 -57.5t31 -98.5q0 -98 -91 -149t-292 -51q-195 0 -297 56
t-102 193q0 30 4.5 72.5t13.5 80.5l76 -17q-7 -29 -11.5 -67.5t-4.5 -65.5q0 -66 31.5 -104.5t101.5 -56t190 -17.5q160 0 231.5 29.5t71.5 91.5q0 38 -23 62t-57 38t-95 32q-74 22 -119 41.5t-77 58.5t-32 102q0 87 68 135.5t198 48.5q120 0 184.5 -40t87 -90.5
t34.5 -117.5l6 -29q13 -51 43 -85.5t72 -45.5q14 95 64 191t136 161t201 65q92 0 156.5 -43zM1642 74v102q0 116 -55 181t-150 65q-84 0 -154.5 -50t-115 -130t-56.5 -168h531zM1398.5 598.5q-14.5 15.5 -14.5 38.5t14.5 38t36.5 15t36.5 -15t14.5 -38t-14.5 -38.5
t-36.5 -15.5t-36.5 15.5zM189 297v-51h-180v51h20q-11 19 -11 40q0 35 26.5 57t68.5 22q18 0 36.5 -4t31.5 -11l-22 -45q-7 4 -20.5 6.5t-24.5 2.5q-22 0 -35 -9.5t-13 -23.5q0 -13 10.5 -23.5t25.5 -11.5h87z" />
    <glyph glyph-name="uni06360626.fina" unicode="&#xfec0;&#xfe8a;" horiz-adv-x="1853" 
d="M1869 65q4 -9 4 -28t-4 -28t-16 -9h-779q-83 0 -146.5 52.5t-84.5 138.5l-6 31q-12 59 -29 97t-64.5 66t-137.5 28t-138.5 -26.5t-48.5 -78.5q0 -39 23.5 -64t59 -40t96.5 -33q72 -21 117 -41t76 -57.5t31 -98.5q0 -98 -91 -149t-292 -51q-195 0 -297 56t-102 193
q0 30 4.5 72.5t13.5 80.5l76 -17q-7 -29 -11.5 -67.5t-4.5 -65.5q0 -66 31.5 -104.5t101.5 -56t190 -17.5q160 0 231.5 29.5t71.5 91.5q0 38 -23 62t-57 38t-95 32q-74 22 -119 41.5t-77 58.5t-32 102q0 87 68 135.5t198 48.5q120 0 184.5 -40t87 -90.5t34.5 -117.5l6 -29
q13 -51 43 -85.5t72 -45.5q14 95 64 191t136 161t201 65q92 0 156.5 -43t96.5 -115.5t32 -161.5v-102h133q12 0 16 -9zM1642 74v102q0 116 -55 181t-150 65q-84 0 -154.5 -50t-115 -130t-56.5 -168h531zM1398.5 598.5q-14.5 15.5 -14.5 38.5t14.5 38t36.5 15t36.5 -15
t14.5 -38t-14.5 -38.5t-36.5 -15.5t-36.5 15.5zM189 297v-51h-180v51h20q-11 19 -11 40q0 35 26.5 57t68.5 22q18 0 36.5 -4t31.5 -11l-22 -45q-7 4 -20.5 6.5t-24.5 2.5q-22 0 -35 -9.5t-13 -23.5q0 -13 10.5 -23.5t25.5 -11.5h87z" />
    <glyph glyph-name="uni06410626" unicode="&#xfed3;&#xfe8a;" horiz-adv-x="1195" 
d="M923.5 608.5q-14.5 15.5 -14.5 38.5t14.5 38t36.5 15t36.5 -15t14.5 -38t-14.5 -38.5t-36.5 -15.5t-36.5 15.5zM1155 460v-460h-335q2 -16 2 -26q0 -99 -91.5 -149.5t-291.5 -50.5q-195 0 -297 56t-102 193q0 30 4.5 72.5t13.5 80.5l76 -17q-7 -29 -11.5 -67.5
t-4.5 -66.5q0 -65 31.5 -103.5t101 -56t188.5 -17.5q158 0 227 29.5t69 90.5q0 17 -6 32h-10q-110 0 -167 55l54 54q19 -18 45.5 -26.5t67.5 -8.5h30q-67 72 -67 171q0 75 37 135t101 94.5t140 34.5q89 0 195 -49zM857 410q-46 -25 -71.5 -68t-25.5 -96q0 -63 36 -109
t96 -63h185v338q-66 23 -117 23q-57 0 -103 -25zM189 297v-51h-180v51h20q-11 19 -11 40q0 35 26.5 57t68.5 22q18 0 36.5 -4t31.5 -11l-22 -45q-7 4 -20.5 6.5t-24.5 2.5q-22 0 -35 -9.5t-13 -23.5q0 -13 10.5 -23.5t25.5 -11.5h87z" />
    <glyph glyph-name="uni06420626" unicode="&#xfed7;&#xfe8a;" horiz-adv-x="1195" 
d="M860 606q-14 15 -14 36q0 22 14 36t35 14q20 0 34 -14t14 -36q0 -21 -14 -36t-34 -15q-21 0 -35 15zM987 606q-14 15 -14 36q0 22 14 36t35 14q20 0 34 -14t14 -36q0 -21 -14 -36t-34 -15q-21 0 -35 15zM1155 460v-460h-335q2 -16 2 -26q0 -99 -91.5 -149.5t-291.5 -50.5
q-195 0 -297 56t-102 193q0 30 4.5 72.5t13.5 80.5l76 -17q-7 -29 -11.5 -67.5t-4.5 -66.5q0 -65 31.5 -103.5t101 -56t188.5 -17.5q158 0 227 29.5t69 90.5q0 17 -6 32h-10q-110 0 -167 55l54 54q19 -18 45.5 -26.5t67.5 -8.5h30q-67 72 -67 171q0 75 37 135t101 94.5
t140 34.5q89 0 195 -49zM857 410q-46 -25 -71.5 -68t-25.5 -96q0 -63 36 -109t96 -63h185v338q-66 23 -117 23q-57 0 -103 -25zM189 297v-51h-180v51h20q-11 19 -11 40q0 35 26.5 57t68.5 22q18 0 36.5 -4t31.5 -11l-22 -45q-7 4 -20.5 6.5t-24.5 2.5q-22 0 -35 -9.5
t-13 -23.5q0 -13 10.5 -23.5t25.5 -11.5h87z" />
    <glyph glyph-name="uni06430626" unicode="&#xfedb;&#xfe8a;" horiz-adv-x="1038" 
d="M859 383.5q50 -48.5 77.5 -124t27.5 -169.5v-90h-144q2 -16 2 -26q0 -99 -91.5 -149.5t-291.5 -50.5q-195 0 -297 56t-102 193q0 30 4.5 72.5t13.5 80.5l76 -17q-7 -29 -11.5 -67.5t-4.5 -66.5q0 -65 31.5 -103.5t101 -56t188.5 -17.5q158 0 227 29.5t69 90.5q0 17 -6 32
h-10q-110 0 -167 55l54 54q19 -18 45.5 -26.5t67.5 -8.5h167v22q0 88 -26 152t-74 97.5t-112 33.5l-50 52l262 262l48 -53l-192 -192q67 -16 117 -64.5zM189 297v-51h-180v51h20q-11 19 -11 40q0 35 26.5 57t68.5 22q18 0 36.5 -4t31.5 -11l-22 -45q-7 4 -20.5 6.5
t-24.5 2.5q-22 0 -35 -9.5t-13 -23.5q0 -13 10.5 -23.5t25.5 -11.5h87z" />
    <glyph glyph-name="uni06430626.fina" unicode="&#xfedc;&#xfe8a;" horiz-adv-x="1075" 
d="M1091 65q4 -9 4 -28t-4 -28t-16 -9h-255q2 -16 2 -26q0 -99 -91.5 -149.5t-291.5 -50.5q-195 0 -297 56t-102 193q0 30 4.5 72.5t13.5 80.5l76 -17q-7 -29 -11.5 -67.5t-4.5 -66.5q0 -65 31.5 -103.5t101 -56t188.5 -17.5q158 0 227 29.5t69 90.5q0 17 -6 32h-10
q-110 0 -167 55l54 54q19 -18 45.5 -26.5t67.5 -8.5h167v22q0 88 -26 152t-74 97.5t-112 33.5l-50 52l262 262l48 -53l-192 -192q67 -16 117 -64.5t77.5 -124t27.5 -169.5v-16h111q12 0 16 -9zM189 297v-51h-180v51h20q-11 19 -11 40q0 35 26.5 57t68.5 22q18 0 36.5 -4
t31.5 -11l-22 -45q-7 4 -20.5 6.5t-24.5 2.5q-22 0 -35 -9.5t-13 -23.5q0 -13 10.5 -23.5t25.5 -11.5h87z" />
    <glyph glyph-name="uni06AF0649" unicode="&#xfb94;&#xfef0;" horiz-adv-x="1038" 
d="M601 487l-50 52l246 248l49 -54zM859 383.5q50 -48.5 77.5 -124t27.5 -169.5v-90h-144q2 -16 2 -26q0 -99 -91.5 -149.5t-291.5 -50.5q-195 0 -297 56t-102 193q0 30 4.5 72.5t13.5 80.5l76 -17q-7 -29 -11.5 -67.5t-4.5 -66.5q0 -65 31.5 -103.5t101 -56t188.5 -17.5
q158 0 227 29.5t69 90.5q0 17 -6 32h-10q-110 0 -167 55l54 54q19 -18 45.5 -26.5t67.5 -8.5h167v22q0 88 -26 152t-74 97.5t-112 33.5l-50 52l262 262l48 -53l-192 -192q67 -16 117 -64.5z" />
    <glyph glyph-name="uni06AF0649.fina" unicode="&#xfb95;&#xfef0;" horiz-adv-x="1075" 
d="M601 487l-50 52l246 248l49 -54zM1091 65q4 -9 4 -28t-4 -28t-16 -9h-255q2 -16 2 -26q0 -99 -91.5 -149.5t-291.5 -50.5q-195 0 -297 56t-102 193q0 30 4.5 72.5t13.5 80.5l76 -17q-7 -29 -11.5 -67.5t-4.5 -66.5q0 -65 31.5 -103.5t101 -56t188.5 -17.5q158 0 227 29.5
t69 90.5q0 17 -6 32h-10q-110 0 -167 55l54 54q19 -18 45.5 -26.5t67.5 -8.5h167v22q0 88 -26 152t-74 97.5t-112 33.5l-50 52l262 262l48 -53l-192 -192q67 -16 117 -64.5t77.5 -124t27.5 -169.5v-16h111q12 0 16 -9z" />
    <glyph glyph-name="uni06AF064A" unicode="&#xfb94;&#xfef2;" horiz-adv-x="1038" 
d="M601 487l-50 52l246 248l49 -54zM859 383.5q50 -48.5 77.5 -124t27.5 -169.5v-90h-144q2 -16 2 -26q0 -99 -91.5 -149.5t-291.5 -50.5q-195 0 -297 56t-102 193q0 30 4.5 72.5t13.5 80.5l76 -17q-7 -29 -11.5 -67.5t-4.5 -66.5q0 -65 31.5 -103.5t101 -56t188.5 -17.5
q158 0 227 29.5t69 90.5q0 17 -6 32h-10q-110 0 -167 55l54 54q19 -18 45.5 -26.5t67.5 -8.5h167v22q0 88 -26 152t-74 97.5t-112 33.5l-50 52l262 262l48 -53l-192 -192q67 -16 117 -64.5zM471.172 -376.115q-13.6748 14.6191 -13.6748 36.3105t13.6748 35.8379
q13.6758 14.1465 34.4238 14.1465q20.749 0 34.4238 -14.1465q13.6758 -14.1465 13.6758 -35.8379t-13.6758 -36.3105q-13.6748 -14.6182 -34.4238 -14.6182q-20.748 0 -34.4238 14.6182zM344.172 -376.115q-13.6748 14.6191 -13.6748 36.3105t13.6748 35.8379
q13.6758 14.1465 34.4238 14.1465q20.749 0 34.4238 -14.1465q13.6758 -14.1465 13.6758 -35.8379t-13.6758 -36.3105q-13.6748 -14.6182 -34.4238 -14.6182q-20.748 0 -34.4238 14.6182z" />
    <glyph glyph-name="uni06AF064A.fina" unicode="&#xfb95;&#xfef2;" horiz-adv-x="1075" 
d="M601 487l-50 52l246 248l49 -54zM1091 65q4 -9 4 -28t-4 -28t-16 -9h-255q2 -16 2 -26q0 -99 -91.5 -149.5t-291.5 -50.5q-195 0 -297 56t-102 193q0 30 4.5 72.5t13.5 80.5l76 -17q-7 -29 -11.5 -67.5t-4.5 -66.5q0 -65 31.5 -103.5t101 -56t188.5 -17.5q158 0 227 29.5
t69 90.5q0 17 -6 32h-10q-110 0 -167 55l54 54q19 -18 45.5 -26.5t67.5 -8.5h167v22q0 88 -26 152t-74 97.5t-112 33.5l-50 52l262 262l48 -53l-192 -192q67 -16 117 -64.5t77.5 -124t27.5 -169.5v-16h111q12 0 16 -9zM471.172 -376.115q-13.6748 14.6191 -13.6748 36.3105
t13.6748 35.8379q13.6758 14.1465 34.4238 14.1465q20.749 0 34.4238 -14.1465q13.6758 -14.1465 13.6758 -35.8379t-13.6758 -36.3105q-13.6748 -14.6182 -34.4238 -14.6182q-20.748 0 -34.4238 14.6182zM344.172 -376.115q-13.6748 14.6191 -13.6748 36.3105
t13.6748 35.8379q13.6758 14.1465 34.4238 14.1465q20.749 0 34.4238 -14.1465q13.6758 -14.1465 13.6758 -35.8379t-13.6758 -36.3105q-13.6748 -14.6182 -34.4238 -14.6182q-20.748 0 -34.4238 14.6182z" />
    <glyph glyph-name="uni06AF0626" unicode="&#xfb94;&#xfe8a;" horiz-adv-x="1038" 
d="M601 487l-50 52l246 248l49 -54zM859 383.5q50 -48.5 77.5 -124t27.5 -169.5v-90h-144q2 -16 2 -26q0 -99 -91.5 -149.5t-291.5 -50.5q-195 0 -297 56t-102 193q0 30 4.5 72.5t13.5 80.5l76 -17q-7 -29 -11.5 -67.5t-4.5 -66.5q0 -65 31.5 -103.5t101 -56t188.5 -17.5
q158 0 227 29.5t69 90.5q0 17 -6 32h-10q-110 0 -167 55l54 54q19 -18 45.5 -26.5t67.5 -8.5h167v22q0 88 -26 152t-74 97.5t-112 33.5l-50 52l262 262l48 -53l-192 -192q67 -16 117 -64.5zM189 297v-51h-180v51h20q-11 19 -11 40q0 35 26.5 57t68.5 22q18 0 36.5 -4
t31.5 -11l-22 -45q-7 4 -20.5 6.5t-24.5 2.5q-22 0 -35 -9.5t-13 -23.5q0 -13 10.5 -23.5t25.5 -11.5h87z" />
    <glyph glyph-name="uni06AF0626.fina" unicode="&#xfb95;&#xfe8a;" horiz-adv-x="1075" 
d="M601 487l-50 52l246 248l49 -54zM1091 65q4 -9 4 -28t-4 -28t-16 -9h-255q2 -16 2 -26q0 -99 -91.5 -149.5t-291.5 -50.5q-195 0 -297 56t-102 193q0 30 4.5 72.5t13.5 80.5l76 -17q-7 -29 -11.5 -67.5t-4.5 -66.5q0 -65 31.5 -103.5t101 -56t188.5 -17.5q158 0 227 29.5
t69 90.5q0 17 -6 32h-10q-110 0 -167 55l54 54q19 -18 45.5 -26.5t67.5 -8.5h167v22q0 88 -26 152t-74 97.5t-112 33.5l-50 52l262 262l48 -53l-192 -192q67 -16 117 -64.5t77.5 -124t27.5 -169.5v-16h111q12 0 16 -9zM189 297v-51h-180v51h20q-11 19 -11 40q0 35 26.5 57
t68.5 22q18 0 36.5 -4t31.5 -11l-22 -45q-7 4 -20.5 6.5t-24.5 2.5q-22 0 -35 -9.5t-13 -23.5q0 -13 10.5 -23.5t25.5 -11.5h87z" />
    <glyph glyph-name="uni06440671" unicode="&#xfedf;&#xfb51;" horiz-adv-x="608" 
d="M534 733v-733h-494v74h135v518h78v-518h203v659h78zM283.5 758q24.5 -25 25.5 -63v-50h-190v50h17q1 38 25.5 63t60.5 25q37 0 61.5 -25zM261 695q-1 17 -11.5 27t-27.5 10t-27 -10t-11 -27h77z" />
    <glyph glyph-name="uni06440671.fina" unicode="&#xfee0;&#xfb51;" horiz-adv-x="669" 
d="M685 65q4 -9 4 -28t-4 -28t-16 -9h-37q-88 0 -141 44q-45 -44 -144 -44h-307v74h135v518h78v-518h88q64 0 89.5 24t25.5 82v553h78v-554q0 -47 -10 -78q35 -27 89 -27h56q12 0 16 -9zM283.5 758q24.5 -25 25.5 -63v-50h-190v50h17q1 38 25.5 63t60.5 25q37 0 61.5 -25z
M261 695q-1 17 -11.5 27t-27.5 10t-27 -10t-11 -27h77z" />
    <glyph glyph-name="uni06440626" unicode="&#xfedf;&#xfe8a;" horiz-adv-x="998" 
d="M915 733v-733h-162q-12 0 -16 9t-4 28t4 28t16 9h84v659h78zM892 65q4 -9 4 -28t-4 -28t-16 -9h-56q2 -16 2 -26q0 -99 -91.5 -149.5t-291.5 -50.5q-195 0 -297 56t-102 193q0 30 4.5 72.5t13.5 80.5l76 -17q-7 -29 -11.5 -67.5t-4.5 -66.5q0 -65 31.5 -103.5t101 -56
t188.5 -17.5q158 0 227 29.5t69 90.5q0 17 -6 32h-10q-110 0 -167 55l54 54q19 -18 45.5 -26.5t67.5 -8.5h157q12 0 16 -9zM189 327v-51h-180v51h20q-11 19 -11 40q0 35 26.5 57t68.5 22q18 0 36.5 -4t31.5 -11l-22 -45q-7 4 -20.5 6.5t-24.5 2.5q-22 0 -35 -9.5t-13 -23.5
q0 -13 10.5 -23.5t25.5 -11.5h87z" />
    <glyph glyph-name="uni06440626.fina" unicode="&#xfee0;&#xfe8a;" horiz-adv-x="1016" 
d="M1032 65q4 -9 4 -28t-4 -28t-16 -9h-196q2 -16 2 -26q0 -99 -91.5 -149.5t-291.5 -50.5q-195 0 -297 56t-102 193q0 30 4.5 72.5t13.5 80.5l76 -17q-7 -29 -11.5 -67.5t-4.5 -66.5q0 -65 31.5 -103.5t101 -56t188.5 -17.5q158 0 227 29.5t69 90.5q0 17 -6 32h-10
q-110 0 -167 55l54 54q19 -18 45.5 -26.5t67.5 -8.5h118v659h78v-659h101q12 0 16 -9zM189 297v-51h-180v51h20q-11 19 -11 40q0 35 26.5 57t68.5 22q18 0 36.5 -4t31.5 -11l-22 -45q-7 4 -20.5 6.5t-24.5 2.5q-22 0 -35 -9.5t-13 -23.5q0 -13 10.5 -23.5t25.5 -11.5h87z
" />
    <glyph glyph-name="uni06460626" unicode="&#xfee7;&#xfe8a;" horiz-adv-x="1004" 
d="M856.5 555.5q-14.5 15.5 -14.5 38.5t14.5 38t36.5 15t36.5 -15t14.5 -38t-14.5 -38.5t-36.5 -15.5t-36.5 15.5zM853 468h78v-469h-110q1 -8 1 -25q0 -99 -91.5 -149.5t-291.5 -50.5q-195 0 -297 56t-102 193q0 30 4.5 72.5t13.5 80.5l76 -17q-7 -29 -11.5 -67.5
t-4.5 -66.5q0 -65 31.5 -103.5t101 -56t188.5 -17.5q158 0 227 29.5t69 90.5q0 16 -5 31h-5v1h-6q-110 0 -167 55l54 54q19 -18 45.5 -26.5t67.5 -8.5h134v394zM189 297v-51h-180v51h20q-11 19 -11 40q0 35 26.5 57t68.5 22q18 0 36.5 -4t31.5 -11l-22 -45q-7 4 -20.5 6.5
t-24.5 2.5q-22 0 -35 -9.5t-13 -23.5q0 -13 10.5 -23.5t25.5 -11.5h87z" />
    <glyph glyph-name="uni06460626.fina" unicode="&#xfee8;&#xfe8a;" horiz-adv-x="1092" 
d="M568.5 570.5q-14.5 15.5 -14.5 38.5t14.5 38t36.5 15t36.5 -15t14.5 -38t-14.5 -38.5t-36.5 -15.5t-36.5 15.5zM1108 65q4 -9 4 -28t-4 -28t-16 -9h-18q-83 0 -146.5 52.5t-84.5 138.5l-6 31q-12 59 -29 97t-64.5 66t-137.5 28t-138.5 -26.5t-48.5 -78.5q0 -39 23.5 -64
t59 -40t96.5 -33q72 -21 117 -41t76 -57.5t31 -98.5q0 -98 -91 -149t-292 -51q-195 0 -297 56t-102 193q0 30 4.5 72.5t13.5 80.5l76 -17q-7 -29 -11.5 -67.5t-4.5 -65.5q0 -66 31.5 -104.5t101.5 -56t190 -17.5q160 0 231.5 29.5t71.5 91.5q0 38 -23 62t-57 38t-95 32
q-74 22 -119 41.5t-77 58.5t-32 102q0 87 68 135.5t198 48.5q120 0 184.5 -40t87 -90.5t34.5 -117.5l6 -29q16 -63 57.5 -99.5t97.5 -36.5h18q12 0 16 -9zM189 297v-51h-180v51h20q-11 19 -11 40q0 35 26.5 57t68.5 22q18 0 36.5 -4t31.5 -11l-22 -45q-7 4 -20.5 6.5
t-24.5 2.5q-22 0 -35 -9.5t-13 -23.5q0 -13 10.5 -23.5t25.5 -11.5h87z" />
    <glyph glyph-name="uni06490631.fina" unicode="&#x649;&#xfeae;" horiz-adv-x="599" 
d="M615 65q4 -9 4 -28t-4 -28t-16 -9h-37q-98 0 -142.5 43t-44.5 136v52q-47 -14 -97 -14q-47 0 -94 13v-242q0 -100 -51.5 -155t-143.5 -56l-13 75q67 -3 98.5 30t31.5 106v481h78v-165q47 -13 94 -13q50 0 97 14v164h78v-289q0 -58 25 -82t89 -24h32q12 0 16 -9z" />
    <glyph glyph-name="uni06490632.fina" unicode="&#x649;&#xfeb0;" horiz-adv-x="599" 
d="M615 65q4 -9 4 -28t-4 -28t-16 -9h-37q-98 0 -142.5 43t-44.5 136v52q-47 -14 -97 -14q-47 0 -94 13v-242q0 -100 -51.5 -155t-143.5 -56l-13 75q67 -3 98.5 30t31.5 106v481h78v-165q47 -13 94 -13q50 0 97 14v164h78v-289q0 -58 25 -82t89 -24h32q12 0 16 -9z
M108.5 556.5q-14.5 15.5 -14.5 38.5t14.5 38t36.5 15t36.5 -15t14.5 -38t-14.5 -38.5t-36.5 -15.5t-36.5 15.5z" />
    <glyph glyph-name="uni06490646.fina" unicode="&#x649;&#xfee6;" horiz-adv-x="1045" 
d="M296.5 465.5q-14.5 15.5 -14.5 38.5t14.5 38t36.5 15t36.5 -15t14.5 -38t-14.5 -38.5t-36.5 -15.5t-36.5 15.5zM1061 65q4 -9 4 -28t-4 -28t-16 -9h-37q-90 0 -135 36.5t-51 114.5q-50 -16 -103 -16q-49 0 -89 12q1 -11 1 -32q0 -90 -35.5 -163.5t-102.5 -116t-158 -42.5
t-157.5 43t-102 115.5t-35.5 161.5q0 74 24 161l71 -36q-17 -66 -17 -127q0 -71 27 -126.5t76 -86.5t114 -31t114.5 30.5t76.5 86.5t27 128q0 49 -11.5 105.5t-30.5 100.5l68 38q26 -56 41 -132q50 -15 99 -15q57 0 102 16v177h78v-222q0 -58 25.5 -82t89.5 -24h31
q12 0 16 -9z" />
    <glyph glyph-name="uni06260626" unicode="&#xfe8b;&#xfe8a;" horiz-adv-x="1007" 
d="M984 591v-51h-180v51h20q-11 19 -11 40q0 35 26.5 57t68.5 22q18 0 36.5 -4t31.5 -11l-22 -45q-7 4 -20.5 6.5t-24.5 2.5q-22 0 -35 -9.5t-13 -23.5q0 -13 10.5 -23.5t25.5 -11.5h87zM853 468h78v-469h-110q1 -8 1 -25q0 -99 -91.5 -149.5t-291.5 -50.5q-195 0 -297 56
t-102 193q0 30 4.5 72.5t13.5 80.5l76 -17q-7 -29 -11.5 -67.5t-4.5 -66.5q0 -65 31.5 -103.5t101 -56t188.5 -17.5q158 0 227 29.5t69 90.5q0 16 -5 31h-5v1h-6q-110 0 -167 55l54 54q19 -18 45.5 -26.5t67.5 -8.5h134v394zM189 297v-51h-180v51h20q-11 19 -11 40
q0 35 26.5 57t68.5 22q18 0 36.5 -4t31.5 -11l-22 -45q-7 4 -20.5 6.5t-24.5 2.5q-22 0 -35 -9.5t-13 -23.5q0 -13 10.5 -23.5t25.5 -11.5h87z" />
    <glyph glyph-name="uni06260626.fina" unicode="&#xfe8c;&#xfe8a;" horiz-adv-x="1092" 
d="M693 555h-180v51h20q-11 19 -11 40q0 35 26.5 57t68.5 22q18 0 36.5 -4t31.5 -11l-22 -45q-7 4 -20.5 6.5t-24.5 2.5q-22 0 -35 -9.5t-13 -23.5q0 -13 10.5 -23.5t25.5 -11.5h87v-51zM1108 65q4 -9 4 -28t-4 -28t-16 -9h-18q-83 0 -146.5 52.5t-84.5 138.5l-6 31
q-12 59 -29 97t-64.5 66t-137.5 28t-138.5 -26.5t-48.5 -78.5q0 -39 23.5 -64t59 -40t96.5 -33q72 -21 117 -41t76 -57.5t31 -98.5q0 -98 -91 -149t-292 -51q-195 0 -297 56t-102 193q0 30 4.5 72.5t13.5 80.5l76 -17q-7 -29 -11.5 -67.5t-4.5 -65.5q0 -66 31.5 -104.5
t101.5 -56t190 -17.5q160 0 231.5 29.5t71.5 91.5q0 38 -23 62t-57 38t-95 32q-74 22 -119 41.5t-77 58.5t-32 102q0 87 68 135.5t198 48.5q120 0 184.5 -40t87 -90.5t34.5 -117.5l6 -29q16 -63 57.5 -99.5t97.5 -36.5h18q12 0 16 -9zM189 297v-51h-180v51h20q-11 19 -11 40
q0 35 26.5 57t68.5 22q18 0 36.5 -4t31.5 -11l-22 -45q-7 4 -20.5 6.5t-24.5 2.5q-22 0 -35 -9.5t-13 -23.5q0 -13 10.5 -23.5t25.5 -11.5h87z" />
    <glyph glyph-name="uni066E.init" unicode="&#x66e;" horiz-adv-x="270" 
d="M197 469v-469h-197q-12 0 -16 9t-4 28t4 28t16 9h118v395h79z" />
    <glyph glyph-name="uni066E.medi" unicode="&#x66e;" horiz-adv-x="360" 
d="M376 65q4 -9 4 -28t-4 -28t-16 -9h-37q-87 0 -142 44q-44 -44 -144 -44h-37q-12 0 -16 9t-4 28t4 28t16 9h32q64 0 89.5 24t25.5 82v289h78v-290q0 -47 -10 -78q35 -27 89 -27h56q12 0 16 -9z" />
    <glyph glyph-name="uni066E.fina" unicode="&#x66e;" horiz-adv-x="930" 
d="M946 65q4 -9 4 -28t-4 -28t-16 -9h-34q-88 0 -142 45q-44 -45 -144 -45h-349q-101 0 -156 54t-55 149q0 63 25.5 110.5t74.5 85.5l62 -44q-43 -36 -63.5 -72t-20.5 -80q0 -60 36 -94.5t103 -34.5h338q64 0 89 24t25 82v289h78v-290q0 -47 -10 -78q35 -27 90 -27h53
q12 0 16 -9z" />
    <glyph glyph-name="uni066F.fina" unicode="&#x66f;" horiz-adv-x="913" 
d="M929 65q4 -9 4 -28t-4 -28t-16 -9h-107q-14 -131 -107.5 -208.5t-274.5 -77.5q-197 0 -290.5 90.5t-93.5 240.5q0 86 29 182l70 -36q-21 -78 -21 -148q0 -123 74.5 -189t231.5 -66q278 0 304 212h-124q-74 0 -136.5 34t-98.5 92.5t-36 128.5t36 128t98 92t136 34
q49 0 102.5 -15.5t100.5 -43.5l2 1v-377h105q12 0 16 -9zM436 164.5q25 -41.5 69.5 -66t100.5 -24.5h124v331q-71 30 -124 30q-56 0 -100.5 -24t-69.5 -65.5t-25 -90.5t25 -90.5z" />
    <glyph glyph-name="uni06A1.init" unicode="&#x6a1;" horiz-adv-x="600" 
d="M560 460v-460h-560q-12 0 -16 9t-4 28t4 28t16 9h154q-67 72 -67 171q0 75 37 135t101 94.5t140 34.5q89 0 195 -49zM200.5 137q35.5 -46 95.5 -63h186v338q-64 23 -117 23q-57 0 -103 -25t-71.5 -68t-25.5 -96q0 -63 35.5 -109z" />
    <glyph glyph-name="uni06A1.medi" unicode="&#x6a1;" horiz-adv-x="673" 
d="M689 65q4 -9 4 -28t-4 -28t-16 -9h-673q-12 0 -16 9t-4 28t4 28t16 9h154q-67 72 -67 171q0 75 37 135t101 94.5t140 34.5q89 0 195 -49v-386h113q12 0 16 -9zM200.5 137q35.5 -46 95.5 -63h186v338q-64 23 -117 23q-57 0 -103 -25t-71.5 -68t-25.5 -96q0 -63 35.5 -109z
" />
    <glyph glyph-name="uni06A1.fina" unicode="&#x6a1;" horiz-adv-x="1055" 
d="M1071 65q4 -9 4 -28t-4 -28t-16 -9l-804 -1q-101 0 -156 54t-55 149q0 64 25.5 111.5t74.5 85.5l63 -45q-44 -35 -64.5 -71t-20.5 -80q0 -60 36 -95t103 -35h284q-33 34 -50.5 78t-17.5 94q0 75 37 135t101 94.5t140 34.5q89 0 195 -49v-386h109q12 0 16 -9zM585.5 138.5
q34.5 -45.5 93.5 -64.5h189v338q-66 23 -117 23q-57 0 -103 -25t-71.5 -68t-25.5 -96q0 -62 34.5 -107.5z" />
    <glyph glyph-name="uni06C2.fina" unicode="&#x6c2;" horiz-adv-x="620" 
d="M636 65q4 -9 4 -28t-4 -28t-16 -9h-15q-61 0 -98.5 16.5t-56.5 51.5q-36 -17 -76.5 -26.5t-78.5 -9.5q-70 0 -128.5 32t-92.5 87t-34 121t34.5 121t93 87t128.5 32h133v26h78v-358q0 -40 8 -62.5t30 -33t65 -10.5h10q12 0 16 -9zM431 142q-2 22 -2 37v259h-133
q-49 0 -90 -22t-64.5 -60t-23.5 -84t23.5 -84t64.5 -60t91 -22q63 0 134 36zM386 634v-51h-180v51h20q-11 19 -11 40q0 35 26.5 57t68.5 22q18 0 36.5 -4t31.5 -11l-22 -45q-7 4 -20.5 6.5t-24.5 2.5q-22 0 -35 -9.5t-13 -23.5q0 -13 10.5 -23.5t25.5 -11.5h87z" />
    <glyph glyph-name="uni06C3.fina" unicode="&#x6c3;" horiz-adv-x="759" 
d="M775 65q4 -9 4 -28t-4 -28t-16 -9h-50q-44 0 -80 22t-63.5 54t-65.5 86q-36 51 -61.5 81t-57.5 50t-70 20q-60 0 -103.5 -50.5t-66.5 -133t-23 -176.5h-78q0 128 34.5 226.5t96.5 153t143 54.5q59 0 107 -28t81.5 -67t77.5 -101q44 -61 71 -89t58 -28h50q12 0 16 -9z
M347.172 502.885q-13.6748 14.6191 -13.6748 36.3105t13.6748 35.8379q13.6758 14.1465 34.4238 14.1465q20.749 0 34.4238 -14.1465q13.6758 -14.1465 13.6758 -35.8379t-13.6758 -36.3105q-13.6748 -14.6182 -34.4238 -14.6182q-20.748 0 -34.4238 14.6182z
M220.172 502.885q-13.6748 14.6191 -13.6748 36.3105t13.6748 35.8379q13.6758 14.1465 34.4238 14.1465q20.749 0 34.4238 -14.1465q13.6758 -14.1465 13.6758 -35.8379t-13.6758 -36.3105q-13.6748 -14.6182 -34.4238 -14.6182q-20.748 0 -34.4238 14.6182z" />
    <glyph glyph-name="uniFB51" unicode="&#x671;" horiz-adv-x="275" arabic-form="final" 
d="M291 65q4 -9 4 -28t-4 -28t-16 -9h-185v733h78v-659h107q12 0 16 -9zM198.5 888q24.5 -25 25.5 -63v-50h-190v50h17q1 38 25.5 63t60.5 25q37 0 61.5 -25zM176 825q-1 17 -11.5 27t-27.5 10t-27 -10t-11 -27h77z" />
    <glyph glyph-name="uniFB57" unicode="&#x67e;" horiz-adv-x="930" arabic-form="final" 
d="M946 65q4 -9 4 -28t-4 -28t-16 -9h-34q-88 0 -142 45q-44 -45 -144 -45h-349q-101 0 -156 54t-55 149q0 63 25.5 110.5t74.5 85.5l62 -44q-43 -36 -63.5 -72t-20.5 -80q0 -60 36 -94.5t103 -34.5h338q64 0 89 24t25 82v289h78v-290q0 -47 -10 -78q35 -27 90 -27h53
q12 0 16 -9zM343 -165q-14 15 -14 36q0 22 14 36t35 14q20 0 34 -14t14 -36q0 -21 -14 -36t-34 -15q-21 0 -35 15zM470 -165q-14 15 -14 36q0 22 14 36t35 14q20 0 34 -14t14 -36q0 -21 -14 -36t-34 -15q-21 0 -35 15zM408.5 -267q-12.5 13 -12.5 33t12.5 33t31.5 13
t31.5 -13t12.5 -33t-12.5 -33t-31.5 -13t-31.5 13z" />
    <glyph glyph-name="uniFB58" unicode="&#x67e;" horiz-adv-x="270" arabic-form="initial" 
d="M197 469v-469h-197q-12 0 -16 9t-4 28t4 28t16 9h118v395h79zM62 -165q-14 15 -14 36q0 22 14 36t35 14q20 0 34 -14t14 -36q0 -21 -14 -36t-34 -15q-21 0 -35 15zM189 -165q-14 15 -14 36q0 22 14 36t35 14q20 0 34 -14t14 -36q0 -21 -14 -36t-34 -15q-21 0 -35 15z
M127.5 -267q-12.5 13 -12.5 33t12.5 33t31.5 13t31.5 -13t12.5 -33t-12.5 -33t-31.5 -13t-31.5 13z" />
    <glyph glyph-name="uniFB59" unicode="&#x67e;" horiz-adv-x="360" arabic-form="medial" 
d="M376 65q4 -9 4 -28t-4 -28t-16 -9h-37q-87 0 -142 44q-44 -44 -144 -44h-37q-12 0 -16 9t-4 28t4 28t16 9h32q64 0 89.5 24t25.5 82v289h78v-290q0 -47 -10 -78q35 -27 89 -27h56q12 0 16 -9zM90 -165q-14 15 -14 36q0 22 14 36t35 14q20 0 34 -14t14 -36q0 -21 -14 -36
t-34 -15q-21 0 -35 15zM217 -165q-14 15 -14 36q0 22 14 36t35 14q20 0 34 -14t14 -36q0 -21 -14 -36t-34 -15q-21 0 -35 15zM155.5 -267q-12.5 13 -12.5 33t12.5 33t31.5 13t31.5 -13t12.5 -33t-12.5 -33t-31.5 -13t-31.5 13z" />
    <glyph glyph-name="uniFB67" unicode="&#x679;" horiz-adv-x="930" arabic-form="final" 
d="M946 65q4 -9 4 -28t-4 -28t-16 -9h-34q-88 0 -142 45q-44 -45 -144 -45h-349q-101 0 -156 54t-55 149q0 63 25.5 110.5t74.5 85.5l62 -44q-43 -36 -63.5 -72t-20.5 -80q0 -60 36 -94.5t103 -34.5h338q64 0 89 24t25 82v289h78v-290q0 -47 -10 -78q35 -27 90 -27h53
q12 0 16 -9zM330 591h20v138h48v-68q24 27 63 27q34 0 53 -26t21 -71v-50h-205v50zM485 591q-1 23 -10.5 36t-25.5 13q-22 0 -36 -13.5t-15 -35.5h87z" />
    <glyph glyph-name="uniFB68" unicode="&#x679;" horiz-adv-x="270" arabic-form="initial" 
d="M197 469v-469h-197q-12 0 -16 9t-4 28t4 28t16 9h118v395h79zM49 591h20v138h48v-68q24 27 63 27q34 0 53 -26t21 -71v-50h-205v50zM204 591q-1 23 -10.5 36t-25.5 13q-22 0 -36 -13.5t-15 -35.5h87z" />
    <glyph glyph-name="uniFB69" unicode="&#x679;" horiz-adv-x="360" arabic-form="medial" 
d="M376 65q4 -9 4 -28t-4 -28t-16 -9h-37q-87 0 -142 44q-44 -44 -144 -44h-37q-12 0 -16 9t-4 28t4 28t16 9h32q64 0 89.5 24t25.5 82v289h78v-290q0 -47 -10 -78q35 -27 89 -27h56q12 0 16 -9zM77 591h20v138h48v-68q24 27 63 27q34 0 53 -26t21 -71v-50h-205v50zM232 591
q-1 23 -10.5 36t-25.5 13q-22 0 -36 -13.5t-15 -35.5h87z" />
    <glyph glyph-name="uniFB6B" unicode="&#x6a4;" horiz-adv-x="1055" arabic-form="final" 
d="M1071 65q4 -9 4 -28t-4 -28t-16 -9l-804 -1q-101 0 -156 54t-55 149q0 64 25.5 111.5t74.5 85.5l63 -45q-44 -35 -64.5 -71t-20.5 -80q0 -60 36 -95t103 -35h284q-33 34 -50.5 78t-17.5 94q0 75 37 135t101 94.5t140 34.5q89 0 195 -49v-386h109q12 0 16 -9zM585.5 138.5
q34.5 -45.5 93.5 -64.5h189v338q-66 23 -117 23q-57 0 -103 -25t-71.5 -68t-25.5 -96q0 -62 34.5 -107.5zM782.5 780q12.5 -13 12.5 -33t-12.5 -33t-31.5 -13t-31.5 13t-12.5 33t12.5 33t31.5 13t31.5 -13zM723 678q14 -15 14 -36q0 -22 -14 -36t-34 -14q-21 0 -35 14
t-14 36q0 21 14 36t35 15q20 0 34 -15zM850 678q14 -15 14 -36q0 -22 -14 -36t-34 -14q-21 0 -35 14t-14 36q0 21 14 36t35 15q20 0 34 -15z" />
    <glyph glyph-name="uniFB6C" unicode="&#x6a4;" horiz-adv-x="600" arabic-form="initial" 
d="M560 460v-460h-560q-12 0 -16 9t-4 28t4 28t16 9h154q-67 72 -67 171q0 75 37 135t101 94.5t140 34.5q89 0 195 -49zM200.5 137q35.5 -46 95.5 -63h186v338q-64 23 -117 23q-57 0 -103 -25t-71.5 -68t-25.5 -96q0 -63 35.5 -109zM397.5 780q12.5 -13 12.5 -33t-12.5 -33
t-31.5 -13t-31.5 13t-12.5 33t12.5 33t31.5 13t31.5 -13zM338 678q14 -15 14 -36q0 -22 -14 -36t-34 -14q-21 0 -35 14t-14 36q0 21 14 36t35 15q20 0 34 -15zM465 678q14 -15 14 -36q0 -22 -14 -36t-34 -14q-21 0 -35 14t-14 36q0 21 14 36t35 15q20 0 34 -15z" />
    <glyph glyph-name="uniFB6D" unicode="&#x6a4;" horiz-adv-x="673" arabic-form="medial" 
d="M689 65q4 -9 4 -28t-4 -28t-16 -9h-673q-12 0 -16 9t-4 28t4 28t16 9h154q-67 72 -67 171q0 75 37 135t101 94.5t140 34.5q89 0 195 -49v-386h113q12 0 16 -9zM200.5 137q35.5 -46 95.5 -63h186v338q-64 23 -117 23q-57 0 -103 -25t-71.5 -68t-25.5 -96q0 -63 35.5 -109z
M396.5 780q12.5 -13 12.5 -33t-12.5 -33t-31.5 -13t-31.5 13t-12.5 33t12.5 33t31.5 13t31.5 -13zM337 678q14 -15 14 -36q0 -22 -14 -36t-34 -14q-21 0 -35 14t-14 36q0 21 14 36t35 15q20 0 34 -15zM464 678q14 -15 14 -36q0 -22 -14 -36t-34 -14q-21 0 -35 14t-14 36
q0 21 14 36t35 15q20 0 34 -15z" />
    <glyph glyph-name="uniFB7B" unicode="&#x686;" horiz-adv-x="734" arabic-form="final" 
d="M750 65q4 -9 4 -28t-4 -28t-16 -9h-417q-57 0 -102.5 -19.5t-71 -52.5t-25.5 -75q0 -41 26 -74.5t71 -52.5t99 -19q36 0 75.5 8t69.5 21l27 -69q-39 -15 -85 -24.5t-88 -9.5q-75 0 -137.5 29t-99 79.5t-36.5 112.5q0 63 38 113.5t102.5 78.5t142.5 28v-2l1 2h206v175
q0 88 -55 140.5t-147 52.5q-94 0 -168 -56l-36 67q90 63 204 63q82 0 145.5 -34t99 -94.5t35.5 -138.5v-175h126q12 0 16 -9zM309.997 -141.508q-13.2217 14.166 -13.2217 33.998q0 20.7764 13.2217 33.998t33.0547 13.2217q18.8877 0 32.1094 -13.2217t13.2217 -33.998
q0 -19.832 -13.2217 -33.998t-32.1094 -14.166q-19.833 0 -33.0547 14.166zM429.936 -141.508q-13.2217 14.166 -13.2217 33.998q0 20.7764 13.2217 33.998t33.0547 13.2217q18.8877 0 32.1094 -13.2217q13.2207 -13.2217 13.2207 -33.998q0 -19.832 -13.2207 -33.998
q-13.2217 -14.166 -32.1094 -14.166q-19.833 0 -33.0547 14.166zM371.855 -237.837q-11.8047 12.2773 -11.8047 31.165q0 18.8887 11.8047 31.165q11.8047 12.2773 29.748 12.2773q17.9443 0 29.749 -12.2773q11.8047 -12.2764 11.8047 -31.165q0 -18.8877 -11.8047 -31.165
q-11.8047 -12.2764 -29.749 -12.2764q-17.9434 0 -29.748 12.2764z" />
    <glyph glyph-name="uniFB7C" unicode="&#x686;" horiz-adv-x="593" arabic-form="initial" 
d="M543 74l-10 -74h-533q-12 0 -16 9t-4 28t4 28t16 9h431v175q0 88 -55 140.5t-146 52.5q-95 0 -169 -56l-36 67q91 63 205 63q82 0 145 -34t98.5 -94.5t35.5 -138.5v-175h34zM136 -165q-14 15 -14 36q0 22 14 36t35 14q20 0 34 -14t14 -36q0 -21 -14 -36t-34 -15
q-21 0 -35 15zM263 -165q-14 15 -14 36q0 22 14 36t35 14q20 0 34 -14t14 -36q0 -21 -14 -36t-34 -15q-21 0 -35 15zM201.5 -267q-12.5 13 -12.5 33t12.5 33t31.5 13t31.5 -13t12.5 -33t-12.5 -33t-31.5 -13t-31.5 13z" />
    <glyph glyph-name="uniFB7D" unicode="&#x686;" horiz-adv-x="654" arabic-form="medial" 
d="M670 65q4 -9 4 -28t-4 -28t-16 -9h-654q-12 0 -16 9t-4 28t4 28t16 9h431v175q0 88 -55 140.5t-146 52.5q-95 0 -169 -56l-36 67q91 63 205 63q82 0 145 -34t98.5 -94.5t35.5 -138.5v-175h145q12 0 16 -9zM136 -165q-14 15 -14 36q0 22 14 36t35 14q20 0 34 -14t14 -36
q0 -21 -14 -36t-34 -15q-21 0 -35 15zM263 -165q-14 15 -14 36q0 22 14 36t35 14q20 0 34 -14t14 -36q0 -21 -14 -36t-34 -15q-21 0 -35 15zM201.5 -267q-12.5 13 -12.5 33t12.5 33t31.5 13t31.5 -13t12.5 -33t-12.5 -33t-31.5 -13t-31.5 13z" />
    <glyph glyph-name="uniFB89" unicode="&#x688;" horiz-adv-x="717" arabic-form="final" 
d="M733 65q4 -9 4 -28t-4 -28t-16 -9h-60q-52 0 -86 11.5t-57 34.5q-126 -46 -284 -46q-101 0 -190 20v76q89 -22 191 -22q133 0 243 37q-9 21 -21 58l-129 377l74 23l128 -377q19 -56 31.5 -78.5t33.5 -30.5t66 -8h60v-1q12 0 16 -9zM223 665h20v138h48v-68q24 27 63 27
q34 0 53 -26t21 -71v-50h-205v50zM378 665q-1 23 -10.5 36t-25.5 13q-22 0 -36 -13.5t-15 -35.5h87z" />
    <glyph glyph-name="uniFB8B" unicode="&#x698;" horiz-adv-x="285" arabic-form="final" 
d="M301 65q4 -9 4 -28t-4 -28t-16 -9h-101v-12q0 -100 -51.5 -155t-143.5 -56l-13 75q67 -3 98.5 30t31.5 106v481h78v-395h101q12 0 16 -9zM177.5 728q12.5 -13 12.5 -33t-12.5 -33t-31.5 -13t-31.5 13t-12.5 33t12.5 33t31.5 13t31.5 -13zM118 626q14 -15 14 -36
q0 -22 -14 -36t-34 -14q-21 0 -35 14t-14 36q0 21 14 36t35 15q20 0 34 -15zM245 626q14 -15 14 -36q0 -22 -14 -36t-34 -14q-21 0 -35 14t-14 36q0 21 14 36t35 15q20 0 34 -15z" />
    <glyph glyph-name="uniFB8D" unicode="&#x691;" horiz-adv-x="285" arabic-form="final" 
d="M301 65q4 -9 4 -28t-4 -28t-16 -9h-101v-12q0 -100 -51.5 -155t-143.5 -56l-13 75q67 -3 98.5 30t31.5 106v481h78v-395h101q12 0 16 -9zM36 591h20v138h48v-68q24 27 63 27q34 0 53 -26t21 -71v-50h-205v50zM191 591q-1 23 -10.5 36t-25.5 13q-22 0 -36 -13.5t-15 -35.5
h87z" />
    <glyph glyph-name="uniFB8F" unicode="&#x6a9;" horiz-adv-x="852" arabic-form="final" 
d="M868 65q4 -9 4 -28t-4 -28t-16 -9l-601 -1q-101 0 -156 54t-55 149q0 64 25.5 111.5t74.5 85.5l63 -45q-44 -35 -64.5 -71t-20.5 -80q0 -60 36 -95t103 -35h86q2 1 6 1h314v22q0 133 -57 208t-155 75l-50 52l262 262l48 -53l-192 -192q67 -16 117 -64.5t77.5 -124
t27.5 -169.5v-16h111q12 0 16 -9z" />
    <glyph glyph-name="uniFB90" unicode="&#x6a9;" horiz-adv-x="466" arabic-form="initial" 
d="M287 383.5q50 -48.5 77.5 -124t27.5 -169.5v-90h-392q-12 0 -16 9t-4 28t4 28t16 9h314v22q0 133 -57 208t-155 75l-50 52l262 262l48 -53l-192 -192q67 -16 117 -64.5z" />
    <glyph glyph-name="uniFB91" unicode="&#x6a9;" horiz-adv-x="503" arabic-form="medial" 
d="M519 65q4 -9 4 -28t-4 -28t-16 -9h-503q-12 0 -16 9t-4 28t4 28t16 9h314v22q0 133 -57 208t-155 75l-50 52l262 262l48 -53l-192 -192q67 -16 117 -64.5t77.5 -124t27.5 -169.5v-16h111q12 0 16 -9z" />
    <glyph glyph-name="uniFB93" unicode="&#x6af;" horiz-adv-x="852" arabic-form="final" 
d="M382 487l-49 52l246 248l48 -54zM868 65q4 -9 4 -28t-4 -28t-16 -9l-601 -1q-101 0 -156 54t-55 149q0 64 25.5 111.5t74.5 85.5l63 -45q-44 -35 -64.5 -71t-20.5 -80q0 -60 36 -95t103 -35h86q2 1 6 1h314v22q0 133 -57 208t-155 75l-50 52l262 262l48 -53l-192 -192
q67 -16 117 -64.5t77.5 -124t27.5 -169.5v-16h111q12 0 16 -9z" />
    <glyph glyph-name="uniFB94" unicode="&#x6af;" horiz-adv-x="472" arabic-form="initial" 
d="M33 487l-50 52l246 247l49 -53zM287 383.5q50 -48.5 77.5 -124t27.5 -169.5v-90h-392q-12 0 -16 9t-4 28t4 28t16 9h314v22q0 133 -57 208t-155 75l-50 52l262 262l48 -53l-192 -192q67 -16 117 -64.5z" />
    <glyph glyph-name="uniFB95" unicode="&#x6af;" horiz-adv-x="503" arabic-form="medial" 
d="M33 487l-50 52l246 247l49 -53zM519 65q4 -9 4 -28t-4 -28t-16 -9h-503q-12 0 -16 9t-4 28t4 28t16 9h314v22q0 133 -57 208t-155 75l-50 52l262 262l48 -53l-192 -192q67 -16 117 -64.5t77.5 -124t27.5 -169.5v-16h111q12 0 16 -9z" />
    <glyph glyph-name="uniFB9F" unicode="&#x6ba;" horiz-adv-x="765" arabic-form="final" 
d="M781 65q4 -9 4 -28t-4 -28t-16 -9h-17q-75 0 -125 32q-23 -107 -98 -173t-190 -66q-91 0 -157.5 43t-102 115.5t-35.5 161.5q0 74 24 161l71 -36q-17 -66 -17 -127q0 -71 27 -126.5t76 -86.5t114 -31t114.5 30.5t76.5 86.5t27 128q0 49 -11.5 105.5t-30.5 100.5l68 38
q24 -51 38 -117t14 -124v-7q36 -34 98 -34h36q12 0 16 -9z" />
    <glyph glyph-name="uniFBA7" unicode="&#x6c1;" horiz-adv-x="759" arabic-form="final" 
d="M775 65q4 -9 4 -28t-4 -28t-16 -9h-50q-44 0 -80 22t-63.5 54t-65.5 86q-36 51 -61.5 81t-57.5 50t-70 20q-60 0 -103.5 -50.5t-66.5 -133t-23 -176.5h-78q0 128 34.5 226.5t96.5 153t143 54.5q59 0 107 -28t81.5 -67t77.5 -101q44 -61 71 -89t58 -28h50q12 0 16 -9z" />
    <glyph glyph-name="uniFBA8" unicode="&#x6c1;" horiz-adv-x="270" arabic-form="initial" 
d="M185 0l-35 -101q25 -13 25 -43q0 -22 -13.5 -36t-33.5 -14t-34 13.5t-14 36.5q0 13 6 26t7 16l47 102h-140q-12 0 -16 9t-4 28t4 28t16 9h118v395h79v-469h-12z" />
    <glyph glyph-name="uniFBA9" unicode="&#x6c1;" horiz-adv-x="522" arabic-form="medial" 
d="M538 65q4 -9 4 -28t-4 -28t-16 -9h-28q-62 0 -106.5 -42.5t-67.5 -123t-22 -193.5q-102 39 -149 94.5t-47 141.5q0 62 20 123h-122q-12 0 -16 9t-4 28t4 28t16 9h236q-56 -109 -56 -199q0 -65 48 -101q19 139 87 219.5t179 80.5h28q12 0 16 -9z" />
    <glyph glyph-name="uniFBAB" unicode="&#x6be;" horiz-adv-x="853" arabic-form="final" 
d="M869 65q4 -9 4 -28t-4 -28t-16 -9h-687q-52 0 -79.5 -14.5t-38 -42.5t-12.5 -76h-30q0 54 5.5 92t40.5 76.5t114 38.5h26q-14 41 -21.5 86t-7.5 85q0 77 28 138.5t76 95.5q-38 11 -79 21l19 71q130 -33 198 -54t126 -48q78 -36 125.5 -78.5t70 -102.5t19.5 -146l-3 -68
h110q12 0 16 -9zM250.5 157.5q9.5 -46.5 24.5 -83.5h215v181q0 52 -15.5 93.5t-43 65.5t-61.5 24t-63.5 -24t-47.5 -68t-18 -99q0 -43 9.5 -89.5zM643.5 284.5q-27.5 53.5 -97.5 93.5q22 -57 22 -123v-181h97l2 70q4 87 -23.5 140.5z" />
    <glyph glyph-name="uniFBAC" unicode="&#x6be;" horiz-adv-x="725" arabic-form="initial" 
d="M571.5 391q47.5 -42 70 -102.5t19.5 -146.5l-6 -142h-655q-12 0 -16 9t-4 28t4 28t16 9h107q-14 41 -21.5 86t-7.5 85q0 77 28 138.5t76 95.5q-38 11 -79 21l20 71q129 -33 197 -54t126 -48q78 -36 125.5 -78zM165.5 157.5q9.5 -46.5 24.5 -83.5h215v181q0 52 -15.5 93.5
t-43 65.5t-61.5 24t-63.5 -24t-47.5 -68t-18 -99q0 -43 9.5 -89.5zM558.5 284.5q-27.5 53.5 -97.5 93.5q22 -57 22 -123v-181h97l3 70q3 87 -24.5 140.5z" />
    <glyph glyph-name="uniFBAD" unicode="&#x6be;" horiz-adv-x="769" arabic-form="medial" 
d="M785 65q4 -9 4 -28t-4 -28t-16 -9h-769q-12 0 -16 9t-4 28t4 28t16 9h107q-14 41 -21.5 86t-7.5 85q0 77 28 138.5t76 95.5q-38 11 -79 21l20 71q129 -33 197 -54t126 -48q78 -36 125.5 -78t70 -102.5t19.5 -146.5l-3 -68h111q12 0 16 -9zM165.5 157.5
q9.5 -46.5 24.5 -83.5h215v181q0 52 -15.5 93.5t-43 65.5t-61.5 24t-63.5 -24t-47.5 -68t-18 -99q0 -43 9.5 -89.5zM558.5 284.5q-27.5 53.5 -97.5 93.5q22 -57 22 -123v-181h97l3 70q3 87 -24.5 140.5z" />
    <glyph glyph-name="uniFBAF" unicode="&#x6d2;" horiz-adv-x="1054" arabic-form="final" 
d="M844 -267q124 13 213 33l17 -72q-92 -20 -220 -34t-246 -14q-164 0 -293 26.5t-202 75t-73 112.5q0 65 75 113.5t209.5 74.5t307.5 26h425q12 0 16 -9t4 -28t-4 -28t-16 -9h-425q-141 0 -259 -19.5t-186.5 -51.5t-68.5 -69t66.5 -69t179.5 -51.5t245 -19.5q111 0 235 13z
" />
    <glyph glyph-name="uniFBB1" unicode="&#x6d3;" horiz-adv-x="1054" arabic-form="final" 
d="M844 -267q124 13 213 33l17 -72q-92 -20 -220 -34t-246 -14q-164 0 -293 26.5t-202 75t-73 112.5q0 65 75 113.5t209.5 74.5t307.5 26h425q12 0 16 -9t4 -28t-4 -28t-16 -9h-425q-141 0 -259 -19.5t-186.5 -51.5t-68.5 -69t66.5 -69t179.5 -51.5t245 -19.5q111 0 235 13z
M259 194v-51h-180v51h20q-11 19 -11 40q0 35 26.5 57t68.5 22q18 0 36.5 -4t31.5 -11l-22 -45q-7 4 -20.5 6.5t-24.5 2.5q-22 0 -35 -9.5t-13 -23.5q0 -13 10.5 -23.5t25.5 -11.5h87z" />
    <glyph glyph-name="uniFBFD" unicode="&#x6cc;" horiz-adv-x="876" arabic-form="final" 
d="M892 65q4 -9 4 -28t-4 -28t-16 -9h-56q2 -16 2 -26q0 -99 -91.5 -149.5t-291.5 -50.5q-195 0 -297 56t-102 193q0 30 4.5 72.5t13.5 80.5l76 -17q-7 -29 -11.5 -67.5t-4.5 -66.5q0 -65 31.5 -103.5t101 -56t188.5 -17.5q158 0 227 29.5t69 90.5q0 17 -6 32h-10
q-110 0 -167 55l54 54q19 -18 45.5 -26.5t67.5 -8.5h157q12 0 16 -9z" />
    <glyph glyph-name="uniFBFE" unicode="&#x6cc;" horiz-adv-x="270" arabic-form="initial" 
d="M197 469v-469h-197q-12 0 -16 9t-4 28t4 28t16 9h118v395h79zM188.172 -165.115q-13.6748 14.6191 -13.6748 36.3105t13.6748 35.8379q13.6758 14.1465 34.4238 14.1465q20.749 0 34.4238 -14.1465q13.6758 -14.1465 13.6758 -35.8379t-13.6758 -36.3105
q-13.6748 -14.6182 -34.4238 -14.6182q-20.748 0 -34.4238 14.6182zM61.1719 -165.115q-13.6748 14.6191 -13.6748 36.3105t13.6748 35.8379q13.6758 14.1465 34.4238 14.1465q20.749 0 34.4238 -14.1465q13.6758 -14.1465 13.6758 -35.8379t-13.6758 -36.3105
q-13.6748 -14.6182 -34.4238 -14.6182q-20.748 0 -34.4238 14.6182z" />
    <glyph glyph-name="uniFBFF" unicode="&#x6cc;" horiz-adv-x="360" arabic-form="medial" 
d="M376 65q4 -9 4 -28t-4 -28t-16 -9h-37q-87 0 -142 44q-44 -44 -144 -44h-37q-12 0 -16 9t-4 28t4 28t16 9h32q64 0 89.5 24t25.5 82v289h78v-290q0 -47 -10 -78q35 -27 89 -27h56q12 0 16 -9zM216.172 -165.115q-13.6748 14.6191 -13.6748 36.3105t13.6748 35.8379
q13.6758 14.1465 34.4238 14.1465q20.749 0 34.4238 -14.1465q13.6758 -14.1465 13.6758 -35.8379t-13.6758 -36.3105q-13.6748 -14.6182 -34.4238 -14.6182q-20.748 0 -34.4238 14.6182zM89.1719 -165.115q-13.6748 14.6191 -13.6748 36.3105t13.6748 35.8379
q13.6758 14.1465 34.4238 14.1465q20.749 0 34.4238 -14.1465q13.6758 -14.1465 13.6758 -35.8379t-13.6758 -36.3105q-13.6748 -14.6182 -34.4238 -14.6182q-20.748 0 -34.4238 14.6182z" />
    <glyph glyph-name="uniFCCC" unicode="&#xfccc;" horiz-adv-x="380" arabic-form="initial" 
d="M295 -10l-45 -65q-29 29 -50 44t-54 23t-88 8h-58q-12 0 -16 9t-4 28t4 28t16 9h68q40 0 90 -9q-17 48 -17 117v551h78v-541q0 -138 76 -202z" />
    <glyph glyph-name="uniFE82" unicode="&#x622;" horiz-adv-x="275" arabic-form="final" 
d="M291 65q4 -9 4 -28t-4 -28t-16 -9h-185v733h78v-659h107q12 0 16 -9zM161.5 783q-17.5 7 -40.5 21q-17 11 -30 16.5t-26 5.5q-19 0 -28 -13t-9 -34h-47q0 45 19.5 73t58.5 28q21 0 38 -7t42 -21q18 -11 30 -16.5t25 -5.5q19 0 28 12.5t9 33.5h47q0 -45 -19.5 -72.5
t-58.5 -27.5q-21 0 -38.5 7z" />
    <glyph glyph-name="uniFE84" unicode="&#x623;" horiz-adv-x="275" arabic-form="final" 
d="M291 65q4 -9 4 -28t-4 -28t-16 -9h-185v733h78v-659h107q12 0 16 -9zM218 826v-51h-180v51h20q-11 19 -11 40q0 35 26.5 57t68.5 22q18 0 36.5 -4t31.5 -11l-22 -45q-7 4 -20.5 6.5t-24.5 2.5q-22 0 -35 -9.5t-13 -23.5q0 -13 10.5 -23.5t25.5 -11.5h87z" />
    <glyph glyph-name="uniFE86" unicode="&#x624;" horiz-adv-x="621" arabic-form="final" 
d="M637 65q4 -9 4 -28t-4 -28t-16 -9h-106v-12q0 -100 -51.5 -155t-143.5 -56l-13 75q67 -3 98.5 30t31.5 106v12h-126q-74 0 -136 34t-98.5 92.5t-36.5 128.5t36.5 128t98.5 92t136 34q47 0 99 -15t99 -41l6 -2v-377h106q12 0 16 -9zM437 74v331q-71 30 -124 30
q-56 0 -100.5 -24.5t-69.5 -65.5t-25 -90t25 -90.5t69.5 -66t100.5 -24.5h124zM379 644v-51h-180v51h20q-11 19 -11 40q0 35 26.5 57t68.5 22q18 0 36.5 -4t31.5 -11l-22 -45q-7 4 -20.5 6.5t-24.5 2.5q-22 0 -35 -9.5t-13 -23.5q0 -13 10.5 -23.5t25.5 -11.5h87z" />
    <glyph glyph-name="uniFE88" unicode="&#x625;" horiz-adv-x="275" arabic-form="final" 
d="M291 65q4 -9 4 -28t-4 -28t-16 -9h-185v733h78v-659h107q12 0 16 -9zM218 -169v-50h-180v50h20q-11 19 -11 40q0 35 26.5 57t68.5 22q18 0 36.5 -4t31.5 -10l-22 -46q-7 4 -20 7t-25 3q-22 0 -35 -10t-13 -24q0 -12 10.5 -23t25.5 -12h87z" />
    <glyph glyph-name="uniFE8A" unicode="&#x626;" horiz-adv-x="876" arabic-form="final" 
d="M892 65q4 -9 4 -28t-4 -28t-16 -9h-56q2 -16 2 -26q0 -99 -91.5 -149.5t-291.5 -50.5q-195 0 -297 56t-102 193q0 30 4.5 72.5t13.5 80.5l76 -17q-7 -29 -11.5 -67.5t-4.5 -66.5q0 -65 31.5 -103.5t101 -56t188.5 -17.5q158 0 227 29.5t69 90.5q0 17 -6 32h-10
q-110 0 -167 55l54 54q19 -18 45.5 -26.5t67.5 -8.5h157q12 0 16 -9zM189 327v-51h-180v51h20q-11 19 -11 40q0 35 26.5 57t68.5 22q18 0 36.5 -4t31.5 -11l-22 -45q-7 4 -20.5 6.5t-24.5 2.5q-22 0 -35 -9.5t-13 -23.5q0 -13 10.5 -23.5t25.5 -11.5h87z" />
    <glyph glyph-name="uniFE8B" unicode="&#x626;" horiz-adv-x="270" arabic-form="initial" 
d="M197 469v-469h-197q-12 0 -16 9t-4 28t4 28t16 9h118v395h79zM247 592v-51h-180v51h20q-11 19 -11 40q0 35 26.5 57t68.5 22q18 0 36.5 -4t31.5 -11l-22 -45q-7 4 -20.5 6.5t-24.5 2.5q-22 0 -35 -9.5t-13 -23.5q0 -13 10.5 -23.5t25.5 -11.5h87z" />
    <glyph glyph-name="uniFE8C" unicode="&#x626;" horiz-adv-x="360" arabic-form="medial" 
d="M376 65q4 -9 4 -28t-4 -28t-16 -9h-37q-87 0 -142 44q-44 -44 -144 -44h-37q-12 0 -16 9t-4 28t4 28t16 9h32q64 0 89.5 24t25.5 82v289h78v-290q0 -47 -10 -78q35 -27 89 -27h56q12 0 16 -9zM275 592v-51h-180v51h20q-11 19 -11 40q0 35 26.5 57t68.5 22q18 0 36.5 -4
t31.5 -11l-22 -45q-7 4 -20.5 6.5t-24.5 2.5q-22 0 -35 -9.5t-13 -23.5q0 -13 10.5 -23.5t25.5 -11.5h87z" />
    <glyph glyph-name="uniFE8E" unicode="&#x627;" horiz-adv-x="275" arabic-form="final" 
d="M291 65q4 -9 4 -28t-4 -28t-16 -9h-185v733h78v-659h107q12 0 16 -9z" />
    <glyph glyph-name="uniFE90" unicode="&#x628;" horiz-adv-x="930" arabic-form="final" 
d="M946 65q4 -9 4 -28t-4 -28t-16 -9h-34q-88 0 -142 45q-44 -45 -144 -45h-349q-101 0 -156 54t-55 149q0 63 25.5 110.5t74.5 85.5l62 -44q-43 -36 -63.5 -72t-20.5 -80q0 -60 36 -94.5t103 -34.5h338q64 0 89 24t25 82v289h78v-290q0 -47 -10 -78q35 -27 90 -27h53
q12 0 16 -9zM396.5 -171.5q-14.5 15.5 -14.5 38.5t14.5 38t36.5 15t36.5 -15t14.5 -38t-14.5 -38.5t-36.5 -15.5t-36.5 15.5z" />
    <glyph glyph-name="uniFE91" unicode="&#x628;" horiz-adv-x="270" arabic-form="initial" 
d="M197 469v-469h-197q-12 0 -16 9t-4 28t4 28t16 9h118v395h79zM115.5 -171.5q-14.5 15.5 -14.5 38.5t14.5 38t36.5 15t36.5 -15t14.5 -38t-14.5 -38.5t-36.5 -15.5t-36.5 15.5z" />
    <glyph glyph-name="uniFE92" unicode="&#x628;" horiz-adv-x="360" arabic-form="medial" 
d="M376 65q4 -9 4 -28t-4 -28t-16 -9h-37q-87 0 -142 44q-44 -44 -144 -44h-37q-12 0 -16 9t-4 28t4 28t16 9h32q64 0 89.5 24t25.5 82v289h78v-290q0 -47 -10 -78q35 -27 89 -27h56q12 0 16 -9zM143.5 -171.5q-14.5 15.5 -14.5 38.5t14.5 38t36.5 15t36.5 -15t14.5 -38
t-14.5 -38.5t-36.5 -15.5t-36.5 15.5z" />
    <glyph glyph-name="uniFE94" unicode="&#x629;" horiz-adv-x="620" arabic-form="final" 
d="M636 65q4 -9 4 -28t-4 -28t-16 -9h-15q-61 0 -98.5 16.5t-56.5 51.5q-36 -17 -76.5 -26.5t-78.5 -9.5q-70 0 -128.5 32t-92.5 87t-34 121t34.5 121t93 87t128.5 32h133v26h78v-358q0 -40 8 -62.5t30 -33t65 -10.5h10q12 0 16 -9zM431 142q-2 22 -2 37v259h-133
q-49 0 -90 -22t-64.5 -60t-23.5 -84t23.5 -84t64.5 -60t91 -22q63 0 134 36zM327.172 596.885q-13.6748 14.6191 -13.6748 36.3105t13.6748 35.8379q13.6758 14.1465 34.4238 14.1465q20.749 0 34.4238 -14.1465q13.6758 -14.1465 13.6758 -35.8379t-13.6758 -36.3105
q-13.6748 -14.6182 -34.4238 -14.6182q-20.748 0 -34.4238 14.6182zM200.172 596.885q-13.6748 14.6191 -13.6748 36.3105t13.6748 35.8379q13.6758 14.1465 34.4238 14.1465q20.749 0 34.4238 -14.1465q13.6758 -14.1465 13.6758 -35.8379t-13.6758 -36.3105
q-13.6748 -14.6182 -34.4238 -14.6182q-20.748 0 -34.4238 14.6182z" />
    <glyph glyph-name="uniFE96" unicode="&#x62a;" horiz-adv-x="930" arabic-form="final" 
d="M946 65q4 -9 4 -28t-4 -28t-16 -9h-34q-88 0 -142 45q-44 -45 -144 -45h-349q-101 0 -156 54t-55 149q0 63 25.5 110.5t74.5 85.5l62 -44q-43 -36 -63.5 -72t-20.5 -80q0 -60 36 -94.5t103 -34.5h338q64 0 89 24t25 82v289h78v-290q0 -47 -10 -78q35 -27 90 -27h53
q12 0 16 -9zM469.172 554.885q-13.6748 14.6191 -13.6748 36.3105t13.6748 35.8379q13.6758 14.1465 34.4238 14.1465q20.749 0 34.4238 -14.1465q13.6758 -14.1465 13.6758 -35.8379t-13.6758 -36.3105q-13.6748 -14.6182 -34.4238 -14.6182q-20.748 0 -34.4238 14.6182z
M342.172 554.885q-13.6748 14.6191 -13.6748 36.3105t13.6748 35.8379q13.6758 14.1465 34.4238 14.1465q20.749 0 34.4238 -14.1465q13.6758 -14.1465 13.6758 -35.8379t-13.6758 -36.3105q-13.6748 -14.6182 -34.4238 -14.6182q-20.748 0 -34.4238 14.6182z" />
    <glyph glyph-name="uniFE97" unicode="&#x62a;" horiz-adv-x="270" arabic-form="initial" 
d="M197 469v-469h-197q-12 0 -16 9t-4 28t4 28t16 9h118v395h79zM188.172 554.885q-13.6748 14.6191 -13.6748 36.3105t13.6748 35.8379q13.6758 14.1465 34.4238 14.1465q20.749 0 34.4238 -14.1465q13.6758 -14.1465 13.6758 -35.8379t-13.6758 -36.3105
q-13.6748 -14.6182 -34.4238 -14.6182q-20.748 0 -34.4238 14.6182zM61.1719 554.885q-13.6748 14.6191 -13.6748 36.3105t13.6748 35.8379q13.6758 14.1465 34.4238 14.1465q20.749 0 34.4238 -14.1465q13.6758 -14.1465 13.6758 -35.8379t-13.6758 -36.3105
q-13.6748 -14.6182 -34.4238 -14.6182q-20.748 0 -34.4238 14.6182z" />
    <glyph glyph-name="uniFE98" unicode="&#x62a;" horiz-adv-x="360" arabic-form="medial" 
d="M376 65q4 -9 4 -28t-4 -28t-16 -9h-37q-87 0 -142 44q-44 -44 -144 -44h-37q-12 0 -16 9t-4 28t4 28t16 9h32q64 0 89.5 24t25.5 82v289h78v-290q0 -47 -10 -78q35 -27 89 -27h56q12 0 16 -9zM216.172 554.885q-13.6748 14.6191 -13.6748 36.3105t13.6748 35.8379
q13.6758 14.1465 34.4238 14.1465q20.749 0 34.4238 -14.1465q13.6758 -14.1465 13.6758 -35.8379t-13.6758 -36.3105q-13.6748 -14.6182 -34.4238 -14.6182q-20.748 0 -34.4238 14.6182zM89.1719 554.885q-13.6748 14.6191 -13.6748 36.3105t13.6748 35.8379
q13.6758 14.1465 34.4238 14.1465q20.749 0 34.4238 -14.1465q13.6758 -14.1465 13.6758 -35.8379t-13.6758 -36.3105q-13.6748 -14.6182 -34.4238 -14.6182q-20.748 0 -34.4238 14.6182z" />
    <glyph glyph-name="uniFE9A" unicode="&#x62b;" horiz-adv-x="930" arabic-form="final" 
d="M946 65q4 -9 4 -28t-4 -28t-16 -9h-34q-88 0 -142 45q-44 -45 -144 -45h-349q-101 0 -156 54t-55 149q0 63 25.5 110.5t74.5 85.5l62 -44q-43 -36 -63.5 -72t-20.5 -80q0 -60 36 -94.5t103 -34.5h338q64 0 89 24t25 82v289h78v-290q0 -47 -10 -78q35 -27 90 -27h53
q12 0 16 -9zM471.5 728q12.5 -13 12.5 -33t-12.5 -33t-31.5 -13t-31.5 13t-12.5 33t12.5 33t31.5 13t31.5 -13zM412 626q14 -15 14 -36q0 -22 -14 -36t-34 -14q-21 0 -35 14t-14 36q0 21 14 36t35 15q20 0 34 -15zM539 626q14 -15 14 -36q0 -22 -14 -36t-34 -14
q-21 0 -35 14t-14 36q0 21 14 36t35 15q20 0 34 -15z" />
    <glyph glyph-name="uniFE9B" unicode="&#x62b;" horiz-adv-x="270" arabic-form="initial" 
d="M197 469v-469h-197q-12 0 -16 9t-4 28t4 28t16 9h118v395h79zM190.5 728q12.5 -13 12.5 -33t-12.5 -33t-31.5 -13t-31.5 13t-12.5 33t12.5 33t31.5 13t31.5 -13zM131 626q14 -15 14 -36q0 -22 -14 -36t-34 -14q-21 0 -35 14t-14 36q0 21 14 36t35 15q20 0 34 -15z
M258 626q14 -15 14 -36q0 -22 -14 -36t-34 -14q-21 0 -35 14t-14 36q0 21 14 36t35 15q20 0 34 -15z" />
    <glyph glyph-name="uniFE9C" unicode="&#x62b;" horiz-adv-x="360" arabic-form="medial" 
d="M376 65q4 -9 4 -28t-4 -28t-16 -9h-37q-87 0 -142 44q-44 -44 -144 -44h-37q-12 0 -16 9t-4 28t4 28t16 9h32q64 0 89.5 24t25.5 82v289h78v-290q0 -47 -10 -78q35 -27 89 -27h56q12 0 16 -9zM218.5 728q12.5 -13 12.5 -33t-12.5 -33t-31.5 -13t-31.5 13t-12.5 33
t12.5 33t31.5 13t31.5 -13zM159 626q14 -15 14 -36q0 -22 -14 -36t-34 -14q-21 0 -35 14t-14 36q0 21 14 36t35 15q20 0 34 -15zM286 626q14 -15 14 -36q0 -22 -14 -36t-34 -14q-21 0 -35 14t-14 36q0 21 14 36t35 15q20 0 34 -15z" />
    <glyph glyph-name="uniFE9E" unicode="&#x62c;" horiz-adv-x="734" arabic-form="final" 
d="M750 65q4 -9 4 -28t-4 -28t-16 -9h-417q-57 0 -102.5 -19.5t-71 -52.5t-25.5 -75q0 -41 26 -74.5t71 -52.5t99 -19q36 0 75.5 8t69.5 21l27 -69q-39 -15 -85 -24.5t-88 -9.5q-75 0 -137.5 29t-99 79.5t-36.5 112.5q0 63 38 113.5t102.5 78.5t142.5 28v-2l1 2h206v175
q0 88 -55 140.5t-147 52.5q-94 0 -168 -56l-36 67q90 63 204 63q82 0 145.5 -34t99 -94.5t35.5 -138.5v-175h126q12 0 16 -9zM363.5 -182.5q-14.5 15.5 -14.5 38.5t14.5 38t36.5 15t36.5 -15t14.5 -38t-14.5 -38.5t-36.5 -15.5t-36.5 15.5z" />
    <glyph glyph-name="uniFE9F" unicode="&#x62c;" horiz-adv-x="593" arabic-form="initial" 
d="M543 74l-10 -74h-533q-12 0 -16 9t-4 28t4 28t16 9h431v175q0 88 -55 140.5t-146 52.5q-95 0 -169 -56l-36 67q91 63 205 63q82 0 145 -34t98.5 -94.5t35.5 -138.5v-175h34zM189.5 -171.5q-14.5 15.5 -14.5 38.5t14.5 38t36.5 15t36.5 -15t14.5 -38t-14.5 -38.5
t-36.5 -15.5t-36.5 15.5z" />
    <glyph glyph-name="uniFEA0" unicode="&#x62c;" horiz-adv-x="654" arabic-form="medial" 
d="M670 65q4 -9 4 -28t-4 -28t-16 -9h-654q-12 0 -16 9t-4 28t4 28t16 9h431v175q0 88 -55 140.5t-146 52.5q-95 0 -169 -56l-36 67q91 63 205 63q82 0 145 -34t98.5 -94.5t35.5 -138.5v-175h145q12 0 16 -9zM189.5 -171.5q-14.5 15.5 -14.5 38.5t14.5 38t36.5 15t36.5 -15
t14.5 -38t-14.5 -38.5t-36.5 -15.5t-36.5 15.5z" />
    <glyph glyph-name="uniFEA2" unicode="&#x62d;" horiz-adv-x="734" arabic-form="final" 
d="M750 65q4 -9 4 -28t-4 -28t-16 -9h-417q-57 0 -102.5 -19.5t-71 -52.5t-25.5 -75q0 -41 26 -74.5t71 -52.5t99 -19q36 0 75.5 8t69.5 21l27 -69q-39 -15 -85 -24.5t-88 -9.5q-75 0 -137.5 29t-99 79.5t-36.5 112.5q0 63 38 113.5t102.5 78.5t142.5 28v-2l1 2h206v175
q0 88 -55 140.5t-147 52.5q-94 0 -168 -56l-36 67q90 63 204 63q82 0 145.5 -34t99 -94.5t35.5 -138.5v-175h126q12 0 16 -9z" />
    <glyph glyph-name="uniFEA3" unicode="&#x62d;" horiz-adv-x="593" arabic-form="initial" 
d="M543 74l-10 -74h-533q-12 0 -16 9t-4 28t4 28t16 9h431v175q0 88 -55 140.5t-146 52.5q-95 0 -169 -56l-36 67q91 63 205 63q82 0 145 -34t98.5 -94.5t35.5 -138.5v-175h34z" />
    <glyph glyph-name="uniFEA4" unicode="&#x62d;" horiz-adv-x="654" arabic-form="medial" 
d="M670 65q4 -9 4 -28t-4 -28t-16 -9h-654q-12 0 -16 9t-4 28t4 28t16 9h431v175q0 88 -55 140.5t-146 52.5q-95 0 -169 -56l-36 67q91 63 205 63q82 0 145 -34t98.5 -94.5t35.5 -138.5v-175h145q12 0 16 -9z" />
    <glyph glyph-name="uniFEA6" unicode="&#x62e;" horiz-adv-x="734" arabic-form="final" 
d="M750 65q4 -9 4 -28t-4 -28t-16 -9h-417q-57 0 -102.5 -19.5t-71 -52.5t-25.5 -75q0 -41 26 -74.5t71 -52.5t99 -19q36 0 75.5 8t69.5 21l27 -69q-39 -15 -85 -24.5t-88 -9.5q-75 0 -137.5 29t-99 79.5t-36.5 112.5q0 63 38 113.5t102.5 78.5t142.5 28v-2l1 2h206v175
q0 88 -55 140.5t-147 52.5q-94 0 -168 -56l-36 67q90 63 204 63q82 0 145.5 -34t99 -94.5t35.5 -138.5v-175h126q12 0 16 -9zM285.5 618.5q-14.5 15.5 -14.5 38.5t14.5 38t36.5 15t36.5 -15t14.5 -38t-14.5 -38.5t-36.5 -15.5t-36.5 15.5z" />
    <glyph glyph-name="uniFEA7" unicode="&#x62e;" horiz-adv-x="593" arabic-form="initial" 
d="M543 74l-10 -74h-533q-12 0 -16 9t-4 28t4 28t16 9h431v175q0 88 -55 140.5t-146 52.5q-95 0 -169 -56l-36 67q91 63 205 63q82 0 145 -34t98.5 -94.5t35.5 -138.5v-175h34zM195.5 618.5q-14.5 15.5 -14.5 38.5t14.5 38t36.5 15t36.5 -15t14.5 -38t-14.5 -38.5
t-36.5 -15.5t-36.5 15.5z" />
    <glyph glyph-name="uniFEA8" unicode="&#x62e;" horiz-adv-x="654" arabic-form="medial" 
d="M670 65q4 -9 4 -28t-4 -28t-16 -9h-654q-12 0 -16 9t-4 28t4 28t16 9h431v175q0 88 -55 140.5t-146 52.5q-95 0 -169 -56l-36 67q91 63 205 63q82 0 145 -34t98.5 -94.5t35.5 -138.5v-175h145q12 0 16 -9zM195.5 618.5q-14.5 15.5 -14.5 38.5t14.5 38t36.5 15t36.5 -15
t14.5 -38t-14.5 -38.5t-36.5 -15.5t-36.5 15.5z" />
    <glyph glyph-name="uniFEAA" unicode="&#x62f;" horiz-adv-x="717" arabic-form="final" 
d="M733 65q4 -9 4 -28t-4 -28t-16 -9h-60q-52 0 -86 11.5t-57 34.5q-126 -46 -284 -46q-101 0 -190 20v76q89 -22 191 -22q133 0 243 37q-9 21 -21 58l-129 377l74 23l128 -377q19 -56 31.5 -78.5t33.5 -30.5t66 -8h60v-1q12 0 16 -9z" />
    <glyph glyph-name="uniFEAC" unicode="&#x630;" horiz-adv-x="717" arabic-form="final" 
d="M733 65q4 -9 4 -28t-4 -28t-16 -9h-60q-52 0 -86 11.5t-57 34.5q-126 -46 -284 -46q-101 0 -190 20v76q89 -22 191 -22q133 0 243 37q-9 21 -21 58l-129 377l74 23l128 -377q19 -56 31.5 -78.5t33.5 -30.5t66 -8h60v-1q12 0 16 -9zM295.5 630.5q-14.5 15.5 -14.5 38.5
t14.5 38t36.5 15t36.5 -15t14.5 -38t-14.5 -38.5t-36.5 -15.5t-36.5 15.5z" />
    <glyph glyph-name="uniFEAE" unicode="&#x631;" horiz-adv-x="285" arabic-form="final" 
d="M301 65q4 -9 4 -28t-4 -28t-16 -9h-101v-12q0 -100 -51.5 -155t-143.5 -56l-13 75q67 -3 98.5 30t31.5 106v481h78v-395h101q12 0 16 -9z" />
    <glyph glyph-name="uniFEB0" unicode="&#x632;" horiz-adv-x="285" arabic-form="final" 
d="M301 65q4 -9 4 -28t-4 -28t-16 -9h-101v-12q0 -100 -51.5 -155t-143.5 -56l-13 75q67 -3 98.5 30t31.5 106v481h78v-395h101q12 0 16 -9zM108.5 556.5q-14.5 15.5 -14.5 38.5t14.5 38t36.5 15t36.5 -15t14.5 -38t-14.5 -38.5t-36.5 -15.5t-36.5 15.5z" />
    <glyph glyph-name="uniFEB2" unicode="&#x633;" horiz-adv-x="1326" arabic-form="final" 
d="M1342 65q4 -9 4 -28t-4 -28t-16 -9h-37q-89 0 -142 45q-45 -45 -137 -45q-90 0 -142 44q-43 -44 -136 -44q-52 0 -92 14q-25 -108 -101.5 -173t-193.5 -65q-95 0 -164 44t-105 120.5t-36 172.5q0 82 24 162l70 -36q-16 -69 -16 -128q0 -79 27.5 -138t79 -91t120.5 -32
q70 0 121.5 32t79 90.5t27.5 137.5q0 51 -11 107t-29 101l68 38q23 -50 36.5 -115t13.5 -128q0 -19 -1 -29q27 -10 71 -10q63 0 88 24t25 82v236h78v-237q0 -44 -11 -79q32 -26 98 -26q63 0 88 24t25 82v286h78v-287q0 -47 -10 -78q35 -27 90 -27h56q12 0 16 -9z" />
    <glyph glyph-name="uniFEB3" unicode="&#x633;" horiz-adv-x="844" arabic-form="initial" 
d="M780 466v-287q0 -91 -43.5 -135t-136.5 -44q-90 0 -142 44q-43 -44 -136 -44q-90 0 -142 44q-44 -44 -143 -44h-37q-12 0 -16 9t-4 28t4 28t16 9h31q64 0 89.5 24t25.5 82v186h78v-187q0 -49 -11 -79q33 -26 98 -26q63 0 88 24t25 82v236h78v-237q0 -44 -11 -79
q32 -26 98 -26q63 0 88 24t25 82v286h78z" />
    <glyph glyph-name="uniFEB4" unicode="&#x633;" horiz-adv-x="916" arabic-form="medial" 
d="M932 65q4 -9 4 -28t-4 -28t-16 -9h-37q-89 0 -142 45q-45 -45 -137 -45q-90 0 -142 44q-43 -44 -136 -44q-90 0 -142 44q-44 -44 -143 -44h-37q-12 0 -16 9t-4 28t4 28t16 9h31q64 0 89.5 24t25.5 82v186h78v-187q0 -49 -11 -79q33 -26 98 -26q63 0 88 24t25 82v236h78
v-237q0 -44 -11 -79q32 -26 98 -26q63 0 88 24t25 82v286h78v-287q0 -47 -10 -78q35 -27 90 -27h56q12 0 16 -9z" />
    <glyph glyph-name="uniFEB6" unicode="&#x634;" horiz-adv-x="1326" arabic-form="final" 
d="M1342 65q4 -9 4 -28t-4 -28t-16 -9h-37q-89 0 -142 45q-45 -45 -137 -45q-90 0 -142 44q-43 -44 -136 -44q-52 0 -92 14q-25 -108 -101.5 -173t-193.5 -65q-95 0 -164 44t-105 120.5t-36 172.5q0 82 24 162l70 -36q-16 -69 -16 -128q0 -79 27.5 -138t79 -91t120.5 -32
q70 0 121.5 32t79 90.5t27.5 137.5q0 51 -11 107t-29 101l68 38q23 -50 36.5 -115t13.5 -128q0 -19 -1 -29q27 -10 71 -10q63 0 88 24t25 82v236h78v-237q0 -44 -11 -79q32 -26 98 -26q63 0 88 24t25 82v286h78v-287q0 -47 -10 -78q35 -27 90 -27h56q12 0 16 -9zM903.5 728
q12.5 -13 12.5 -33t-12.5 -33t-31.5 -13t-31.5 13t-12.5 33t12.5 33t31.5 13t31.5 -13zM844 626q14 -15 14 -36q0 -22 -14 -36t-34 -14q-21 0 -35 14t-14 36q0 21 14 36t35 15q20 0 34 -15zM971 626q14 -15 14 -36q0 -22 -14 -36t-34 -14q-21 0 -35 14t-14 36q0 21 14 36
t35 15q20 0 34 -15z" />
    <glyph glyph-name="uniFEB7" unicode="&#x634;" horiz-adv-x="844" arabic-form="initial" 
d="M780 466v-287q0 -91 -43.5 -135t-136.5 -44q-90 0 -142 44q-43 -44 -136 -44q-90 0 -142 44q-44 -44 -143 -44h-37q-12 0 -16 9t-4 28t4 28t16 9h31q64 0 89.5 24t25.5 82v186h78v-187q0 -49 -11 -79q33 -26 98 -26q63 0 88 24t25 82v236h78v-237q0 -44 -11 -79
q32 -26 98 -26q63 0 88 24t25 82v286h78zM493.5 728q12.5 -13 12.5 -33t-12.5 -33t-31.5 -13t-31.5 13t-12.5 33t12.5 33t31.5 13t31.5 -13zM434 626q14 -15 14 -36q0 -22 -14 -36t-34 -14q-21 0 -35 14t-14 36q0 21 14 36t35 15q20 0 34 -15zM561 626q14 -15 14 -36
q0 -22 -14 -36t-34 -14q-21 0 -35 14t-14 36q0 21 14 36t35 15q20 0 34 -15z" />
    <glyph glyph-name="uniFEB8" unicode="&#x634;" horiz-adv-x="916" arabic-form="medial" 
d="M932 65q4 -9 4 -28t-4 -28t-16 -9h-37q-89 0 -142 45q-45 -45 -137 -45q-90 0 -142 44q-43 -44 -136 -44q-90 0 -142 44q-44 -44 -143 -44h-37q-12 0 -16 9t-4 28t4 28t16 9h31q64 0 89.5 24t25.5 82v186h78v-187q0 -49 -11 -79q33 -26 98 -26q63 0 88 24t25 82v236h78
v-237q0 -44 -11 -79q32 -26 98 -26q63 0 88 24t25 82v286h78v-287q0 -47 -10 -78q35 -27 90 -27h56q12 0 16 -9zM493.5 728q12.5 -13 12.5 -33t-12.5 -33t-31.5 -13t-31.5 13t-12.5 33t12.5 33t31.5 13t31.5 -13zM434 626q14 -15 14 -36q0 -22 -14 -36t-34 -14q-21 0 -35 14
t-14 36q0 21 14 36t35 15q20 0 34 -15zM561 626q14 -15 14 -36q0 -22 -14 -36t-34 -14q-21 0 -35 14t-14 36q0 21 14 36t35 15q20 0 34 -15z" />
    <glyph glyph-name="uniFEBA" unicode="&#x635;" horiz-adv-x="1545" arabic-form="final" 
d="M1561 65q4 -9 4 -28t-4 -28t-16 -9h-797q-62 0 -106 22q-23 -111 -100.5 -178.5t-196.5 -67.5q-95 0 -164 44t-105 120.5t-36 172.5q0 82 24 162l70 -36q-16 -69 -16 -128q0 -79 27.5 -138t79 -91t120.5 -32q101 0 161.5 64.5t66.5 175.5q-1 0 -1 0.5v0.5l1 1v18
q0 51 -11 107t-29 101l68 38q23 -50 36.5 -114.5t13.5 -128.5v-20q28 -18 77 -19q13 95 63 192.5t136.5 163.5t202.5 66q92 0 156.5 -43t96.5 -115.5t32 -161.5v-102h130q12 0 16 -9zM1337 74v102q0 116 -55.5 181t-150.5 65q-84 0 -154 -50t-114.5 -130t-56.5 -168h531z
" />
    <glyph glyph-name="uniFEBB" unicode="&#x635;" horiz-adv-x="1053" arabic-form="initial" 
d="M860.5 453q64.5 -43 96.5 -115.5t32 -161.5v-176h-667q-90 0 -142 44q-44 -44 -143 -44h-37q-12 0 -16 9t-4 28t4 28t16 9h31q64 0 89.5 24t25.5 82v236h78v-237q0 -49 -11 -79q30 -25 89 -26q13 95 62.5 192.5t136 163.5t203.5 66q92 0 156.5 -43zM911 74v102
q0 116 -55.5 181t-150.5 65q-84 0 -154 -50t-114.5 -130t-56.5 -168h531z" />
    <glyph glyph-name="uniFEBC" unicode="&#x635;" horiz-adv-x="1122" arabic-form="medial" 
d="M1138 65q4 -9 4 -28t-4 -28t-16 -9h-800q-90 0 -142 44q-44 -44 -143 -44h-37q-12 0 -16 9t-4 28t4 28t16 9h31q64 0 89.5 24t25.5 82v236h78v-237q0 -49 -11 -79q30 -25 89 -26q13 95 62.5 192.5t136 163.5t203.5 66q92 0 156.5 -43t96.5 -115.5t32 -161.5v-102h133
q12 0 16 -9zM911 74v102q0 116 -55.5 181t-150.5 65q-84 0 -154 -50t-114.5 -130t-56.5 -168h531z" />
    <glyph glyph-name="uniFEBE" unicode="&#x636;" horiz-adv-x="1545" arabic-form="final" 
d="M1561 65q4 -9 4 -28t-4 -28t-16 -9h-797q-62 0 -106 22q-23 -111 -100.5 -178.5t-196.5 -67.5q-95 0 -164 44t-105 120.5t-36 172.5q0 82 24 162l70 -36q-16 -69 -16 -128q0 -79 27.5 -138t79 -91t120.5 -32q101 0 161.5 64.5t66.5 175.5q-1 0 -1 0.5v0.5l1 1v18
q0 51 -11 107t-29 101l68 38q23 -50 36.5 -114.5t13.5 -128.5v-20q28 -18 77 -19q13 95 63 192.5t136.5 163.5t202.5 66q92 0 156.5 -43t96.5 -115.5t32 -161.5v-102h130q12 0 16 -9zM1337 74v102q0 116 -55.5 181t-150.5 65q-84 0 -154 -50t-114.5 -130t-56.5 -168h531z
M1093.5 598.5q-14.5 15.5 -14.5 38.5t14.5 38t36.5 15t36.5 -15t14.5 -38t-14.5 -38.5t-36.5 -15.5t-36.5 15.5z" />
    <glyph glyph-name="uniFEBF" unicode="&#x636;" horiz-adv-x="1053" arabic-form="initial" 
d="M860.5 453q64.5 -43 96.5 -115.5t32 -161.5v-176h-667q-90 0 -142 44q-44 -44 -143 -44h-37q-12 0 -16 9t-4 28t4 28t16 9h31q64 0 89.5 24t25.5 82v236h78v-237q0 -49 -11 -79q30 -25 89 -26q13 95 62.5 192.5t136 163.5t203.5 66q92 0 156.5 -43zM911 74v102
q0 116 -55.5 181t-150.5 65q-84 0 -154 -50t-114.5 -130t-56.5 -168h531zM668.5 598.5q-14.5 15.5 -14.5 38.5t14.5 38t36.5 15t36.5 -15t14.5 -38t-14.5 -38.5t-36.5 -15.5t-36.5 15.5z" />
    <glyph glyph-name="uniFEC0" unicode="&#x636;" horiz-adv-x="1122" arabic-form="medial" 
d="M1138 65q4 -9 4 -28t-4 -28t-16 -9h-800q-90 0 -142 44q-44 -44 -143 -44h-37q-12 0 -16 9t-4 28t4 28t16 9h31q64 0 89.5 24t25.5 82v236h78v-237q0 -49 -11 -79q30 -25 89 -26q13 95 62.5 192.5t136 163.5t203.5 66q92 0 156.5 -43t96.5 -115.5t32 -161.5v-102h133
q12 0 16 -9zM911 74v102q0 116 -55.5 181t-150.5 65q-84 0 -154 -50t-114.5 -130t-56.5 -168h531zM668.5 598.5q-14.5 15.5 -14.5 38.5t14.5 38t36.5 15t36.5 -15t14.5 -38t-14.5 -38.5t-36.5 -15.5t-36.5 15.5z" />
    <glyph glyph-name="uniFEC2" unicode="&#x637;" horiz-adv-x="956" arabic-form="final" 
d="M972 65q4 -9 4 -28t-4 -28t-16 -9h-916v74h90v659h78v-501q42 115 123.5 189.5t205.5 74.5q92 0 156 -43t96 -115.5t32 -161.5v-102h135q12 0 16 -9zM743 74v102q0 116 -55 181t-150 65q-84 0 -154 -50t-115 -130t-57 -168h531z" />
    <glyph glyph-name="uniFEC3" unicode="&#x637;" horiz-adv-x="879" arabic-form="initial" 
d="M687 453q64 -43 96 -115.5t32 -161.5v-176h-815q-12 0 -16 9t-4 28t4 28t16 9h124v659h78v-501q42 115 123.5 189.5t205.5 74.5q92 0 156 -43zM737 74v102q0 116 -55 181t-150 65q-84 0 -154 -50t-115 -130t-57 -168h531z" />
    <glyph glyph-name="uniFEC4" unicode="&#x637;" horiz-adv-x="951" arabic-form="medial" 
d="M967 65q4 -9 4 -28t-4 -28t-16 -9h-951q-12 0 -16 9t-4 28t4 28t16 9h124v659h78v-501q42 115 123.5 189.5t205.5 74.5q92 0 156 -43t96 -115.5t32 -161.5v-102h136q12 0 16 -9zM737 74v102q0 116 -55 181t-150 65q-84 0 -154 -50t-115 -130t-57 -168h531z" />
    <glyph glyph-name="uniFEC6" unicode="&#x638;" horiz-adv-x="956" arabic-form="final" 
d="M972 65q4 -9 4 -28t-4 -28t-16 -9h-916v74h90v659h78v-501q42 115 123.5 189.5t205.5 74.5q92 0 156 -43t96 -115.5t32 -161.5v-102h135q12 0 16 -9zM743 74v102q0 116 -55 181t-150 65q-84 0 -154 -50t-115 -130t-57 -168h531zM501.5 598.5q-14.5 15.5 -14.5 38.5
t14.5 38t36.5 15t36.5 -15t14.5 -38t-14.5 -38.5t-36.5 -15.5t-36.5 15.5z" />
    <glyph glyph-name="uniFEC7" unicode="&#x638;" horiz-adv-x="879" arabic-form="initial" 
d="M687 453q64 -43 96 -115.5t32 -161.5v-176h-815q-12 0 -16 9t-4 28t4 28t16 9h124v659h78v-501q42 115 123.5 189.5t205.5 74.5q92 0 156 -43zM737 74v102q0 116 -55 181t-150 65q-84 0 -154 -50t-115 -130t-57 -168h531zM495.5 598.5q-14.5 15.5 -14.5 38.5t14.5 38
t36.5 15t36.5 -15t14.5 -38t-14.5 -38.5t-36.5 -15.5t-36.5 15.5z" />
    <glyph glyph-name="uniFEC8" unicode="&#x638;" horiz-adv-x="951" arabic-form="medial" 
d="M967 65q4 -9 4 -28t-4 -28t-16 -9h-951q-12 0 -16 9t-4 28t4 28t16 9h124v659h78v-501q42 115 123.5 189.5t205.5 74.5q92 0 156 -43t96 -115.5t32 -161.5v-102h136q12 0 16 -9zM737 74v102q0 116 -55 181t-150 65q-84 0 -154 -50t-115 -130t-57 -168h531zM495.5 598.5
q-14.5 15.5 -14.5 38.5t14.5 38t36.5 15t36.5 -15t14.5 -38t-14.5 -38.5t-36.5 -15.5t-36.5 15.5z" />
    <glyph glyph-name="uniFECA" unicode="&#x639;" horiz-adv-x="736" arabic-form="final" 
d="M752 65q4 -9 4 -28t-4 -28t-16 -9h-169q-90 0 -170 26q-52 -15 -85 -22q-65 -13 -104 -26.5t-64.5 -41t-25.5 -73.5q0 -70 57 -112t144 -42q45 0 94.5 11.5t83.5 30.5l38 -64q-40 -23 -100.5 -37.5t-115.5 -14.5q-77 0 -141 28.5t-101 80t-37 119.5q0 71 38 114
t90.5 63.5t125.5 35.5q-72 47 -119.5 118.5t-65.5 161.5l66 116q98 37 208 37q132 0 205 -51t73 -148q0 -70 -39 -129.5t-112 -103.5q29 -3 57 -3h169q12 0 16 -9zM254 216.5q57 -74.5 145 -111.5q89 34 136.5 86.5t47.5 117.5q0 66 -51.5 96t-148.5 30q-59 0 -106 -10
t-96 -31q16 -103 73 -177.5z" />
    <glyph glyph-name="uniFECB" unicode="&#x639;" horiz-adv-x="601" arabic-form="initial" 
d="M571 74v-74h-571q-12 0 -16 9t-4 28t4 28t16 9h146q-68 71 -68 171q0 75 37 135t101 94.5t140 34.5q88 0 196 -49l-35 -65q-92 40 -161 40q-57 0 -103 -25t-71.5 -68t-25.5 -96q0 -61 34.5 -107t92.5 -65h288z" />
    <glyph glyph-name="uniFECC" unicode="&#x639;" horiz-adv-x="698" arabic-form="medial" 
d="M714 65q4 -9 4 -28t-4 -28t-16 -9h-169q-113 0 -205 40q-107 -40 -185 -40h-139q-12 0 -16 9t-4 28t4 28t16 9h139q45 0 99 14q-65 47 -107.5 115.5t-59.5 152.5l66 116q100 37 204 37q85 0 149.5 -22t100.5 -62t36 -93q0 -68 -57 -132.5t-147 -113.5q50 -12 106 -12h169
q12 0 16 -9zM206 230q48 -70 123 -109q92 41 156 98.5t64 110.5q0 49 -57.5 77t-150.5 28q-55 0 -103 -10.5t-95 -31.5q15 -93 63 -163z" />
    <glyph glyph-name="uniFECE" unicode="&#x63a;" horiz-adv-x="736" arabic-form="final" 
d="M752 65q4 -9 4 -28t-4 -28t-16 -9h-169q-90 0 -170 26q-52 -15 -85 -22q-65 -13 -104 -26.5t-64.5 -41t-25.5 -73.5q0 -70 57 -112t144 -42q45 0 94.5 11.5t83.5 30.5l38 -64q-40 -23 -100.5 -37.5t-115.5 -14.5q-77 0 -141 28.5t-101 80t-37 119.5q0 71 38 114
t90.5 63.5t125.5 35.5q-72 47 -119.5 118.5t-65.5 161.5l66 116q98 37 208 37q132 0 205 -51t73 -148q0 -70 -39 -129.5t-112 -103.5q29 -3 57 -3h169q12 0 16 -9zM254 216.5q57 -74.5 145 -111.5q89 34 136.5 86.5t47.5 117.5q0 66 -51.5 96t-148.5 30q-59 0 -106 -10
t-96 -31q16 -103 73 -177.5zM346.5 608.5q-14.5 15.5 -14.5 38.5t14.5 38t36.5 15t36.5 -15t14.5 -38t-14.5 -38.5t-36.5 -15.5t-36.5 15.5z" />
    <glyph glyph-name="uniFECF" unicode="&#x63a;" horiz-adv-x="601" arabic-form="initial" 
d="M571 74v-74h-571q-12 0 -16 9t-4 28t4 28t16 9h146q-68 71 -68 171q0 75 37 135t101 94.5t140 34.5q88 0 196 -49l-35 -65q-92 40 -161 40q-57 0 -103 -25t-71.5 -68t-25.5 -96q0 -61 34.5 -107t92.5 -65h288zM290.5 608.5q-14.5 15.5 -14.5 38.5t14.5 38t36.5 15
t36.5 -15t14.5 -38t-14.5 -38.5t-36.5 -15.5t-36.5 15.5z" />
    <glyph glyph-name="uniFED0" unicode="&#x63a;" horiz-adv-x="698" arabic-form="medial" 
d="M714 65q4 -9 4 -28t-4 -28t-16 -9h-169q-113 0 -205 40q-107 -40 -185 -40h-139q-12 0 -16 9t-4 28t4 28t16 9h139q45 0 99 14q-65 47 -107.5 115.5t-59.5 152.5l66 116q100 37 204 37q85 0 149.5 -22t100.5 -62t36 -93q0 -68 -57 -132.5t-147 -113.5q50 -12 106 -12h169
q12 0 16 -9zM206 230q48 -70 123 -109q92 41 156 98.5t64 110.5q0 49 -57.5 77t-150.5 28q-55 0 -103 -10.5t-95 -31.5q15 -93 63 -163zM302.5 608.5q-14.5 15.5 -14.5 38.5t14.5 38t36.5 15t36.5 -15t14.5 -38t-14.5 -38.5t-36.5 -15.5t-36.5 15.5z" />
    <glyph glyph-name="uniFED2" unicode="&#x641;" horiz-adv-x="1055" arabic-form="final" 
d="M1071 65q4 -9 4 -28t-4 -28t-16 -9l-804 -1q-101 0 -156 54t-55 149q0 64 25.5 111.5t74.5 85.5l63 -45q-44 -35 -64.5 -71t-20.5 -80q0 -60 36 -95t103 -35h284q-33 34 -50.5 78t-17.5 94q0 75 37 135t101 94.5t140 34.5q89 0 195 -49v-386h109q12 0 16 -9zM585.5 138.5
q34.5 -45.5 93.5 -64.5h189v338q-66 23 -117 23q-57 0 -103 -25t-71.5 -68t-25.5 -96q0 -62 34.5 -107.5zM714.5 608.5q-14.5 15.5 -14.5 38.5t14.5 38t36.5 15t36.5 -15t14.5 -38t-14.5 -38.5t-36.5 -15.5t-36.5 15.5z" />
    <glyph glyph-name="uniFED3" unicode="&#x641;" horiz-adv-x="600" arabic-form="initial" 
d="M560 460v-460h-560q-12 0 -16 9t-4 28t4 28t16 9h154q-67 72 -67 171q0 75 37 135t101 94.5t140 34.5q89 0 195 -49zM200.5 137q35.5 -46 95.5 -63h186v338q-64 23 -117 23q-57 0 -103 -25t-71.5 -68t-25.5 -96q0 -63 35.5 -109zM328.5 608.5q-14.5 15.5 -14.5 38.5
t14.5 38t36.5 15t36.5 -15t14.5 -38t-14.5 -38.5t-36.5 -15.5t-36.5 15.5z" />
    <glyph glyph-name="uniFED4" unicode="&#x641;" horiz-adv-x="673" arabic-form="medial" 
d="M689 65q4 -9 4 -28t-4 -28t-16 -9h-673q-12 0 -16 9t-4 28t4 28t16 9h154q-67 72 -67 171q0 75 37 135t101 94.5t140 34.5q89 0 195 -49v-386h113q12 0 16 -9zM200.5 137q35.5 -46 95.5 -63h186v338q-64 23 -117 23q-57 0 -103 -25t-71.5 -68t-25.5 -96q0 -63 35.5 -109z
M328.5 608.5q-14.5 15.5 -14.5 38.5t14.5 38t36.5 15t36.5 -15t14.5 -38t-14.5 -38.5t-36.5 -15.5t-36.5 15.5z" />
    <glyph glyph-name="uniFED6" unicode="&#x642;" horiz-adv-x="913" arabic-form="final" 
d="M929 65q4 -9 4 -28t-4 -28t-16 -9h-107q-14 -131 -107.5 -208.5t-274.5 -77.5q-197 0 -290.5 90.5t-93.5 240.5q0 86 29 182l70 -36q-21 -78 -21 -148q0 -123 74.5 -189t231.5 -66q278 0 304 212h-124q-74 0 -136.5 34t-98.5 92.5t-36 128.5t36 128t98 92t136 34
q49 0 102.5 -15.5t100.5 -43.5l2 1v-377h105q12 0 16 -9zM436 164.5q25 -41.5 69.5 -66t100.5 -24.5h124v331q-71 30 -124 30q-56 0 -100.5 -24t-69.5 -65.5t-25 -90.5t25 -90.5zM633.172 606.885q-13.6748 14.6191 -13.6748 36.3105t13.6748 35.8379
q13.6758 14.1465 34.4238 14.1465q20.749 0 34.4238 -14.1465q13.6758 -14.1465 13.6758 -35.8379t-13.6758 -36.3105q-13.6748 -14.6182 -34.4238 -14.6182q-20.748 0 -34.4238 14.6182zM506.172 606.885q-13.6748 14.6191 -13.6748 36.3105t13.6748 35.8379
q13.6758 14.1465 34.4238 14.1465q20.749 0 34.4238 -14.1465q13.6758 -14.1465 13.6758 -35.8379t-13.6758 -36.3105q-13.6748 -14.6182 -34.4238 -14.6182q-20.748 0 -34.4238 14.6182z" />
    <glyph glyph-name="uniFED7" unicode="&#x642;" horiz-adv-x="600" arabic-form="initial" 
d="M560 460v-460h-560q-12 0 -16 9t-4 28t4 28t16 9h154q-67 72 -67 171q0 75 37 135t101 94.5t140 34.5q89 0 195 -49zM200.5 137q35.5 -46 95.5 -63h186v338q-64 23 -117 23q-57 0 -103 -25t-71.5 -68t-25.5 -96q0 -63 35.5 -109zM395.172 606.885
q-13.6748 14.6191 -13.6748 36.3105t13.6748 35.8379q13.6758 14.1465 34.4238 14.1465q20.749 0 34.4238 -14.1465q13.6758 -14.1465 13.6758 -35.8379t-13.6758 -36.3105q-13.6748 -14.6182 -34.4238 -14.6182q-20.748 0 -34.4238 14.6182zM268.172 606.885
q-13.6748 14.6191 -13.6748 36.3105t13.6748 35.8379q13.6758 14.1465 34.4238 14.1465q20.749 0 34.4238 -14.1465q13.6758 -14.1465 13.6758 -35.8379t-13.6758 -36.3105q-13.6748 -14.6182 -34.4238 -14.6182q-20.748 0 -34.4238 14.6182z" />
    <glyph glyph-name="uniFED8" unicode="&#x642;" horiz-adv-x="673" arabic-form="medial" 
d="M689 65q4 -9 4 -28t-4 -28t-16 -9h-673q-12 0 -16 9t-4 28t4 28t16 9h154q-67 72 -67 171q0 75 37 135t101 94.5t140 34.5q89 0 195 -49v-386h113q12 0 16 -9zM200.5 137q35.5 -46 95.5 -63h186v338q-64 23 -117 23q-57 0 -103 -25t-71.5 -68t-25.5 -96q0 -63 35.5 -109z
M395.172 606.885q-13.6748 14.6191 -13.6748 36.3105t13.6748 35.8379q13.6758 14.1465 34.4238 14.1465q20.749 0 34.4238 -14.1465q13.6758 -14.1465 13.6758 -35.8379t-13.6758 -36.3105q-13.6748 -14.6182 -34.4238 -14.6182q-20.748 0 -34.4238 14.6182z
M268.172 606.885q-13.6748 14.6191 -13.6748 36.3105t13.6748 35.8379q13.6758 14.1465 34.4238 14.1465q20.749 0 34.4238 -14.1465q13.6758 -14.1465 13.6758 -35.8379t-13.6758 -36.3105q-13.6748 -14.6182 -34.4238 -14.6182q-20.748 0 -34.4238 14.6182z" />
    <glyph glyph-name="uniFEDA" unicode="&#x643;" horiz-adv-x="856" arabic-form="final" 
d="M872 65q4 -9 4 -28t-4 -28t-16 -9l-605 -1q-101 0 -156 54t-55 149q0 64 25.5 111.5t74.5 85.5l63 -45q-44 -35 -64.5 -71t-20.5 -80q0 -60 36 -95t103 -35l412 1v659h78v-659h109q12 0 16 -9zM505 385v-51h-180v51h20q-11 19 -11 40q0 35 26.5 57t68.5 22q18 0 36.5 -4
t31.5 -11l-22 -45q-7 4 -20.5 6.5t-24.5 2.5q-22 0 -35 -9.5t-13 -23.5q0 -13 10.5 -23.5t25.5 -11.5h87z" />
    <glyph glyph-name="uniFEDB" unicode="&#x643;" horiz-adv-x="466" arabic-form="initial" 
d="M287 383.5q50 -48.5 77.5 -124t27.5 -169.5v-90h-392q-12 0 -16 9t-4 28t4 28t16 9h314v22q0 133 -57 208t-155 75l-50 52l262 262l48 -53l-192 -192q67 -16 117 -64.5z" />
    <glyph glyph-name="uniFEDC" unicode="&#x643;" horiz-adv-x="503" arabic-form="medial" 
d="M519 65q4 -9 4 -28t-4 -28t-16 -9h-503q-12 0 -16 9t-4 28t4 28t16 9h314v22q0 133 -57 208t-155 75l-50 52l262 262l48 -53l-192 -192q67 -16 117 -64.5t77.5 -124t27.5 -169.5v-16h111q12 0 16 -9z" />
    <glyph glyph-name="uniFEDE" unicode="&#x644;" horiz-adv-x="738" arabic-form="final" 
d="M754 65q4 -9 4 -28t-4 -28t-16 -9h-3q-66 0 -113 30q-23 -107 -98 -172t-189 -65q-91 0 -157.5 43t-102 115.5t-35.5 161.5q0 63 15 126l77 -12q-14 -64 -14 -116q0 -71 27 -126.5t76 -86.5t114 -31t114.5 30.5t76.5 86.5t27 128v621h78v-618v-9q29 -32 85 -32h22
q12 0 16 -9z" />
    <glyph glyph-name="uniFEDF" unicode="&#x644;" horiz-adv-x="246" arabic-form="initial" 
d="M162 733v-733h-162q-12 0 -16 9t-4 28t4 28t16 9h84v659h78z" />
    <glyph glyph-name="uniFEE0" unicode="&#x644;" horiz-adv-x="267" arabic-form="medial" 
d="M283 65q4 -9 4 -28t-4 -28t-16 -9h-267q-12 0 -16 9t-4 28t4 28t16 9h84v659h78v-659h105q12 0 16 -9z" />
    <glyph glyph-name="uniFEE2" unicode="&#x645;" horiz-adv-x="821" arabic-form="final" 
d="M837 65q4 -9 4 -28t-4 -28t-16 -9h-13q-97 0 -153 54q-65 -26 -137 -40t-130 -14q-104 0 -204 48q-34 -13 -52.5 -50.5t-18.5 -92.5q0 -60 25 -120t70 -107l-65 -39q-47 51 -75 120.5t-28 144.5q0 81 30 142t82 86q4 23 5 41q12 93 29.5 161t61.5 122.5t122 54.5
q72 0 139.5 -50t113 -138t53.5 -198q37 -51 113 -51h32q12 0 16 -9zM492 84q56 10 107 28q-5 87 -38.5 162t-84 119t-103.5 44q-48 0 -75.5 -39.5t-39.5 -92.5t-21 -128q-5 -46 -10 -67q81 -36 162 -36q47 0 103 10z" />
    <glyph glyph-name="uniFEE3" unicode="&#x645;" horiz-adv-x="680" arabic-form="initial" 
d="M482.5 458q72.5 -59 116 -163t40.5 -231q-69 -31 -148 -47.5t-143 -16.5q-103 0 -202 49q-47 -49 -131 -49h-15q-12 0 -16 9t-4 28t4 28t16 9h15q44 0 70 21.5t32 63.5l3 26q8 78 25 147t62 127t124 58t151.5 -59zM349 74q48 0 104 10t107 29q-6 87 -39.5 163t-83 121.5
t-102.5 45.5q-50 0 -78.5 -42.5t-39.5 -96t-18 -121.5q0 3 -4 -35q-3 -19 -9 -36q80 -38 163 -38z" />
    <glyph glyph-name="uniFEE4" unicode="&#x645;" horiz-adv-x="781" arabic-form="medial" 
d="M797 65q4 -9 4 -28t-4 -28t-16 -9h-12q-99 0 -153 54q-66 -26 -138 -40t-130 -14q-103 0 -202 49q-47 -49 -131 -49h-15q-12 0 -16 9t-4 28t4 28t16 9h15q44 0 70 21.5t32 63.5l3 26q8 78 25 147t62 127t124 58q73 0 140.5 -50.5t112.5 -140t53 -201.5q37 -51 113 -51h31
q12 0 16 -9zM349 74q48 0 104 10t107 29q-6 87 -39.5 163t-83 121.5t-102.5 45.5q-50 0 -78.5 -42.5t-39.5 -96t-18 -121.5q0 3 -4 -35q-3 -19 -9 -36q80 -38 163 -38z" />
    <glyph glyph-name="uniFEE6" unicode="&#x646;" horiz-adv-x="765" arabic-form="final" 
d="M781 65q4 -9 4 -28t-4 -28t-16 -9h-17q-75 0 -125 32q-23 -107 -98 -173t-190 -66q-91 0 -157.5 43t-102 115.5t-35.5 161.5q0 74 24 161l71 -36q-17 -66 -17 -127q0 -71 27 -126.5t76 -86.5t114 -31t114.5 30.5t76.5 86.5t27 128q0 49 -11.5 105.5t-30.5 100.5l68 38
q24 -51 38 -117t14 -124v-7q36 -34 98 -34h36q12 0 16 -9zM296.5 465.5q-14.5 15.5 -14.5 38.5t14.5 38t36.5 15t36.5 -15t14.5 -38t-14.5 -38.5t-36.5 -15.5t-36.5 15.5z" />
    <glyph glyph-name="uniFEE7" unicode="&#x646;" horiz-adv-x="270" arabic-form="initial" 
d="M197 469v-469h-197q-12 0 -16 9t-4 28t4 28t16 9h118v395h79zM121.5 556.5q-14.5 15.5 -14.5 38.5t14.5 38t36.5 15t36.5 -15t14.5 -38t-14.5 -38.5t-36.5 -15.5t-36.5 15.5z" />
    <glyph glyph-name="uniFEE8" unicode="&#x646;" horiz-adv-x="360" arabic-form="medial" 
d="M376 65q4 -9 4 -28t-4 -28t-16 -9h-37q-87 0 -142 44q-44 -44 -144 -44h-37q-12 0 -16 9t-4 28t4 28t16 9h32q64 0 89.5 24t25.5 82v289h78v-290q0 -47 -10 -78q35 -27 89 -27h56q12 0 16 -9zM149.5 556.5q-14.5 15.5 -14.5 38.5t14.5 38t36.5 15t36.5 -15t14.5 -38
t-14.5 -38.5t-36.5 -15.5t-36.5 15.5z" />
    <glyph glyph-name="uniFEEA" unicode="&#x647;" horiz-adv-x="620" arabic-form="final" 
d="M636 65q4 -9 4 -28t-4 -28t-16 -9h-15q-61 0 -98.5 16.5t-56.5 51.5q-36 -17 -76.5 -26.5t-78.5 -9.5q-70 0 -128.5 32t-92.5 87t-34 121t34.5 121t93 87t128.5 32h133v26h78v-358q0 -40 8 -62.5t30 -33t65 -10.5h10q12 0 16 -9zM431 142q-2 22 -2 37v259h-133
q-49 0 -90 -22t-64.5 -60t-23.5 -84t23.5 -84t64.5 -60t91 -22q63 0 134 36z" />
    <glyph glyph-name="uniFEEB" unicode="&#x647;" horiz-adv-x="725" arabic-form="initial" 
d="M571.5 391q47.5 -42 70 -102.5t19.5 -146.5l-6 -142h-655q-12 0 -16 9t-4 28t4 28t16 9h107q-14 41 -21.5 86t-7.5 85q0 77 28 138.5t76 95.5q-38 11 -79 21l20 71q129 -33 197 -54t126 -48q78 -36 125.5 -78zM165.5 157.5q9.5 -46.5 24.5 -83.5h215v181q0 52 -15.5 93.5
t-43 65.5t-61.5 24t-63.5 -24t-47.5 -68t-18 -99q0 -43 9.5 -89.5zM558.5 284.5q-27.5 53.5 -97.5 93.5q22 -57 22 -123v-181h97l3 70q3 87 -24.5 140.5z" />
    <glyph glyph-name="uniFEEC" unicode="&#x647;" horiz-adv-x="633" arabic-form="medial" 
d="M649 65q4 -9 4 -28t-4 -28t-16 -9h-13q-47 0 -70 -26.5t-29 -71.5t-7 -125l-91 -55q-60 0 -119.5 33t-108 96t-74.5 149h-121q-12 0 -16 9t-4 28t4 28t16 9h104q-8 53 -8 106q0 105 28.5 180.5t75 113.5t98.5 38t98.5 -38t75.5 -113.5t29 -180.5q0 -89 -24 -174
q45 68 143 68h13q12 0 16 -9zM184 74h229q10 47 10 103q0 74 -17.5 133.5t-46.5 93.5t-61 34t-60.5 -34t-46 -93.5t-17.5 -131.5q0 -50 10 -105zM436 -182q0 121 37 182h-268q30 -84 83 -139t114 -64z" />
    <glyph glyph-name="uniFEEE" unicode="&#x648;" horiz-adv-x="621" arabic-form="final" 
d="M637 65q4 -9 4 -28t-4 -28t-16 -9h-106v-12q0 -100 -51.5 -155t-143.5 -56l-13 75q67 -3 98.5 30t31.5 106v12h-126q-74 0 -136 34t-98.5 92.5t-36.5 128.5t36.5 128t98.5 92t136 34q47 0 99 -15t99 -41l6 -2v-377h106q12 0 16 -9zM437 74v331q-71 30 -124 30
q-56 0 -100.5 -24.5t-69.5 -65.5t-25 -90t25 -90.5t69.5 -66t100.5 -24.5h124z" />
    <glyph glyph-name="uniFEF0" unicode="&#x649;" horiz-adv-x="876" arabic-form="final" 
d="M892 65q4 -9 4 -28t-4 -28t-16 -9h-56q2 -16 2 -26q0 -99 -91.5 -149.5t-291.5 -50.5q-195 0 -297 56t-102 193q0 30 4.5 72.5t13.5 80.5l76 -17q-7 -29 -11.5 -67.5t-4.5 -66.5q0 -65 31.5 -103.5t101 -56t188.5 -17.5q158 0 227 29.5t69 90.5q0 17 -6 32h-10
q-110 0 -167 55l54 54q19 -18 45.5 -26.5t67.5 -8.5h157q12 0 16 -9z" />
    <glyph glyph-name="uniFEF2" unicode="&#x64a;" horiz-adv-x="876" arabic-form="final" 
d="M892 65q4 -9 4 -28t-4 -28t-16 -9h-56q2 -16 2 -26q0 -99 -91.5 -149.5t-291.5 -50.5q-195 0 -297 56t-102 193q0 30 4.5 72.5t13.5 80.5l76 -17q-7 -29 -11.5 -67.5t-4.5 -66.5q0 -65 31.5 -103.5t101 -56t188.5 -17.5q158 0 227 29.5t69 90.5q0 17 -6 32h-10
q-110 0 -167 55l54 54q19 -18 45.5 -26.5t67.5 -8.5h157q12 0 16 -9zM471.172 -376.115q-13.6748 14.6191 -13.6748 36.3105t13.6748 35.8379q13.6758 14.1465 34.4238 14.1465q20.749 0 34.4238 -14.1465q13.6758 -14.1465 13.6758 -35.8379t-13.6758 -36.3105
q-13.6748 -14.6182 -34.4238 -14.6182q-20.748 0 -34.4238 14.6182zM344.172 -376.115q-13.6748 14.6191 -13.6748 36.3105t13.6748 35.8379q13.6758 14.1465 34.4238 14.1465q20.749 0 34.4238 -14.1465q13.6758 -14.1465 13.6758 -35.8379t-13.6758 -36.3105
q-13.6748 -14.6182 -34.4238 -14.6182q-20.748 0 -34.4238 14.6182z" />
    <glyph glyph-name="uniFEF3" unicode="&#x64a;" horiz-adv-x="270" arabic-form="initial" 
d="M197 469v-469h-197q-12 0 -16 9t-4 28t4 28t16 9h118v395h79zM188.172 -165.115q-13.6748 14.6191 -13.6748 36.3105t13.6748 35.8379q13.6758 14.1465 34.4238 14.1465q20.749 0 34.4238 -14.1465q13.6758 -14.1465 13.6758 -35.8379t-13.6758 -36.3105
q-13.6748 -14.6182 -34.4238 -14.6182q-20.748 0 -34.4238 14.6182zM61.1719 -165.115q-13.6748 14.6191 -13.6748 36.3105t13.6748 35.8379q13.6758 14.1465 34.4238 14.1465q20.749 0 34.4238 -14.1465q13.6758 -14.1465 13.6758 -35.8379t-13.6758 -36.3105
q-13.6748 -14.6182 -34.4238 -14.6182q-20.748 0 -34.4238 14.6182z" />
    <glyph glyph-name="uniFEF4" unicode="&#x64a;" horiz-adv-x="360" arabic-form="medial" 
d="M376 65q4 -9 4 -28t-4 -28t-16 -9h-37q-87 0 -142 44q-44 -44 -144 -44h-37q-12 0 -16 9t-4 28t4 28t16 9h32q64 0 89.5 24t25.5 82v289h78v-290q0 -47 -10 -78q35 -27 89 -27h56q12 0 16 -9zM216.172 -165.115q-13.6748 14.6191 -13.6748 36.3105t13.6748 35.8379
q13.6758 14.1465 34.4238 14.1465q20.749 0 34.4238 -14.1465q13.6758 -14.1465 13.6758 -35.8379t-13.6758 -36.3105q-13.6748 -14.6182 -34.4238 -14.6182q-20.748 0 -34.4238 14.6182zM89.1719 -165.115q-13.6748 14.6191 -13.6748 36.3105t13.6748 35.8379
q13.6758 14.1465 34.4238 14.1465q20.749 0 34.4238 -14.1465q13.6758 -14.1465 13.6758 -35.8379t-13.6758 -36.3105q-13.6748 -14.6182 -34.4238 -14.6182q-20.748 0 -34.4238 14.6182z" />
    <glyph glyph-name=".notdef" horiz-adv-x="587" 
d="M40 700h507v-700h-507v700zM467 70v560h-347v-560h347z" />
    <glyph glyph-name=".null" 
 />
    <glyph glyph-name="nonmarkingreturn" unicode="&#xd;" horiz-adv-x="300" 
 />
    <glyph glyph-name="space" unicode=" " horiz-adv-x="243" 
 />
    <glyph glyph-name="exclam" unicode="!" horiz-adv-x="203" 
d="M148 688v-169l-11 -310h-52l-12 310v169h75zM145 79.5q14 -14.5 14 -36.5t-14 -36.5t-34 -14.5q-21 0 -35 14.5t-14 36.5t14 36.5t35 14.5q20 0 34 -14.5z" />
    <glyph glyph-name="quotedbl" unicode="&#x22;" horiz-adv-x="313" 
d="M122 700v-225h-62v225h62zM253 700v-225h-62v225h62z" />
    <glyph glyph-name="numbersign" unicode="#" horiz-adv-x="718" 
d="M531 447l-25 -200h143l-5 -61h-145l-23 -186h-60l23 186h-201l-23 -186h-60l23 186h-143l5 61h145l25 200h-143l5 61h145l24 192h60l-24 -192h202l24 192h59l-24 -192h143l-4 -61h-146zM472 447h-202l-25 -200h202z" />
    <glyph glyph-name="dollar" unicode="$" horiz-adv-x="611" 
d="M183 466q23 -25 57 -39.5t93 -32.5q72 -23 115.5 -43t74 -59.5t30.5 -103.5q0 -80 -58.5 -131.5t-155.5 -60.5l-1 -129h-61v128q-69 4 -133.5 33t-111.5 74l36 69q48 -47 110.5 -73t122.5 -26q76 0 120 29.5t44 81.5q0 41 -23 67t-57 40.5t-95 33.5q-70 21 -113.5 41
t-74 59t-30.5 102q0 75 55.5 123t149.5 56v117h61l1 -116q54 -3 105.5 -20t91.5 -44l-34 -71q-45 29 -96.5 43.5t-96.5 14.5q-68 0 -108.5 -26.5t-40.5 -71.5q0 -40 23 -65z" />
    <glyph glyph-name="percent" unicode="%" horiz-adv-x="949" 
d="M354 648q47 -55 47 -153q0 -99 -47 -154t-131 -55t-131 55t-47 154q0 98 47 153t131 55t131 -55zM132 612.5q-32 -41.5 -32 -117.5q0 -77 32 -118.5t91 -41.5t91 41.5t32 118.5q0 76 -32 117.5t-91 41.5t-91 -41.5zM763 700l-523 -700h-66l524 700h65zM857 359
q47 -55 47 -153q0 -99 -47 -154t-131 -55t-131 55t-47 154q0 98 47 153t131 55t131 -55zM635 323.5q-32 -41.5 -32 -117.5q0 -77 32 -118.5t91 -41.5t91 41.5t32 118.5q0 76 -32 117.5t-91 41.5t-91 -41.5z" />
    <glyph glyph-name="ampersand" unicode="&#x26;" horiz-adv-x="649" 
d="M600 -12l-117 116q-99 -107 -217 -107q-57 0 -105 25t-75.5 68.5t-27.5 97.5q0 69 42 113.5t117 84.5q-37 48 -54.5 88.5t-17.5 78.5q0 66 47.5 108t123.5 42q72 0 117 -39t45 -101q0 -44 -23.5 -78t-59 -58.5t-91.5 -54.5q57 -66 172 -178q39 57 71 136l53 -40
q-35 -80 -79 -141l121 -119zM224 489.5q15 -33.5 46 -75.5q72 38 108 69.5t36 79.5q0 39 -26.5 63.5t-71.5 24.5q-48 0 -77.5 -28t-29.5 -70q0 -30 15 -63.5zM357 81q43 23 82 66q-135 135 -188 197q-61 -33 -94 -68t-33 -83q0 -59 42 -97t103 -38q45 0 88 23z" />
    <glyph glyph-name="quotesingle" unicode="'" horiz-adv-x="182" 
d="M122 700v-225h-62v225h62z" />
    <glyph glyph-name="parenleft" unicode="(" horiz-adv-x="298" 
d="M187.5 545.5q-30.5 -111.5 -30.5 -236.5t30.5 -236.5t85.5 -196.5h-72q-57 84 -87.5 195.5t-30.5 237.5t30.5 237.5t87.5 195.5h72q-55 -85 -85.5 -196.5z" />
    <glyph glyph-name="parenright" unicode=")" horiz-adv-x="298" 
d="M97 742q57 -84 87.5 -195.5t30.5 -237.5t-30.5 -237.5t-87.5 -195.5h-72q55 85 85.5 196.5t30.5 236.5t-30.5 236.5t-85.5 196.5h72z" />
    <glyph glyph-name="asterisk" unicode="*" horiz-adv-x="329" 
d="M186 721v-108l93 55l22 -41l-95 -53l95 -53l-22 -41l-94 55l1 -108h-44l1 108l-94 -55l-22 41l94 53l-94 53l22 42l94 -56l-1 108h44z" />
    <glyph glyph-name="plus" unicode="+" horiz-adv-x="491" 
d="M454 294h-181v-180h-54v180h-182v57h182v181h54v-181h181v-57z" />
    <glyph glyph-name="comma" unicode="," horiz-adv-x="197" 
d="M134 78.5q14 -13.5 14 -36.5q0 -13 -6 -26t-7 -16l-52 -113h-44l39 112q-25 13 -25 43q0 22 13.5 36t33.5 14t34 -13.5z" />
    <glyph glyph-name="hyphen" unicode="-" horiz-adv-x="364" 
d="M299 331v-57h-235v57h235z" />
    <glyph glyph-name="period" unicode="." horiz-adv-x="199" 
d="M134 79.5q14 -14.5 14 -36.5t-14 -36.5t-34 -14.5q-21 0 -35 14.5t-14 36.5t14 36.5t35 14.5q20 0 34 -14.5z" />
    <glyph glyph-name="slash" unicode="/" horiz-adv-x="317" 
d="M370 820l-313 -942h-68l312 942h69z" />
    <glyph glyph-name="zero" unicode="0" horiz-adv-x="713" 
d="M581.5 612q75.5 -92 75.5 -262t-75.5 -262t-214.5 -92t-214 92t-75 262t75 262t214 92t214.5 -92zM212.5 565.5q-52.5 -72.5 -52.5 -215.5t52.5 -216t154.5 -73t155 73t53 216t-53 215.5t-155 72.5t-154.5 -72.5z" />
    <glyph glyph-name="one" unicode="1" horiz-adv-x="365" 
d="M251 700v-700h-80v626h-165v74h245z" />
    <glyph glyph-name="two" unicode="2" horiz-adv-x="573" 
d="M539 73v-73h-501l1 65l274 284q46 47 73 93t27 80q0 51 -39 80.5t-108 29.5q-50 0 -103 -23t-96 -63l-35 61q53 46 116.5 71.5t126.5 25.5q101 0 161 -46.5t60 -124.5q0 -48 -34 -106.5t-95 -121.5l-225 -232h397z" />
    <glyph glyph-name="three" unicode="3" horiz-adv-x="582" 
d="M465 347q64 -49 64 -132q0 -65 -33 -114.5t-94 -77t-143 -27.5q-65 0 -129.5 19t-111.5 51l35 65q42 -31 95 -48.5t107 -17.5q91 0 143.5 40t52.5 106q0 67 -52 101.5t-147 34.5h-92v52l228 227h-337v74h442v-53l-242 -243l41 -3q109 -5 173 -54z" />
    <glyph glyph-name="four" unicode="4" horiz-adv-x="587" 
d="M557 185h-111v-185h-75v185h-351v65l259 450h79l-251 -441h264v188h75v-188h111v-74z" />
    <glyph glyph-name="five" unicode="5" horiz-adv-x="613" 
d="M452.5 407.5q57.5 -26.5 89 -73t31.5 -106.5q0 -70 -32 -122.5t-91 -81t-137 -28.5q-61 0 -128.5 20.5t-120.5 55.5l33 65q47 -32 102 -50.5t107 -18.5q83 0 132.5 42t49.5 112q0 65 -49 102t-138 37q-35 0 -91 -5.5t-94 -13.5v358h428v-74h-353v-200q59 8 128 8
q76 0 133.5 -26.5z" />
    <glyph glyph-name="six" unicode="6" horiz-adv-x="639" 
d="M447.5 623.5q-43.5 11.5 -84.5 11.5q-106 0 -162 -74.5t-56 -205.5q0 -26 1 -39q23 63 78 97.5t134 34.5q104 0 164.5 -59.5t60.5 -161.5q0 -107 -65.5 -169t-174.5 -62q-130 0 -203.5 89t-73.5 249q0 111 35.5 194.5t101.5 129.5t154 46q49 0 103 -13.5t98 -36.5
l-32 -62q-35 20 -78.5 31.5zM248.5 360q-40.5 -22 -62.5 -58.5t-22 -79.5q0 -37 19 -72.5t58.5 -59t96.5 -23.5q76 0 123 43.5t47 117.5q0 71 -44.5 112.5t-119.5 41.5q-55 0 -95.5 -22z" />
    <glyph glyph-name="seven" unicode="7" horiz-adv-x="565" 
d="M536 700v-65l-313 -635h-85l309 626h-355l-1 -103h-72v177h517z" />
    <glyph glyph-name="eight" unicode="8" horiz-adv-x="639" 
d="M484.5 657q60.5 -47 60.5 -129q0 -54 -29.5 -93t-83.5 -60q69 -21 108 -67.5t39 -111.5q0 -93 -69 -146.5t-189 -53.5q-119 0 -188.5 53t-69.5 145q0 66 39.5 113t110.5 68q-56 21 -86.5 61t-30.5 94q0 81 60.5 127.5t163.5 46.5q104 0 164.5 -47zM206.5 611
q-41.5 -32 -41.5 -88q0 -57 41.5 -89t114.5 -32t114 32t41 89q0 56 -41 88t-114 32t-114.5 -32zM186.5 302q-48.5 -36 -48.5 -99q0 -67 48.5 -104.5t134.5 -37.5t134 37t48 104q0 63 -48.5 99.5t-134.5 36.5q-85 0 -133.5 -36z" />
    <glyph glyph-name="nine" unicode="9" horiz-adv-x="636" 
d="M199 76.5q43 -11.5 84 -11.5q104 0 160 74.5t56 205.5q0 26 -1 39q-23 -63 -77 -97.5t-132 -34.5q-104 0 -164 59.5t-60 161.5q0 107 64.5 169t173.5 62q129 0 202 -89t73 -249q0 -111 -35.5 -194.5t-101 -129.5t-153.5 -46q-48 0 -101.5 13.5t-96.5 36.5l32 62
q34 -20 77 -31.5zM186.5 589.5q-46.5 -43.5 -46.5 -117.5q0 -71 44 -112.5t118 -41.5q54 0 94.5 22t62 58t21.5 78q0 37 -18.5 73t-57 60t-95.5 24q-76 0 -122.5 -43.5z" />
    <glyph glyph-name="colon" unicode=":" horiz-adv-x="199" 
d="M134 376.5q14 -14.5 14 -36.5t-14 -36.5t-34 -14.5q-21 0 -35 14.5t-14 36.5t14 36.5t35 14.5q20 0 34 -14.5zM134 79.5q14 -14.5 14 -36.5t-14 -36.5t-34 -14.5q-21 0 -35 14.5t-14 36.5t14 36.5t35 14.5q20 0 34 -14.5z" />
    <glyph glyph-name="semicolon" unicode=";" horiz-adv-x="198" 
d="M134 376.5q14 -14.5 14 -36.5t-14 -36.5t-34 -14.5q-21 0 -35 14.5t-14 36.5t14 36.5t35 14.5q20 0 34 -14.5zM134 78.5q14 -13.5 14 -36.5q0 -13 -6 -26t-7 -16l-52 -113h-44l39 112q-25 13 -25 43q0 22 13.5 36t33.5 14t34 -13.5z" />
    <glyph glyph-name="less" unicode="&#x3c;" horiz-adv-x="491" 
d="M454 485l-363 -159l363 -158v-64l-417 186v73l417 186v-64z" />
    <glyph glyph-name="equal" unicode="=" horiz-adv-x="491" 
d="M454 454v-57h-417v57h417zM454 248v-57h-417v57h417z" />
    <glyph glyph-name="greater" unicode="&#x3e;" horiz-adv-x="491" 
d="M37 171l363 159l-363 158v64l417 -186v-73l-417 -186v64z" />
    <glyph glyph-name="question" unicode="?" horiz-adv-x="424" 
d="M79 642q52 47 139 47q85 0 137 -41.5t52 -119.5q0 -39 -12.5 -68t-30.5 -48.5t-49 -46.5q-29 -25 -46 -43t-28.5 -43.5t-11.5 -59.5h-61q0 41 12 70.5t29.5 49t46.5 46.5q39 33 58 61t19 72q0 51 -32.5 76.5t-89.5 25.5t-89.5 -28t-35.5 -82l-63 1q4 84 56 131zM231 79.5
q14 -14.5 14 -36.5t-14 -36.5t-34 -14.5q-21 0 -35 14.5t-14 36.5t14 36.5t35 14.5q20 0 34 -14.5z" />
    <glyph glyph-name="at" unicode="@" horiz-adv-x="986" 
d="M737 80.5q16 -17.5 41 -17.5q30 0 55 25.5t39 72t14 105.5q0 109 -48.5 196t-137 137t-202.5 50q-111 0 -202 -50.5t-143 -138.5t-52 -195q0 -104 50 -187.5t138 -131t196 -47.5q46 0 98.5 14.5t89.5 39.5l28 -54q-41 -27 -102 -44t-114 -17q-126 0 -227.5 55.5
t-159.5 153t-58 218.5q0 125 60 226t165 159t233 58t230 -56.5t160 -157t58 -226.5q0 -77 -22 -136t-61.5 -91t-91.5 -32q-44 0 -73.5 24t-33.5 68l-1 36q-30 -54 -81.5 -83t-114.5 -29q-66 0 -121 31t-87 86.5t-32 125.5q0 69 29.5 125t82.5 88.5t121 32.5q45 0 84 -15.5
t65.5 -39t37.5 -47.5v95h74v-376q0 -33 16 -50.5zM387 419.5q-38 -22.5 -59 -61.5t-21 -87q0 -49 21 -89t59.5 -63t86.5 -23q50 0 88 23t59.5 63t21.5 89q0 48 -21.5 87t-60 61.5t-88.5 22.5q-48 0 -86 -22.5z" />
    <glyph glyph-name="A" unicode="A" horiz-adv-x="718" 
d="M548 179h-381l-78 -179h-85l314 700h83l313 -700h-87zM516 253l-159 360l-157 -360h316z" />
    <glyph glyph-name="B" unicode="B" horiz-adv-x="716" 
d="M567.5 653.5q60.5 -46.5 60.5 -128.5q0 -61 -34.5 -103t-95.5 -55q76 -11 118 -58t42 -119q0 -89 -67 -139.5t-186 -50.5h-299v700h295q106 0 166.5 -46.5zM507 427.5q39 30.5 39 85.5q0 54 -39 83.5t-110 29.5h-211v-229h211q71 0 110 30.5zM530 106q47 33 47 94
q0 59 -47.5 91.5t-132.5 31.5h-211v-249h211q86 -1 133 32z" />
    <glyph glyph-name="C" unicode="C" horiz-adv-x="700" 
d="M517.5 609.5q-54.5 23.5 -111.5 23.5q-78 0 -143.5 -37.5t-103.5 -102.5t-38 -142q0 -76 38 -141t103.5 -103t143.5 -38q57 0 111 22.5t96 62.5l49 -53q-53 -50 -120.5 -78.5t-139.5 -28.5q-99 0 -182 47.5t-131.5 129.5t-48.5 180q0 97 49 178.5t132.5 129t183.5 47.5
q71 0 138 -27t118 -76l-48 -58q-41 41 -95.5 64.5z" />
    <glyph glyph-name="D" unicode="D" horiz-adv-x="789" 
d="M572 654q82 -46 129.5 -126t47.5 -178t-47.5 -178t-130.5 -126t-185 -46h-280v700h283q101 0 183 -46zM530.5 110q63.5 36 100.5 99t37 140q0 78 -37.5 141t-101.5 99.5t-142 36.5h-201v-552h204q77 0 140.5 36z" />
    <glyph glyph-name="E" unicode="E" horiz-adv-x="651" 
d="M581 700v-74h-395v-235h353v-73h-353v-244h408v-74h-488v700h475z" />
    <glyph glyph-name="F" unicode="F" horiz-adv-x="563" 
d="M551 700v-74h-365v-251h327v-73h-327v-302h-80v700h445z" />
    <glyph glyph-name="G" unicode="G" horiz-adv-x="753" 
d="M594 342h71v-256q-52 -43 -121 -67.5t-139 -24.5q-100 0 -183.5 47.5t-132.5 129.5t-49 180q0 97 49 178.5t134 129t186 47.5q72 0 139.5 -25.5t118.5 -71.5l-46 -58q-43 39 -98.5 60.5t-113.5 21.5q-79 0 -145 -38t-104.5 -102.5t-38.5 -141.5q0 -78 39 -143t105 -103
t145 -38q47 0 95 15.5t89 44.5v215z" />
    <glyph glyph-name="H" unicode="H" horiz-adv-x="794" 
d="M186 700v-317h422v317h80v-700h-80v310h-422v-310h-80v700h80z" />
    <glyph glyph-name="I" unicode="I" horiz-adv-x="292" 
d="M186 700v-700h-80v700h80z" />
    <glyph glyph-name="J" unicode="J" horiz-adv-x="483" 
d="M341 52.5q-53 -55.5 -147 -55.5q-58 0 -107.5 25.5t-86.5 73.5l40 62q33 -40 72.5 -61t80.5 -21q58 0 89 34.5t31 100.5v415h-250v74h331v-491q0 -101 -53 -156.5z" />
    <glyph glyph-name="K" unicode="K" horiz-adv-x="699" 
d="M580 0l-258 333l-136 -149v-184h-80v700h80v-411l376 411h96l-279 -305l298 -395h-97z" />
    <glyph glyph-name="L" unicode="L" horiz-adv-x="517" 
d="M186 700v-626h307v-74h-387v700h80z" />
    <glyph glyph-name="M" unicode="M" horiz-adv-x="938" 
d="M203 700l267 -510l264 510h98v-700h-75l-1 583l-264 -509h-46l-266 509v-583h-74v700h97z" />
    <glyph glyph-name="N" unicode="N" horiz-adv-x="795" 
d="M688 700v-700h-82l-420 570v-570h-80v700h83l420 -570v570h79z" />
    <glyph glyph-name="O" unicode="O" horiz-adv-x="813" 
d="M591 658.5q84 -47.5 133 -129t49 -178.5q0 -98 -49 -180t-133 -129.5t-184 -47.5q-101 0 -185 47.5t-133 129.5t-49 180q0 97 49 178.5t133 129t185 47.5q100 0 184 -47.5zM264.5 594.5q-65.5 -37.5 -104.5 -102t-39 -141.5t39 -142.5t104.5 -103.5t142.5 -38t142 38
t103.5 103.5t38.5 142.5t-38.5 141.5t-103.5 102t-142 37.5t-142.5 -37.5z" />
    <glyph glyph-name="P" unicode="P" horiz-adv-x="669" 
d="M570.5 638.5q71.5 -61.5 71.5 -173.5q0 -115 -71.5 -179t-201.5 -64h-183v-222h-80v700h263q130 0 201.5 -61.5zM513 338.5q52 42.5 52 124.5q0 80 -52 121.5t-147 41.5h-180v-330h180q95 0 147 42.5z" />
    <glyph glyph-name="Q" unicode="Q" horiz-adv-x="825" 
d="M814 -66q-40 -37 -86.5 -57t-92.5 -20q-118 0 -218 137h-10q-101 0 -185 47.5t-133 129.5t-49 180q0 97 49 178.5t133 129t185 47.5q100 0 184 -47.5t133 -129t49 -178.5q0 -82 -35 -153.5t-96.5 -121.5t-139.5 -70q75 -78 142 -78q61 0 135 63zM160 208.5
q39 -65.5 104.5 -103.5t142.5 -38t142 38t103.5 103.5t38.5 142.5t-38.5 141.5t-103.5 102t-142 37.5t-142.5 -37.5t-104.5 -102t-39 -141.5t39 -142.5z" />
    <glyph glyph-name="R" unicode="R" horiz-adv-x="723" 
d="M564 0l-147 224q-28 -2 -45 -2h-186v-222h-80v700h266q131 0 203.5 -61.5t72.5 -173.5q0 -86 -41 -144t-117 -82l165 -239h-91zM372 296q96 0 147.5 42.5t51.5 124.5q0 80 -51.5 121.5t-147.5 41.5h-186v-330h186z" />
    <glyph glyph-name="S" unicode="S" horiz-adv-x="611" 
d="M405.5 614.5q-51.5 14.5 -96.5 14.5q-68 0 -108.5 -26.5t-40.5 -71.5q0 -40 23 -65t57 -39.5t93 -32.5q72 -23 115.5 -43t74 -59.5t30.5 -103.5q0 -58 -31.5 -102t-89 -68t-132.5 -24t-146 29.5t-122 78.5l36 69q48 -47 110.5 -73t122.5 -26q76 0 120 29.5t44 81.5
q0 41 -23 67t-57 40.5t-95 33.5q-70 21 -113.5 41t-74 59t-30.5 102q0 54 30 95t85 63.5t127 22.5q60 0 119 -17.5t103 -47.5l-34 -71q-45 29 -96.5 43.5z" />
    <glyph glyph-name="T" unicode="T" horiz-adv-x="558" 
d="M548 700v-74h-229v-626h-80v626h-228v74h537z" />
    <glyph glyph-name="U" unicode="U" horiz-adv-x="765" 
d="M227 125q57 -58 156 -58t155.5 57.5t56.5 160.5v415h79v-415q0 -136 -77 -213.5t-214 -77.5t-215 77.5t-78 213.5v415h80v-415q0 -102 57 -160z" />
    <glyph glyph-name="V" unicode="V" horiz-adv-x="665" 
d="M92 700l241 -610l242 610h84l-286 -700h-83l-284 700h86z" />
    <glyph glyph-name="W" unicode="W" horiz-adv-x="1033" 
d="M1028 700l-237 -700h-83l-190 597l-194 -597h-82l-236 700h86l193 -613l193 613h80l194 -614l192 614h84z" />
    <glyph glyph-name="X" unicode="X" horiz-adv-x="665" 
d="M134 700l193 -273l195 273h94l-238 -336l258 -364h-96l-213 295l-211 -295h-94l257 360l-239 340h94z" />
    <glyph glyph-name="Y" unicode="Y" horiz-adv-x="625" 
d="M354 243v-243h-79v241l-271 459h83l227 -367l224 367h82z" />
    <glyph glyph-name="Z" unicode="Z" horiz-adv-x="660" 
d="M612 700v-62l-464 -564h469l-1 -74h-573v62l464 564h-451v74h556z" />
    <glyph glyph-name="bracketleft" unicode="[" horiz-adv-x="312" 
d="M289 742v-65h-126v-736h126v-65h-197v866h197z" />
    <glyph glyph-name="backslash" unicode="\" horiz-adv-x="317" 
d="M328 -122h-68l-313 942h69z" />
    <glyph glyph-name="bracketright" unicode="]" horiz-adv-x="312" 
d="M220 -124h-197v65h126v736h-126v65h197v-866z" />
    <glyph glyph-name="asciicircum" unicode="^" horiz-adv-x="514" 
d="M416 130.195l-159 345.254l-158 -345.254h-64l186 396.613h73l186 -396.613h-64z" />
    <glyph glyph-name="underscore" unicode="_" horiz-adv-x="555" 
d="M554 -153v-51h-554v51h554z" />
    <glyph glyph-name="grave" unicode="`" horiz-adv-x="334" 
d="M264 623l-68 -8l-125 99l80 36z" />
    <glyph glyph-name="a" unicode="a" horiz-adv-x="577" 
d="M422 0v82q-63 -85 -193 -85q-53 0 -94 21t-63 57t-22 81q0 69 52 109.5t145 41.5h173v33q0 59 -36 91.5t-105 32.5q-81 0 -167 -61l-33 55q56 37 103.5 54t111.5 17q97 0 149.5 -48t53.5 -133l1 -348h-76zM358.5 93.5q47.5 31.5 62.5 87.5v64h-164q-134 0 -134 -86
q0 -44 33 -70.5t88 -26.5q67 0 114.5 31.5z" />
    <glyph glyph-name="b" unicode="b" horiz-adv-x="676" 
d="M512.5 495q57.5 -34 89.5 -94.5t32 -138.5q0 -77 -31.5 -137.5t-88.5 -94t-131 -33.5q-70 0 -122.5 30.5t-82.5 85.5v-113h-78v742h78v-329q30 55 82.5 85.5t120.5 30.5q74 0 131.5 -34zM464 91.5q43 25.5 67 70.5t24 102q0 56 -24 101.5t-67 71t-97 25.5
q-55 0 -98 -25.5t-67 -70.5t-24 -102t24 -102t67 -70.5t98 -25.5q54 0 97 25.5z" />
    <glyph glyph-name="c" unicode="c" horiz-adv-x="561" 
d="M306 459q-54 0 -96.5 -25t-66.5 -69.5t-24 -101.5q0 -58 24 -102.5t66.5 -69.5t96.5 -25q52 0 93.5 17.5t69.5 50.5l45 -46q-36 -43 -90 -67t-121 -24q-76 0 -135 33.5t-92.5 94t-33.5 138.5q0 77 33.5 137.5t93 94.5t134.5 34q63 0 114.5 -20.5t88.5 -57.5l-43 -54
q-64 62 -157 62z" />
    <glyph glyph-name="d" unicode="d" horiz-adv-x="679" 
d="M579 742v-742h-78v113q-30 -56 -82.5 -86.5t-122.5 -30.5q-74 0 -132 34t-90 95t-32 139t32 138.5t89.5 94t131.5 33.5q70 0 123.5 -30.5t82.5 -87.5v330h78zM409 88.5q43 25.5 67.5 71t24.5 102.5t-24.5 103t-67.5 71.5t-98 25.5t-98.5 -25.5t-68 -71.5t-24.5 -103
t24.5 -102.5t68 -71t98.5 -25.5t98 25.5z" />
    <glyph glyph-name="e" unicode="e" horiz-adv-x="588" 
d="M491.5 449.5q63.5 -79.5 57.5 -215.5h-430q10 -78 62 -125t129 -47q48 0 90 17.5t73 49.5l43 -45q-38 -42 -92.5 -64.5t-119.5 -22.5q-77 0 -136.5 33.5t-92.5 94t-33 138.5q0 77 33 137.5t92.5 94.5t135.5 34q125 0 188.5 -79.5zM479 296q-4 77 -51.5 122.5t-124.5 45.5
q-76 0 -126 -45.5t-58 -122.5h360z" />
    <glyph glyph-name="f" unicode="f" horiz-adv-x="332" 
d="M214.5 653q-26.5 -26 -26.5 -71v-72h151v-61h-151v-449h-77v449h-68v61h68v63q0 54 23 94t61.5 61t82.5 21q43 0 91 -24l-19 -65q-38 19 -69 19q-40 0 -66.5 -26z" />
    <glyph glyph-name="g" unicode="g" horiz-adv-x="636" 
d="M554 526v-471q0 -76 -33 -133t-93 -87.5t-139 -30.5q-115 0 -216 77l36 57q40 -34 83 -50.5t94 -16.5q87 0 138.5 49t51.5 133v80q-28 -53 -78 -81.5t-116 -28.5q-70 0 -124.5 32.5t-85 90t-30.5 131.5t30.5 131t85 89t125.5 32q66 0 115 -28.5t78 -81.5v107h78zM389 111
q41 24 64 67t23 97t-23 97t-64 67.5t-93 24.5t-93 -24t-64.5 -67.5t-23.5 -97.5t23.5 -97t64.5 -67t93 -24t93 24z" />
    <glyph glyph-name="h" unicode="h" horiz-adv-x="662" 
d="M530 474.5q53 -54.5 53 -150.5v-324h-78v304q0 70 -39.5 110t-109.5 40q-83 -1 -130.5 -54.5t-47.5 -141.5v-258h-78v742h78v-334q52 119 205 121q94 0 147 -54.5z" />
    <glyph glyph-name="i" unicode="i" horiz-adv-x="267" 
d="M172 526v-526h-77v526h77zM169.5 715.5q14.5 -15.5 14.5 -38.5t-14.5 -38t-36.5 -15t-36.5 15t-14.5 38t14.5 38.5t36.5 15.5t36.5 -15.5z" />
    <glyph glyph-name="j" unicode="j" horiz-adv-x="253" 
d="M11 -129q40 -1 60.5 28t20.5 85v542h78v-553q0 -81 -37 -125t-105 -44q-44 0 -86 17l19 61q21 -9 50 -11zM167.5 715.5q14.5 -15.5 14.5 -38.5t-14.5 -38t-36.5 -15t-36.5 15t-14.5 38t14.5 38.5t36.5 15.5t36.5 -15.5z" />
    <glyph glyph-name="k" unicode="k" horiz-adv-x="573" 
d="M289 267l-111 -115v-152h-78v742h78v-489l271 273h92l-197 -203l218 -323h-93z" />
    <glyph glyph-name="l" unicode="l" horiz-adv-x="278" 
d="M178 742v-742h-78v742h78z" />
    <glyph glyph-name="m" unicode="m" horiz-adv-x="1044" 
d="M914 474.5q52 -54.5 52 -150.5v-324h-78v304q0 71 -39 111t-107 40q-81 -2 -126.5 -55.5t-45.5 -140.5v-259h-79v304q0 71 -38.5 111t-107.5 40q-80 -2 -126.5 -56t-46.5 -140v-259h-77v526h77v-119q26 60 77 90.5t124 31.5q74 0 123 -36t66 -101q24 68 77.5 102
t130.5 35q92 0 144 -54.5z" />
    <glyph glyph-name="n" unicode="n" horiz-adv-x="656" 
d="M524 474.5q53 -54.5 53 -150.5v-324h-78v304q0 70 -39.5 110t-109.5 40q-77 -1 -123.5 -47.5t-53.5 -124.5v-282h-78v526h78v-116q54 117 204 119q94 0 147 -54.5z" />
    <glyph glyph-name="o" unicode="o" horiz-adv-x="618" 
d="M447 495.5q61 -33.5 95 -94t34 -137.5t-34 -138t-95 -95t-138 -34q-78 0 -138.5 34t-94.5 94.5t-34 138.5q0 77 34 137.5t94.5 94t138.5 33.5q77 0 138 -33.5zM211 435q-43 -25 -67 -70t-24 -102q0 -58 24 -103t67 -70t98 -25t98 25t67 70t24 103q0 57 -24 102t-67.5 70
t-97.5 25q-55 0 -98 -25z" />
    <glyph glyph-name="p" unicode="p" horiz-adv-x="676" 
d="M512.5 495q57.5 -34 89.5 -94.5t32 -138.5q0 -77 -31.5 -137.5t-88.5 -94t-131 -33.5q-70 0 -122.5 30.5t-82.5 85.5v-307h-78v720h78v-113q30 55 82.5 85.5t120.5 30.5q74 0 131.5 -34zM464 91.5q43 25.5 67 70.5t24 102q0 56 -24 101.5t-67 71t-97 25.5
q-55 0 -98 -25.5t-67 -70.5t-24 -102t24 -102t67 -70.5t98 -25.5q54 0 97 25.5z" />
    <glyph glyph-name="q" unicode="q" horiz-adv-x="679" 
d="M579 526v-720h-78v307q-30 -56 -82.5 -86.5t-122.5 -30.5q-74 0 -132 34t-90 95t-32 139t32 138.5t89.5 94t131.5 33.5q70 0 123.5 -30.5t82.5 -87.5v114h78zM409 88.5q43 25.5 67.5 71t24.5 102.5t-24.5 103t-67.5 71.5t-98 25.5t-98.5 -25.5t-68 -71.5t-24.5 -103
t24.5 -102.5t68 -71t98.5 -25.5t98 25.5z" />
    <glyph glyph-name="r" unicode="r" horiz-adv-x="372" 
d="M247 497.5q48 30.5 115 31.5v-76q-82 1 -132 -45.5t-57 -127.5v-280h-78v526h78v-117q26 58 74 88.5z" />
    <glyph glyph-name="s" unicode="s" horiz-adv-x="453" 
d="M304 453q-38 11 -74 11q-47 0 -75.5 -17.5t-28.5 -53.5q0 -25 16 -41t40 -25.5t66 -22.5q55 -17 89.5 -33t58.5 -46t24 -79q0 -73 -55.5 -111t-137.5 -38q-57 0 -111 19.5t-91 54.5l30 57q33 -31 80.5 -49t94.5 -18q50 0 81.5 20t31.5 59q0 38 -31 57t-94 37
q-53 16 -86 31.5t-56.5 44.5t-23.5 76q0 71 52 107.5t131 36.5q46 0 90 -13t78 -35l-30 -60q-31 20 -69 31z" />
    <glyph glyph-name="t" unicode="t" horiz-adv-x="390" 
d="M367 36q-59 -39 -121 -39q-60 0 -96 37.5t-36 111.5v303h-76v61h76v138h77v-138h167v-61h-167v-290q0 -47 17.5 -68.5t52.5 -21.5q41 2 84 27z" />
    <glyph glyph-name="u" unicode="u" horiz-adv-x="647" 
d="M552 526v-526h-78v119q-51 -120 -200 -122q-92 0 -144.5 55t-52.5 150v324h78v-304q0 -70 39 -110t107 -40q81 1 127 55t46 141v258h78z" />
    <glyph glyph-name="v" unicode="v" horiz-adv-x="498" 
d="M87 526l168 -447l167 447h79l-207 -526h-81l-209 526h83z" />
    <glyph glyph-name="w" unicode="w" horiz-adv-x="864" 
d="M86 526l156 -447l153 447h82l155 -447l154 447h81l-195 -526h-81l-155 431l-154 -431h-81l-197 526h82z" />
    <glyph glyph-name="x" unicode="x" horiz-adv-x="529" 
d="M124 526l140 -201l142 201h86l-176 -255l189 -271h-91l-150 216l-155 -216h-88l192 271l-179 255h90z" />
    <glyph glyph-name="y" unicode="y" horiz-adv-x="502" 
d="M198 -166q-40 -31 -93 -31q-64 0 -111 38l33 62q35 -25 74 -25q31 0 55.5 19.5t40.5 56.5l22 50l-218 522h82l175 -438l167 438h80l-242 -601q-25 -60 -65 -91z" />
    <glyph glyph-name="z" unicode="z" horiz-adv-x="527" 
d="M476 526v-58l-330 -402l338 -1v-66l-432 1v58l330 402l-321 1v65h415z" />
    <glyph glyph-name="braceleft" unicode="{" horiz-adv-x="334" 
d="M190 353.5q-12 -15.5 -31.5 -27.5t-27.5 -17q8 -5 30.5 -19.5t31.5 -32.5t9 -47v-197q0 -39 23 -56.5t77 -17.5v-65h-29q-76 0 -109.5 27.5t-33.5 90.5v223q0 31 -11.5 45.5t-35.5 14.5h-27v66h27q24 0 35.5 15t11.5 46v223q0 63 33.5 90.5t109.5 27.5h29v-65
q-53 0 -76.5 -18t-23.5 -57v-197q0 -37 -12 -52.5z" />
    <glyph glyph-name="bar" unicode="|" horiz-adv-x="250" 
d="M156 815v-936h-62v936h62z" />
    <glyph glyph-name="braceright" unicode="}" horiz-adv-x="334" 
d="M278 341v-66h-27q-24 0 -35.5 -14.5t-11.5 -45.5v-223q0 -63 -33.5 -90.5t-109.5 -27.5h-29v65q54 0 77 17.5t23 56.5v197q0 37 12 53t31.5 28.5t27.5 17.5q-8 5 -30.5 18.5t-31.5 31.5t-9 47v197q0 39 -23.5 57t-76.5 18v65h29q76 0 109.5 -27.5t33.5 -90.5v-223
q0 -31 11.5 -46t35.5 -15h27z" />
    <glyph glyph-name="asciitilde" unicode="~" horiz-adv-x="491" 
d="M397 286q-22 -30 -64 -30q-24 0 -45.5 9t-49.5 26q-22 13 -37 20t-29 7q-21 0 -32 -14t-11 -40h-56q0 58 22 88t64 30q22 0 42.5 -8.5t49.5 -25.5q23 -14 39 -21t30 -7q21 0 32 14t11 40h56q0 -58 -22 -88z" />
    <glyph glyph-name="uni00A0" unicode="&#xa0;" horiz-adv-x="300" 
 />
    <glyph glyph-name="exclamdown" unicode="&#xa1;" horiz-adv-x="203" 
d="M73 -163v169l11 310h52l12 -310v-169h-75zM76 445.5q-14 14.5 -14 36.5t14 36.5t34 14.5q21 0 35 -14.5t14 -36.5t-14 -36.5t-35 -14.5q-20 0 -34 14.5z" />
    <glyph glyph-name="cent" unicode="&#xa2;" horiz-adv-x="600" 
d="M437.5 27q-45.5 -23 -102.5 -29v-138h-61v138q-68 6 -120.5 41.5t-82 93.5t-29.5 130t29.5 130t82 93.5t120.5 41.5v145h61v-145q106 -10 171 -77l-43 -54q-64 62 -157 62q-54 0 -96.5 -25t-66.5 -69.5t-24 -101.5q0 -58 24 -102.5t66.5 -69.5t96.5 -25q52 0 93.5 17.5
t69.5 50.5l45 -46q-31 -38 -76.5 -61z" />
    <glyph glyph-name="sterling" unicode="&#xa3;" horiz-adv-x="541" 
d="M210 67h294v-67h-461v67h87v258h-87v46h87v119q0 102 51.5 157.5t145.5 55.5q55 0 104 -24.5t85 -68.5l-34 -62q-32 40 -69.5 61t-77.5 21q-61 0 -93 -36t-32 -105v-118h182v-46h-182v-258z" />
    <glyph glyph-name="currency" unicode="&#xa4;" horiz-adv-x="717" 
d="M572 152l103 -104l-45 -48l-107 107q-73 -54 -165 -54q-91 0 -164 54l-107 -107l-45 48l104 105q-29 34 -44.5 76.5t-15.5 88.5t15.5 88.5t43.5 76.5l-103 104l45 48l105 -105q35 26 77.5 40.5t88.5 14.5t89 -14.5t78 -40.5l105 105l45 -48l-102 -103q29 -34 44.5 -76.5
t15.5 -89.5q0 -92 -61 -166zM177 219.5q28 -45.5 76 -72t105 -26.5t106 26.5t77.5 72t28.5 98.5q0 54 -28.5 100t-77 73t-106.5 27q-57 0 -105 -27t-76 -73t-28 -100q0 -53 28 -98.5z" />
    <glyph glyph-name="yen" unicode="&#xa5;" horiz-adv-x="624" 
d="M382 291h180v-47h-208v-70h208v-47h-208v-127h-80v127h-208v47h208v69l-1 1h-207v47h179l-241 409h82l228 -368l223 368h83z" />
    <glyph glyph-name="brokenbar" unicode="&#xa6;" horiz-adv-x="250" 
d="M156 815v-348h-62v348h62zM156 228v-349h-62v349h62z" />
    <glyph glyph-name="section" unicode="&#xa7;" horiz-adv-x="473" 
d="M247 637q-53 0 -84.5 -20.5t-31.5 -55.5q0 -28 17.5 -46t44.5 -29t72 -25q56 -17 90.5 -32.5t59 -44.5t24.5 -75q0 -47 -34 -83.5t-80 -46.5q52 -20 76 -48.5t24 -71.5q0 -42 -24.5 -74t-68.5 -50t-100 -18q-59 0 -113 19.5t-94 55.5l26 50q39 -32 85 -49.5t93 -17.5
q54 0 90 23t36 59q0 28 -17.5 46t-44 29.5t-72.5 25.5q-55 18 -89.5 33.5t-58.5 44.5t-24 74q0 49 35 81.5t96 43.5q-64 23 -91 51.5t-27 71.5q0 61 50.5 98.5t133.5 37.5q92 0 170 -48l-27 -51q-67 42 -142 42zM149 371.5q-32 -20.5 -32 -54.5q0 -26 19.5 -48.5t51.5 -35.5
t70 -13q50 0 80.5 23t30.5 60q0 40 -36.5 64.5t-97.5 24.5q-54 0 -86 -20.5z" />
    <glyph glyph-name="dieresis" unicode="&#xa8;" horiz-adv-x="337" 
d="M130.5 711.5q13.5 -13.5 13.5 -35.5q0 -20 -13.5 -34t-33.5 -14q-19 0 -32.5 14t-13.5 34q0 22 13 35.5t33 13.5t33.5 -13.5zM298.5 711q13.5 -14 13.5 -35q0 -20 -13.5 -34t-33.5 -14t-33.5 14t-13.5 34q0 22 13.5 35.5t33.5 13.5t33.5 -14z" />
    <glyph glyph-name="copyright" unicode="&#xa9;" horiz-adv-x="757" 
d="M206.5 55q-77.5 46 -122 124t-44.5 169t45 169.5t122.5 125t171.5 46.5q93 0 170.5 -45.5t122.5 -123.5t45 -170q0 -91 -45 -169.5t-123 -125t-172 -46.5q-93 0 -170.5 46zM527.5 94q68.5 40 108 108t39.5 148t-39 147.5t-107 107t-150 39.5t-150 -40t-107 -108t-39 -148
t38.5 -147.5t106 -107t149.5 -39.5t150.5 40zM290.5 195.5q-41.5 23.5 -65.5 64t-24 89.5q0 48 24.5 88t66.5 63.5t92 23.5q36 0 70 -13.5t60 -37.5l-27 -32q-45 43 -103 43q-38 0 -70 -18t-50.5 -49t-18.5 -67q0 -37 18.5 -68.5t50.5 -49.5t70 -18q28 0 55 11t48 30l27 -29
q-27 -25 -61.5 -39.5t-70.5 -14.5q-50 0 -91.5 23.5z" />
    <glyph glyph-name="ordfeminine" unicode="&#xaa;" horiz-adv-x="380" 
d="M266 458v56q-39 -58 -120 -58q-48 0 -77 25.5t-29 66.5t32 63.5t90 22.5h104v22q-1 33 -22 50.5t-62 17.5q-51 0 -108 -33l-16 40q70 39 136 39q60 0 94 -29t34 -79l1 -204h-57zM266 557v46h-93q-38 0 -58.5 -13t-20.5 -37q0 -26 19 -41.5t51 -15.5q74 0 102 61z" />
    </font>
</defs>
</svg>
